<svg xmlns="http://www.w3.org/2000/svg" xmlns:xlink="http://www.w3.org/1999/xlink" fill="none" version="1.1" width="16" height="16" viewBox="0 0 16 16"><defs><clipPath id="master_svg0_23_1957"><rect x="0" y="0" width="16" height="16" rx="0"/></clipPath></defs><g clip-path="url(#master_svg0_23_1957)"><path d="M13.60222459375,2.1333333000000003L10.79989239375,2.1333333000000003L10.79989239375,0.96666667C10.79989239375,0.7089338000000001,10.59095859375,0.5,10.33322619375,0.5L4.733225393750001,0.5C4.47549219375,0.5,4.2665586937499995,0.7089338000000001,4.2665586937499995,0.96666667L4.2665586937499995,2.1333333000000003L1.46422526375,2.1333333000000003C1.20649239375,2.1333333000000003,0.99755859375,2.3422672,0.99755859375,2.5999999C0.99755859375,2.8577328,1.20649239375,3.0666666,1.46422526375,3.0666666L1.95655876375,3.0666666L3.09289219375,13.2554C3.17203329375,13.963975,3.77104469375,14.49989,4.48402519375,14.5L10.58195969375,14.5C11.29503759375,14.499914,11.89419659375,13.964047,11.97355859375,13.2554L13.10989259375,3.0666666L13.60175959375,3.0666666C13.85940359375,3.0666695,14.06830259375,2.8578768,14.06843159375,2.6002328C14.06855959375,2.3425889,13.85986959375,2.1335877,13.60222459375,2.1333333000000003ZM5.19989209375,1.43333334L9.86655899375,1.43333334L9.86655899375,2.1333333000000003L5.19989209375,2.1333333000000003L5.19989209375,1.43333334ZM11.04629259375,13.1518C11.01990459375,13.38805,10.82014559375,13.56671,10.58242609375,13.566667L4.48402519375,13.566667C4.24630549375,13.56671,4.04654549375,13.388051,4.02015829375,13.1518L2.8954917937499998,3.0666666L12.17095959375,3.0666666L11.04629259375,13.1518ZM8.933225593749999,12.005199C9.19095799375,12.005199,9.39989279375,11.796266,9.39989279375,11.538533L9.39989279375,4.6869335C9.39989279375,4.4292004,9.19095799375,4.2202668,8.933225593749999,4.2202668C8.67549319375,4.2202668,8.466558893750001,4.4292004,8.466558893750001,4.6869335L8.466558893750001,11.538533C8.466558893750001,11.796266,8.67549319375,12.005199,8.933225593749999,12.005199ZM6.36655859375,12.005199C6.62429189375,12.005199,6.83322529375,11.796266,6.83322529375,11.538533L6.83322529375,4.6869335C6.83322529375,4.4292004,6.62429189375,4.2202668,6.36655859375,4.2202668C6.10882569375,4.2202668,5.89989189375,4.4292004,5.89989189375,4.6869335L5.89989189375,11.538533C5.89989189375,11.796266,6.10882569375,12.005199,6.36655859375,12.005199Z" fill="#C5CBD8" fill-opacity="1"/></g></svg>