<svg xmlns="http://www.w3.org/2000/svg" xmlns:xlink="http://www.w3.org/1999/xlink" fill="none" version="1.1" width="16" height="16" viewBox="0 0 16 16"><defs><clipPath id="master_svg0_23_1948"><rect x="0" y="0" width="16" height="16" rx="0"/></clipPath><clipPath id="master_svg1_23_1950"><rect x="8" y="7" width="8" height="8" rx="0"/></clipPath></defs><g clip-path="url(#master_svg0_23_1948)"><path d="M8.9819297775,5.1549454125C9.2551012075,5.1549454125,9.476554867499999,4.9334922125,9.476554867499999,4.6603203125L9.476554867499999,3.7026329025C9.476554867499999,3.4294610025,9.2551021575,3.2080078125,8.9819297775,3.2080078125C8.7087573975,3.2080078125,8.4873046875,3.4294610025,8.4873046875,3.7026329025L8.4873046875,4.6603203125C8.4873046875,4.9334922125,8.7087573975,5.1549454125,8.9819297775,5.1549454125Z" fill="#C5CBD8" fill-opacity="1"/><g clip-path="url(#master_svg1_23_1950)"><path d="M10.30934075,14.2763428875L8.72084856,12.6878585875L13.111681449999999,8.2969861875L14.70016575,9.8854705875L10.30934075,14.2763428875ZM15.724029550000001,8.1169759675L14.88013605,7.2731295675C14.67451425,7.0675071475,14.32660775,7.0820202825,14.10308985,7.3055776475L13.31027935,8.0983881375L14.89876315,9.6868724875L15.69157405,8.8940698875C15.915044349999999,8.6705045875,15.92961265,8.3225904875,15.724029550000001,8.1169759675ZM8.57333374,12.9377517875L8.01171875,14.985394487499999L10.059140450000001,14.4237708875L8.57333374,12.9377517875Z" fill="#C5CBD8" fill-opacity="1"/></g><path d="M3.233796875,1.3076171875L12.809296375,1.3076171875C13.867171375,1.3076171875,14.724734375,2.1651952275,14.724749375,3.2230546875Q14.724609375,5.4648437875,14.724609375,6.2324218875C14.724609375,6.9999999875,13.767578375,6.9999999875,13.767922375,6.2320780875Q13.768266375,5.4641561875,13.767922375,3.2237577875000003C13.768485375,2.6945077875,13.339906375,2.2650077375,12.810656375,2.2644453075L11.854313375,2.2644453075L11.854313375,6.0971641875C11.854313375,6.6260704875,11.425469375,7.0539922875,10.896515875,7.0539922875L5.148265575,7.0539922875C4.620593775,7.0532111875,4.1934687749999995,6.6248359875,4.194249875000001,6.0971641875L4.194249875000001,2.2644453075L3.2360155749999997,2.2644453075C2.705968575,2.2646796675000003,2.276140685,2.6939296875,2.275187495,3.2239765875L2.275187495,12.8011641875C2.275187495,13.0572261875,2.3759531750000003,13.2966001875,2.557046875,13.4776951875C2.738140575,13.6587881875,2.979937275,13.7571791875,3.2360155749999997,13.7571791875L6.999999975,13.7568361875C7.499999975,13.7568361875,7.499999975,14.7138671875,6.999999975,14.7138671875L3.233796875,14.7140081875C2.175937415,14.7140081875,1.318359375,13.8564301875,1.318359375,12.7985701875L1.318359375,3.2230546875C1.318359375,2.1651952275,2.175937415,1.3076171875,3.233796875,1.3076171875ZM10.864999775,6.0647263875L10.864999775,2.2968828675L5.1835000749999995,2.2968828675L5.1835000749999995,6.0647263875L10.864999775,6.0647263875Z" fill-rule="evenodd" fill="#C5CBD8" fill-opacity="1"/></g></svg>