<svg xmlns="http://www.w3.org/2000/svg" xmlns:xlink="http://www.w3.org/1999/xlink" fill="none" version="1.1" width="15" height="15" viewBox="0 0 15 15"><defs><clipPath id="master_svg0_23_1954"><rect x="0" y="0" width="15" height="15" rx="0"/></clipPath></defs><g clip-path="url(#master_svg0_23_1954)"><path d="M13.606692578125,10.15559764375C13.343867578125,10.15967274375,13.131977578125,10.37563614375,13.136053578125,10.63846204375L13.136053578125,11.85071584375C13.136053578125,12.38043984375,12.716348578125,12.81236984375,12.198848578125,12.81236984375L2.832913878125,12.81236984375C2.315413978125,12.81236984375,1.8957091581249998,12.38043984375,1.8957091581249998,11.85071584375L1.8957091581249998,3.20194664375C1.8957091581249998,2.67222214375,2.315413978125,2.2402931437499998,2.832913878125,2.2402931437499998L6.092756278125,2.2402931437499998L7.302972778125,4.39382624375C7.400767278125,4.56496784375,7.584134078125,4.65257644375,7.765462378125,4.63220234375L12.196809578125,4.63220234375C12.714310578125,4.63220234375,13.134015578125,5.06413174375,13.134015578125,5.59385584375L13.134015578125,6.79592274375C13.134015578125,7.06282284375,13.345905578125,7.27878714375,13.606692578125,7.27878714375C13.867479578125,7.27878714375,14.077331578125,7.06282284375,14.077331578125,6.79592274375C14.077331578125,6.78369854375,14.077331578125,6.77147384375,14.075295578125,6.75924964375L14.075295578125,5.59385584375C14.075295578125,4.532370043749999,13.235885578125,3.67054934375,12.200884578125,3.67054934375L7.981427678125,3.67054934375L6.773248678125,1.52516579375C6.665266478125,1.33161266175,6.510424178125,1.28067762915,6.373918078125,1.28475236935L6.371880578125,1.28271484375L2.826801878125,1.28271484375C1.791801928125,1.28271484375,0.952392578125,2.14453566375,0.952392578125,3.20602154375L0.952392578125,11.83034184375C0.952392578125,12.89182684375,1.791801928125,13.75364984375,2.826801878125,13.75364984375L12.200884578125,13.75364984375C13.235885578125,13.75364984375,14.075295578125,12.89182884375,14.075295578125,11.83034184375L14.075295578125,10.67513564375C14.077331578125,10.66291044375,14.077331578125,10.65068624375,14.077331578125,10.63846204375C14.079368578125,10.51214314375,14.030471578125,10.38989834375,13.940825578125,10.30025384375C13.853217578125,10.20857044375,13.733010578125,10.15763564375,13.606692578125,10.15559764375ZM6.962726078125,6.66145424375C6.887341978125,6.57995844375,6.783434878125,6.53309824375,6.671378178125,6.53309824375C6.561358478125,6.53309824375,6.455413378125,6.57995844375,6.380029678125,6.66145424375L4.644164278125,8.509377443750001L4.633977178125,8.51956464375L4.631939678125001,8.51956464375L4.621752778125,8.529751743750001C4.4648723781249995,8.702930943750001,4.4648723781249995,8.96779294375,4.621752778125,9.14097164375L6.363730878125,10.99908254375C6.437077478125,11.08057784375,6.540985078125,11.12540154375,6.651004278125,11.12743754375C6.761023978125,11.12743754375,6.864931578125,11.08261584375,6.938278178125,11.00111964375L6.946427778125,10.99093244375C7.103308178125,10.81775284375,7.103308178125,10.55289074375,6.946427778125,10.37971114375L5.897166278125,9.259140943750001L10.662647278125,9.259140943750001C10.884724578125,9.259140943750001,11.066052578125,9.065588043750001,11.066052578125,8.82924984375C11.066052578125,8.592911743750001,10.884723678125,8.39935874375,10.662647278125,8.39935874375L5.915502078125,8.39935874375L6.962726078125,7.28082564375C7.123680578125,7.10764644375,7.123680578125,6.83667234375,6.962726078125,6.66145424375Z" fill="#C5CBD8" fill-opacity="1"/></g></svg>