<svg xmlns="http://www.w3.org/2000/svg" xmlns:xlink="http://www.w3.org/1999/xlink" fill="none" version="1.1" width="15" height="15" viewBox="0 0 15 15"><defs><clipPath id="master_svg0_23_1941"><rect x="0" y="0" width="15" height="15" rx="0"/></clipPath></defs><g clip-path="url(#master_svg0_23_1941)"><path d="M14.04375,3.3083500093750002L12.8325,6.401162609375L12.630938,6.916787609375C12.575624,7.059287509375,12.414374,7.129600509375,12.271874,7.073349909375L11.756249,6.871787109375L8.6624999,5.659600209375C8.5200005,5.603350209375,8.449687,5.443037509375,8.5059376,5.300537109375L8.7075,4.784912109375C8.7628126,4.642412209375,8.9240627,4.572099709375,9.0665627,4.628349809375L11.62875,5.632412409375C10.8881254,3.809912409375,9.1153126,2.517099809375,7.0275002,2.517099809375C4.2759377999999995,2.517099809375,2.0446877,4.7483499093749995,2.0446877,7.499912309375C2.0446877,10.251474409375,4.2750003,12.482725109375,7.0275002,12.482725109375C9.1959372,12.482725109375,11.035313,11.095226309375,11.720626,9.161162809375L12.882189,9.161162809375C12.158439,11.715850109375,9.8146887,13.589912109375,7.0275011,13.589912109375C3.6637499,13.589912109375,0.9375,10.863662709375,0.9375,7.499912309375C0.9375,4.136162009375,3.6637499,1.40991255640984,7.0274997,1.40991255640984C9.328125,1.40991255640984,11.325,2.688662409375,12.359062,4.572099709375L13.012499,2.904287209375C13.067812,2.7617873093750003,13.229062,2.691474709375,13.371562,2.747724609375L13.887187,2.9492870093750003C14.028749,3.0055375093750003,14.099062,3.165849909375,14.04375,3.3083500093750002Z" fill="#C5CBD8" fill-opacity="1"/></g></svg>