<svg xmlns="http://www.w3.org/2000/svg" xmlns:xlink="http://www.w3.org/1999/xlink" fill="none" version="1.1" width="15" height="15" viewBox="0 0 15 15"><defs><clipPath id="master_svg0_23_1944"><rect x="0" y="0" width="15" height="15" rx="0"/></clipPath></defs><g clip-path="url(#master_svg0_23_1944)"><path d="M12.00859384375,1.225830078125L3.03156244375,1.225830078125C2.0398192437500002,1.225830078125,1.23583984375,2.0298094781250002,1.23583984375,3.021552678125L1.23583984375,11.998599078125C1.23583984375,12.990342078125,2.0398192437500002,13.794322078125,3.03156244375,13.794322078125L12.00860784375,13.794322078125C13.00035084375,13.794322078125,13.80433084375,12.990342078125,13.80433084375,11.998599078125L13.80433084375,3.021552678125C13.80431684375,2.0298094781250002,13.00035084375,1.225830078125,12.00859384375,1.225830078125ZM10.18581484375,2.153266668125L10.18581484375,5.685619878125L4.85940934375,5.685619878125L4.85940934375,2.153266668125L10.18581484375,2.153266668125ZM12.90730484375,12.001031078125C12.90769984375,12.495636078125,12.50706484375,12.896899078125,12.01246084375,12.897295078125L3.03364254375,12.897295078125C2.79356924375,12.897295078125,2.56688474375,12.805054078125,2.39710934375,12.635279078125C2.22733402375,12.465502078125,2.13286620375,12.241089078125,2.13286620375,12.001031078125L2.13286620375,3.0224170781249997C2.13375985375,2.525498078125,2.53672354375,2.123076138125,3.03364254375,2.122856438125L3.93198724375,2.122856438125L3.93198724375,5.716030078125C3.93125484375,6.210722878125,4.33168454375,6.612324678125,4.826376943750001,6.613056678125L10.21536164375,6.613056678125C10.71125504375,6.613056678125,11.11329654375,6.211880178125,11.11329654375,5.716030078125L11.11329654375,2.122856438125L12.00986884375,2.122856438125C12.50604084375,2.123383698125,12.90783284375,2.526040078125,12.90730484375,3.022211778125L12.90730484375,12.001031078125Z" fill="#C5CBD8" fill-opacity="1"/><path d="M8.420498129375,4.832822359375C8.676596339375,4.832822359375,8.884209159375,4.625209959375,8.884209159375,4.369111259375L8.884209159375,3.471279379375C8.884209159375,3.215180729375,8.676597239375,3.007568359375,8.420498129375,3.007568359375C8.164399029375,3.007568359375,7.956787109375,3.215180729375,7.956787109375,3.471279379375L7.956787109375,4.369111259375C7.956787109375,4.625209959375,8.164399029375,4.832822359375,8.420498129375,4.832822359375Z" fill="#C5CBD8" fill-opacity="1"/></g></svg>