<svg xmlns="http://www.w3.org/2000/svg" xmlns:xlink="http://www.w3.org/1999/xlink" fill="none" version="1.1" width="20" height="20" viewBox="0 0 20 20"><defs><clipPath id="master_svg0_55_4344"><rect x="0" y="0" width="20" height="20" rx="0"/></clipPath></defs><g clip-path="url(#master_svg0_55_4344)"><path d="M15.556204375,17.091308124999998L15.556204375,2.222428125L4.4450840750000005,2.222428125L4.4450840750000005,17.091288125L10.000643775,14.313509125L15.556204375,17.091308124999998ZM4.4450840750000005,1.111348092556L15.556204375,1.111348092556C16.169844375,1.111348092556,16.667305374999998,1.608808155,16.667305374999998,2.222448125L16.667305374999998,17.091308124999998C16.667305374999998,17.704948125,16.169844375,18.202408125,15.556204375,18.202408125C15.383711375,18.202408125,15.213585375,18.162248125,15.059305375,18.085108125L10.000643775,15.555789125L4.941984175,18.085108125C4.393124375,18.359548125,3.7257043149999998,18.137068125,3.451284225,17.588209125C3.374144197,17.433924125,3.33398407697678,17.263800125,3.333984375,17.091308124999998L3.333984375,2.222428125C3.333984375,1.608788195,3.831444445,1.111328125,4.445084375,1.111328125L4.4450840750000005,1.111348092556ZM7.222883675,5.555788025L12.778422375,5.555788025C13.085243275,5.555788025,13.333983375,5.804507725,13.333983375,6.111348125C13.333983375,6.418147525,13.085243275,6.666887325,12.778422375,6.666887325L7.222844074999999,6.666887325C6.916023975,6.666887325,6.667283975,6.418168025,6.667283975,6.111348125C6.667283975,5.804507725,6.916023975,5.555788025,7.222844074999999,5.555788025L7.222883675,5.555788025ZM7.222883675,8.889107724999999L12.778422375,8.889107724999999C13.085243275,8.889107724999999,13.333983375,9.137847925,13.333983375,9.444667825C13.333983375,9.751488725,13.085243275,10.000227925,12.778424275,10.000227925L7.222844074999999,10.000227925C6.916023975,10.000227925,6.667283975,9.751488725,6.667283975,9.444667825C6.667283975,9.137847925,6.916023975,8.889107724999999,7.222844074999999,8.889107724999999L7.222883675,8.889107724999999Z" fill="currentColor" fill-opacity="1"/></g></svg>