<svg xmlns="http://www.w3.org/2000/svg" xmlns:xlink="http://www.w3.org/1999/xlink" fill="none" version="1.1" width="20" height="20" viewBox="0 0 20 20"><defs><clipPath id="master_svg0_59_3271"><rect x="0" y="0" width="20" height="20" rx="0"/></clipPath></defs><g clip-path="url(#master_svg0_59_3271)"><path d="M11.46354243125,10.0297727625C12.53907393125,9.483623462499999,13.27823163125,8.3671603625,13.27823163125,7.0805923625C13.27823163125,5.2575683625,11.795077831250001,3.7744140625,9.97203393125,3.7744140625C8.14899043125,3.7744140625,6.66587553125,5.2575683625,6.66587553125,7.0805923625C6.66587553125,8.3671598625,7.40503453125,9.483602962500001,8.48054483125,10.0297727625C6.61233153125,10.655088862500001,5.26220703125,12.4214706625,5.26220703125,14.4974230625C5.26220703125,14.7184340625,5.44138574125,14.8976520625,5.66243553125,14.8976520625C5.88348532125,14.8976520625,6.06266403125,14.7184530625,6.06266403125,14.4974230625C6.06266403125,12.3417844625,7.816394831249999,10.588033662499999,9.972053031249999,10.588033662499999C12.127712231250001,10.588033662499999,13.88142303125,12.3417863625,13.88142303125,14.4974230625C13.88142303125,14.7184340625,14.06060223125,14.8976520625,14.28165153125,14.8976520625C14.50270173125,14.8976520625,14.68188003125,14.7184530625,14.68188003125,14.4974230625C14.68186093125,12.4214706625,13.33175663125,10.6551089625,11.46354243125,10.0297727625ZM7.46631293125,7.0805930625C7.46631293125,5.6989097625,8.590390931249999,4.5748519925,9.97203393125,4.5748519925C11.35371733125,4.5748519925,12.477775131249999,5.6989300625,12.477775131249999,7.0805930625C12.477775131249999,8.462255962499999,11.35369733125,9.586314162499999,9.97203393125,9.586314162499999C8.590390931249999,9.5863342625,7.46631293125,8.462255962499999,7.46631293125,7.0805930625Z" fill="currentColor" fill-opacity="1"/><path d="M16.170020906250002,3.8298411625C14.52211790625,2.1819785825,12.33114290625,1.2744140625,10.00066380625,1.2744140625C7.67018410625,1.2744140625,5.47918940625,2.1819587325,3.83130600625,3.8298411625C2.18340349625,5.4777636625,1.27587890625,7.6687183625,1.27587890625,9.9991979625C1.27587890625,12.3296780625,2.18340349625,14.5206740625,3.83130650625,16.1685750625C5.47920940625,17.8164790625,7.67018410625,18.7240030625,10.00066380625,18.7240030625C12.33114290625,18.7240030625,14.52211790625,17.8164790625,16.170020906250002,16.1685750625C17.81792490625,14.5206740625,18.72544890625,12.3296780625,18.72544890625,9.9991979625C18.72544890625,7.6687183625,17.81792490625,5.4777440625,16.170020906250002,3.8298411625ZM10.00066380625,17.9235650625C5.63116600625,17.9235650625,2.07631593625,14.3687340625,2.07631593625,9.9991979625C2.07631593625,5.6297006625,5.63116600625,2.0748508025,10.00066380625,2.0748508025C14.37016090625,2.0748508025,17.92501090625,5.6296806625,17.92501090625,9.9991979625C17.92501090625,14.3687360625,14.37016090625,17.9235650625,10.00066380625,17.9235650625Z" fill="currentColor" fill-opacity="1"/></g></svg>