<svg xmlns="http://www.w3.org/2000/svg" xmlns:xlink="http://www.w3.org/1999/xlink" fill="none" version="1.1" width="20" height="20" viewBox="0 0 20 20"><defs><clipPath id="master_svg0_55_2818"><rect x="0" y="0" width="20" height="20" rx="0"/></clipPath></defs><g clip-path="url(#master_svg0_55_2818)"><path d="M18.572201,11.201029C18.688803,10.610386,18.749935,9.9998035,18.749935,9.3749628C18.749935,4.1973076,14.552627,0,9.3749723,0C4.1973171,0,0.0000097656239,4.1973076,0.0000097656239,9.3749628C0.0000097656239,14.552619,4.1973171,18.749926,9.3749723,18.749926C9.9998131,18.749926,10.610396,18.688791,11.201039,18.572191C10.979566,18.22937,10.798345,17.862162,10.660963,17.47784C10.235564,17.544699,9.8055925,17.578205,9.3749723,17.578054C4.8445215,17.578054,1.1718801,13.905413,1.1718801,9.3749628C1.1718801,4.8445125,4.8445215,1.1718704,9.3749723,1.1718704C13.905422,1.1718704,17.578062,4.8445115,17.578062,9.3749628C17.578062,9.8124599,17.543806,10.241969,17.477848,10.660953C17.862164,10.798336,18.229364,10.979558,18.572182,11.201029L18.572201,11.201029Z" fill="#C5CBD8" fill-opacity="1"/><path d="M8.105459,7.734360199999999L10.8398223,7.734360199999999L10.8398223,6.3671782C10.8398223,5.612103,10.227714500000001,4.9999959,9.4726403,4.9999959C8.7175658,4.9999959,8.1054583,5.612103,8.1054583,6.3671782L8.105459,7.734360199999999ZM13.2421565,10.9420433C12.019311,11.5729775,11.0719314,12.6630516,10.6280079,13.9843349L6.36718506,13.9843349C6.00042877,13.9843349,5.703125,13.6870317,5.703125,13.3202753L5.703125,8.3984203C5.703125,8.0316644,6.00042877,7.734360199999999,6.36718506,7.734360199999999L7.0898383,7.734360199999999L7.0898383,6.3671782C7.0898383,5.0511875,8.156650299999999,3.98437529802322,9.472641,3.984375C10.7886319,3.984375,11.8554435,5.0511875,11.8554435,6.3671782L11.8554435,7.734360199999999L12.5780978,7.734360199999999C12.9448538,7.734360199999999,13.242157899999999,8.0316644,13.242157899999999,8.3984203L13.2421565,10.9420433ZM8.9648297,11.367392500000001L8.9648297,12.988245L9.9804502,12.988245L9.9804502,11.367392500000001C10.4840813,11.165811099999999,10.8398223,10.673254,10.8398223,10.097630500000001C10.8398223,9.342556,10.227714500000001,8.730449199999999,9.4726403,8.730449199999999C8.7175658,8.730449199999999,8.1054583,9.342556,8.1054583,10.097630500000001C8.1054583,10.673253500000001,8.461199,11.165790600000001,8.9648297,11.367392500000001Z" fill="#C5CBD8" fill-opacity="1"/><path d="M14.0239549,12.8750718C14.288305300000001,12.718437999999999,14.5735788,12.6001787,14.871217,12.5238431L14.982349899999999,11.65699124C15.0036004,11.49130821,15.1446545,11.3671875,15.311703699999999,11.3671875L16.055450399999998,11.3671875C16.2225008,11.3671875,16.363554999999998,11.49130821,16.3847852,11.65699124L16.4959178,12.5238431C16.7935624,12.6001763,17.0788431,12.7184368,17.3432002,12.8750718L18.0349755,12.34050393C18.1671619,12.23837495,18.3546424,12.25034833,18.4727669,12.3684729L18.9986825,12.8943884C19.116807,13.012513,19.1287594,13.1999922,19.0266314,13.3321799L18.4920826,14.0239549C18.6487174,14.288305300000001,18.766976800000002,14.5735803,18.8433113,14.871217L19.710163100000003,14.982349899999999C19.8758469,15.0036004,19.9999666,15.1446545,19.9999666,15.311703699999999L19.9999666,16.055450399999998C19.9999666,16.2225008,19.8758469,16.363554999999998,19.710163100000003,16.3847852L18.8433113,16.4959178C18.7669778,16.7935624,18.6487179,17.0788445,18.4920826,17.3432002L19.0266504,18.0349755C19.1287785,18.1671619,19.116806,18.3546424,18.9986815,18.4727669L18.472765,18.9986825C18.3546414,19.116807,18.1671619,19.1287594,18.034974599999998,19.0266314L17.343199300000002,18.4920826C17.0788484,18.6487174,16.7935734,18.766976800000002,16.4959369,18.8433113L16.384804199999998,19.710163100000003C16.363554,19.8758469,16.2224994,19.9999666,16.055450399999998,19.9999666L15.311703699999999,19.9999666C15.1446533,19.9999666,15.0035989,19.8758469,14.9823689,19.710163100000003L14.8712361,18.8433113C14.573591,18.7669778,14.2883101,18.6487179,14.0239537,18.4920826L13.3321786,19.0266504C13.1999922,19.1287785,13.0125118,19.116806,12.8943874,18.9986815L12.3684716,18.472765C12.25034714,18.3546414,12.23839402,18.1671619,12.340523,18.034974599999998L12.8750718,17.343199300000002C12.7184392,17.0788488,12.6001799,16.7935743,12.5238431,16.4959369L11.65699124,16.384804199999998C11.49130821,16.363554,11.3671875,16.2224994,11.3671875,16.055450399999998L11.3671875,15.311703699999999C11.3671875,15.1446533,11.49130821,15.0035989,11.65699124,14.9823689L12.5238431,14.8712361C12.6001763,14.573591,12.7184368,14.2883101,12.8750718,14.0239537L12.34050393,13.3321786C12.23837495,13.1999922,12.25034833,13.0125118,12.3684729,12.8943874L12.8943884,12.3684716C13.012513,12.25034714,13.1999922,12.23839402,13.3321799,12.340523L14.0239549,12.8750718ZM15.6835771,17.2460704C16.5465226,17.2460704,17.2460713,16.5465226,17.2460713,15.683575600000001C17.2460713,14.8206296,16.546523999999998,14.1210821,15.6835771,14.1210821C14.8206308,14.1210821,14.1210833,14.8206296,14.1210833,15.683575600000001C14.1210833,16.5465226,14.8206308,17.2460704,15.6835771,17.2460704Z" fill="#C5CBD8" fill-opacity="1"/></g></svg>