<svg xmlns="http://www.w3.org/2000/svg" xmlns:xlink="http://www.w3.org/1999/xlink" fill="none" version="1.1" width="20" height="20" viewBox="0 0 20 20"><defs><clipPath id="master_svg0_55_4449"><rect x="0" y="0" width="20" height="20" rx="0"/></clipPath></defs><g clip-path="url(#master_svg0_55_4449)"><path d="M15.955232125,11.8693935L14.830245125,11.8693935L14.830245125,12.9954945L15.955232125,12.9954945L15.955232125,11.8693935ZM15.955232125,14.1193835L14.830245125,14.1193835L14.830245125,15.2454855L15.955232125,15.2454855L15.955232125,14.1193835ZM12.580237125,9.6193829L11.455232125,9.6193829L11.455232125,10.7455035L12.580237125,10.7455035L12.580237125,9.6193829ZM12.580237125,1.7421739L8.080272625,1.7421739L8.080272625,2.8671787L12.580237125,2.8671787L12.580237125,1.7421739ZM6.397165825,3.9773529C6.705876825,3.9773529,6.954170225,3.6422398,6.954170225,3.229162L6.954170225,1.3642629400000001C6.954170225,0.95228252,6.705876825,0.6171875,6.397165825,0.6171875C6.090668725,0.6171875,5.841278125,0.95228258,5.841278125,1.3642629400000001L5.841278125,3.2291799C5.841278125,3.6422582,6.090668725,3.9773529,6.397165825,3.9773529ZM14.272215125,3.9773529C14.586398125,3.9773529,14.841205125,3.6422398,14.841205125,3.229162L14.841206125,1.3642629400000001C14.841206125,0.95228252,14.586398125,0.6171875,14.272217125,0.6171875C13.957945125,0.6171875,13.703117125,0.95228258,13.703117125,1.3642629400000001L13.703117125,3.2291799C13.703117125,3.6422582,13.957945125,3.9773529,14.272215125,3.9773529ZM12.580237125,11.8693935L11.455232125,11.8693935L11.455232125,12.9954945L12.580237125,12.9954945L12.580237125,11.8693935ZM15.955232125,9.6193829L14.830245125,9.6193829L14.830245125,10.7455035L15.955232125,10.7455035L15.955232125,9.6193829ZM5.830263625,14.1193835L4.705240925,14.1193835L4.705240925,15.2465465L5.830263625,15.2465465L5.830263625,14.1193835ZM5.830263625,11.8693935L4.705240925,11.8693935L4.705240925,12.9954945L5.830263625,12.9954945L5.830263625,11.8693935ZM18.205225125,1.7421739L15.955232125,1.7421739L15.955232125,2.8671787L18.205242125,2.8671787L18.205242125,6.2422099L2.455268125,6.2422099L2.455268125,2.8671787L4.7052591249999995,2.8671787L4.705259325,1.7421739L2.455268125,1.7421739C1.288563393,1.7421739,1.33026359318,2.8962984,1.33026359318,2.8671787L1.33026359318,17.4921835C1.33026359318,18.5875115,2.413550025,18.6171875,2.455268125,18.6171875L18.205242125,18.6171875C19.231369125,18.6171875,19.330229125,17.5339565,19.330229125,17.4921835L19.330229125,2.8671787C19.330210125,2.7908511,19.300587125,1.7421739,18.205225125,1.7421739ZM18.205225125,17.4921835L2.455268125,17.4921835L2.455268125,7.3672152L18.205242125,7.3672152L18.205225125,17.4921835L18.205225125,17.4921835ZM12.580237125,14.1193835L11.455232125,14.1193835L11.455232125,15.2465465L12.580237125,15.2465465L12.580237125,14.1193835ZM9.205295525,11.8693935L8.080272625,11.8693935L8.080272625,12.9954945L9.205295525,12.9954945L9.205295525,11.8693935ZM9.205295525,9.6193829L8.080272625,9.6193829L8.080272625,10.7455035L9.205295525,10.7455035L9.205295525,9.6193829ZM9.205295525,14.1193835L8.080272625,14.1193835L8.080272625,15.2465465L9.205295525,15.2465465L9.205295525,14.1193835ZM5.830263625,9.6193829L4.705240925,9.6193829L4.705240925,10.7455035L5.830263625,10.7455035L5.830263625,9.6193829Z" fill="#C5CBD8" fill-opacity="1"/></g></svg>