<svg xmlns="http://www.w3.org/2000/svg" xmlns:xlink="http://www.w3.org/1999/xlink" fill="none" version="1.1" width="20" height="20" viewBox="0 0 20 20"><defs><clipPath id="master_svg0_55_2826"><rect x="0" y="0" width="20" height="20" rx="0"/></clipPath></defs><g clip-path="url(#master_svg0_55_2826)"><path d="M18.12783003125,2.8125L14.37470603125,2.8125L14.37470603125,1.25C14.37470603125,0.9048220499999999,14.09488503125,0.625,13.74970703125,0.625L6.24970673125,0.625C5.90452863125,0.625,5.62470673125,0.9048220499999999,5.62470673125,1.25L5.62470673125,2.8125L1.87158203125,2.8125C1.52640408125,2.8125,1.24658203125,3.0923219,1.24658203125,3.4375C1.24658203125,3.7826779,1.52640408125,4.0625,1.87158203125,4.0625L2.53095723125,4.0625L4.05283213125,17.708124C4.15898943125,18.657257,4.9612367312500005,19.375002,5.91595653125,19.375L14.08283303125,19.375C15.03784703125,19.374886,15.84029103125,18.657206,15.94658103125,17.708124L17.46845803125,4.0625L18.12720903125,4.0625C18.47226703125,4.062503599999999,18.75204103125,3.7828708,18.75221403125,3.4378114C18.75238803125,3.0927529,18.47288903125,2.8128405,18.12783003125,2.8125ZM6.87470673125,1.875L13.12470703125,1.875L13.12470703125,2.8125L6.87470673125,2.8125L6.87470673125,1.875ZM14.70470603125,17.569374C14.66943003125,17.885725,14.40189503125,18.125,14.08345803125,18.125L5.91595653125,18.125C5.59758183125,18.125057,5.33004663125,17.885782,5.29470633125,17.569374L3.78845693125,4.0625L16.21095703125,4.0625L14.70470603125,17.569374ZM11.87470703125,16.033749999999998C12.21988503125,16.033749999999998,12.49970703125,15.753927,12.49970703125,15.40875L12.49970703125,6.2325001C12.49970703125,5.8873215,12.21988503125,5.6075001,11.87470703125,5.6075001C11.52953003125,5.6075001,11.24970703125,5.8873215,11.24970703125,6.2325001L11.24970703125,15.40875C11.24970703125,15.753927,11.52953003125,16.033749999999998,11.87470703125,16.033749999999998ZM8.43720673125,16.033749999999998C8.782385331250001,16.033749999999998,9.06220673125,15.753927,9.06220673125,15.40875L9.06220673125,6.2325001C9.06220673125,5.8873215,8.782385331250001,5.6075001,8.43720673125,5.6075001C8.09202813125,5.6075001,7.81220673125,5.8873215,7.81220673125,6.2325001L7.81220673125,15.40875C7.81220673125,15.753927,8.09202813125,16.033749999999998,8.43720673125,16.033749999999998Z" fill="#FFFFFF" fill-opacity="1"/></g></svg>