<svg xmlns="http://www.w3.org/2000/svg" xmlns:xlink="http://www.w3.org/1999/xlink" fill="none" version="1.1" width="14.40000057220459" height="14.40000057220459" viewBox="0 0 14.40000057220459 14.40000057220459"><defs><clipPath id="master_svg0_279_38439"><rect x="0" y="0" width="14.40000057220459" height="14.40000057220459" rx="0"/></clipPath></defs><g clip-path="url(#master_svg0_279_38439)"><path d="M12.193972,7.26887795L6.3439722,1.41887742C6.2036204,1.27776961,6.0126505,1.19867447607,5.8136282,1.199221539498L0.75000286,1.199221539498C0.33598197,1.19968652734,0.00046774425,1.5352007699999999,0.0000028184768,1.94922173L0.0000028184768,7.01284695C-0.00054418948,7.21186925,0.078551166,7.40283965,0.21965906,7.54319005L6.0696592,13.39319275C6.362556,13.68610375,6.837451,13.68610375,7.1303463,13.39319275L12.193972,8.32956695C12.486366,8.03645615,12.486366,7.56198975,12.193972,7.26887795ZM4.8000031,4.79922245C4.8000035,5.46196415,4.2627449,5.99922275,3.6000032,5.99922275C2.9372611,5.99922275,2.400003,5.46196415,2.400003,4.79922245C2.400003,4.13648055,2.9372611,3.59922195,3.600003,3.59922195C4.262445,3.59994555,4.7992797,4.13678025,4.8000031,4.79922245ZM13.993971,8.32956695L8.6121588,13.71137975C8.4949875,13.82855075,8.3050175,13.82855075,8.1878462,13.71137975C8.0706758,13.59420975,8.0706758,13.40423775,8.1878462,13.28706775L13.569658,7.90525435C13.628193,7.84668355,13.628193,7.75176145,13.569658,7.69319055L7.5878468,1.71137786C7.4708309,1.59418055,7.4709044,1.40433568,7.5880108,1.287229016C7.7051182,1.170122355,7.8949628,1.170049079,8.0121593,1.287065297L13.993971,7.26887795C14.286366,7.56198885,14.286366,8.03645615,13.993971,8.32956695Z" fill="#FFFFFF" fill-opacity="1"/></g></svg>