<svg xmlns="http://www.w3.org/2000/svg" xmlns:xlink="http://www.w3.org/1999/xlink" fill="none" version="1.1" width="24" height="24" viewBox="0 0 24 24"><defs><clipPath id="master_svg0_55_2719"><rect x="0" y="0" width="24" height="24" rx="12"/></clipPath><clipPath id="master_svg1_55_2720"><rect x="4.7998046875" y="4.800048828125" width="14.40000057220459" height="14.40000057220459" rx="0"/></clipPath></defs><g clip-path="url(#master_svg0_55_2719)"><rect x="0" y="0" width="24" height="24" rx="12" fill="#05C3DE" fill-opacity="1"/><g clip-path="url(#master_svg1_55_2720)"><path d="M18.787602874999997,18.489100859375C18.684305875,18.652597859375,18.503992875,18.751260859375,18.310601875,18.750098859375L5.924354075,18.750098859375C5.731404575,18.751746859375,5.551186575,18.653986859375,5.447354145,18.491349859375C5.348277804,18.333887859375,5.348277804,18.133559859374998,5.447354145,17.976099859374997C5.550717515,17.812386859375,5.730740995,17.713034859375,5.924354075,17.712850859375L18.299353875,17.712850859375C18.493097875,17.710422859375,18.674345875,17.808278859375,18.778602875,17.971600859375002C18.882501875000003,18.127511859374998,18.886016875,18.329670859375,18.787602874999997,18.489100859375ZM12.469603975,14.475100559375C11.890958275,15.002223059375,11.164525075,15.339130859375,10.388353774999999,15.440350859375L9.038353675,15.550600859375C8.388103975,15.604601859375,8.030354275,15.633850859375,7.962853875,15.633850859375C7.824707275,15.634638859375,7.691931275,15.580393859375,7.593853675,15.483100859375C7.416103875,15.307600859375,7.416103875,15.307600859375,7.521853875,14.040851559375L7.634353875,12.690851659375C7.735572575,11.914679959375,8.072480474999999,11.188245759375,8.599603675000001,10.609601459375L13.549604375,5.670851919375C14.164064375,5.088557169375,15.126641275,5.088557169375,15.741102875,5.670851919375L17.412852875,7.342601759375C18.015658875,7.946109259375,18.015658875,8.923844059375,17.412852875,9.527351359375L12.469603975,14.475100559375ZM16.681603875,8.073851059375L15.009853375,6.402101159375C14.807098375,6.204317569375,14.483608275,6.204317569375,14.280852275,6.402101159375L9.330852475,11.352100859375C8.969312675,11.754510359375,8.734513475,12.254632459375,8.655853075,12.789850759375L8.543352875,14.139849659375L8.507353075000001,14.574100459375L8.941603175000001,14.538100259375L10.291602574999999,14.425600959375C10.826549575,14.346039759375,11.326423175,14.111357659375,11.729352474999999,13.750600859375L16.679351875000002,8.814100759375C16.877134875,8.611345759375,16.877134875,8.287855859375,16.679351875000002,8.085100859375L16.681603875,8.073851059375Z" fill="#FFFFFF" fill-opacity="1"/></g></g></svg>