<?xml version="1.0" standalone="no"?><!DOCTYPE svg PUBLIC "-//W3C//DTD SVG 1.1//EN" "http://www.w3.org/Graphics/SVG/1.1/DTD/svg11.dtd"><svg t="1729059702844" class="icon" viewBox="0 0 1024 1024" version="1.1" xmlns="http://www.w3.org/2000/svg" p-id="8587" xmlns:xlink="http://www.w3.org/1999/xlink" width="48" height="48"><path d="M819.2 478.208h-599.04c-50.688 0-92.16-41.472-92.16-92.16V215.04c0-50.688 41.472-92.16 92.16-92.16h599.04c50.688 0 92.16 41.472 92.16 92.16v171.008c0 50.688-41.472 92.16-92.16 92.16zM220.16 184.32c-16.896 0-30.72 13.824-30.72 30.72v171.008c0 16.896 13.824 30.72 30.72 30.72h599.04c16.896 0 30.72-13.824 30.72-30.72V215.04c0-16.896-13.824-30.72-30.72-30.72h-599.04z" fill="" p-id="8588"></path><path d="M686.08 291.84m-40.96 0a40.96 40.96 0 1 0 81.92 0 40.96 40.96 0 1 0-81.92 0Z" fill="" p-id="8589"></path><path d="M881.152 640H189.44c-16.896 0-30.72-13.824-30.72-30.72s13.824-30.72 30.72-30.72h691.712c16.896 0 30.72 13.824 30.72 30.72s-13.824 30.72-30.72 30.72zM881.152 814.08H189.44c-16.896 0-30.72-13.824-30.72-30.72s13.824-30.72 30.72-30.72h691.712c16.896 0 30.72 13.824 30.72 30.72s-13.824 30.72-30.72 30.72z" p-id="8590"></path></svg>