<svg xmlns="http://www.w3.org/2000/svg" xmlns:xlink="http://www.w3.org/1999/xlink" fill="none" version="1.1" width="16" height="16" viewBox="0 0 16 16"><defs><clipPath id="master_svg0_279_35642"><rect x="-0.5" y="-0.5" width="17" height="17" rx="0"/></clipPath></defs><g clip-path="url(#master_svg0_279_35642)"><rect x="0" y="0" width="16" height="16" rx="0" fill="#FFFFFF" fill-opacity="0.009999999776482582" style="mix-blend-mode:passthrough"/><path d="M10.3952074234375,5.3687391062500005L8.447447323437501,1.44422182625Q8.4032326234375,1.35513424625,8.3282909234375,1.28974827625Q8.2533498234375,1.2243623162500001,8.159091023437501,1.19263234625Q8.0648317234375,1.1609023762500001,7.9656057234375,1.16765907625Q7.8663792234375,1.17441576625,7.7772918234375,1.21863040625Q7.6252441234375,1.29409259625,7.5505638234375,1.44652603625L5.6289968234375,5.36874870625L1.2616212664375,6.00204610625Q1.2128852934375,6.00911330625,1.1664644634374999,6.02555230625Q1.1200436334375,6.04199120625,1.0777218934375,6.06717110625Q1.0354001534375001,6.09235050625,0.9988039134375,6.12530280625Q0.9622076734375,6.15825510625,0.9327432534375,6.19771380625Q0.9032788834375001,6.23717210625,0.8820786434375,6.28162100625Q0.8608784034375,6.32606980625,0.8487570334375,6.37380030625Q0.8366356534375,6.42153070625,0.8340589734375,6.47070930625Q0.8314822934375,6.51988740625,0.8385492534375,6.56862350625Q0.8628340934375001,6.73609830625,0.9838401034375,6.85439870625L4.148222923437499,9.94803050625L3.3923952234375,14.24658190625Q3.3751716234375,14.34453490625,3.3967442234375,14.44162390625Q3.4183171234375,14.53871190625,3.4754021234375,14.62015390625Q3.5324869234375,14.70159690625,3.6163931234375,14.75499490625Q3.7002992234375,14.80839290625,3.7982526234375,14.82561590625Q3.9679835234375,14.85546090625,4.1200576234375,14.77438790625L7.9995980234375,12.70617190625L11.8799960234375,14.77440890625Q11.9677640234375,14.82118790625,12.0667520234375,14.83081890625Q12.1657410234375,14.84044990625,12.2608810234375,14.81146890625Q12.3560200234375,14.78248590625,12.4328270234375,14.71930090625Q12.5096320234375,14.65611790625,12.5564130234375,14.56834990625Q12.6372950234375,14.41659890625,12.6077290234375,14.24720090625L11.8573570234375,9.94803710625L15.0165540234375,6.85409450625Q15.0517370234375,6.81963780625,15.0795220234375,6.77897880625Q15.1073070234375,6.73832030625,15.1266260234375,6.69302180625Q15.1459450234375,6.64772410625,15.1560550234375,6.59952740625Q15.1661660234375,6.55133100625,15.1666790234375,6.50208810625Q15.1671920234375,6.45284460625,15.1580900234375,6.40444750625Q15.1489870234375,6.35605000625,15.1306170234375,6.31035900625Q15.1122470234375,6.26466750625,15.0853180234375,6.22343830625Q15.0583880234375,6.18220900625,15.0239310234375,6.14702610625Q14.9058480234375,6.02645400625,14.7388520234375,6.00210330625L10.3952074234375,5.3687391062500005ZM8.0024781234375,2.79705330625L9.6159343234375,6.04798650625Q9.6706428234375,6.15821930625,9.7702656234375,6.23046730625Q9.8698883234375,6.30271530625,9.9916639234375,6.32047220625L13.5956330234375,6.84598110625L10.9697284234375,9.417647806249999Q10.8814926234375,9.50406070625,10.8436394234375,9.62161870625Q10.8057852234375,9.73917670625,10.8270206234375,9.86083980625L11.4465210234375,13.41019390625L8.2347522234375,11.69833290625Q8.180457123437499,11.66939390625,8.1207671234375,11.65448090625Q8.0610766234375,11.63956830625,7.9995522234375,11.63957210625Q7.9380264234375,11.63957400625,7.8783369234375,11.65449140625Q7.8186478234375,11.66940990625,7.7643566234375,11.69835390625L4.5549559234375,13.40931290625L5.1787863234375,9.86145970625Q5.2002227234375,9.73954490625,5.1623049234375,9.62171080625Q5.1243872234375,9.50387720625,5.0358746234375005,9.41734360625L2.4062623234375,6.84652470625L6.0336599234375,6.32052850625Q6.1562271234375,6.30275580625,6.2563281234375,6.22982840625Q6.3564291234375,6.15690140625,6.4109168234375,6.04568190625L8.0024781234375,2.79705330625Z" fill-rule="evenodd" fill="#767676" fill-opacity="1"/></g></svg>