<svg xmlns="http://www.w3.org/2000/svg" xmlns:xlink="http://www.w3.org/1999/xlink" fill="none" version="1.1" width="24" height="24" viewBox="0 0 24 24"><defs><clipPath id="master_svg0_59_3398"><rect x="0" y="0" width="24" height="24" rx="0"/></clipPath></defs><g clip-path="url(#master_svg0_59_3398)"><path d="M18.751384,22.498678125L5.2496219,22.498678125C4.0078949999999995,22.498678125,3,21.490784125,3,20.249056125L3,5.251575025C3,4.009848225,4.0078949999999995,3.001953125,5.2496219,3.001953125L15.747856,3.001953125C16.163109,3.001953125,16.49773,3.336574435,16.49773,3.751827235C16.49773,4.167080025,16.163109,4.501701325,15.747856,4.501701325L5.2496219,4.501702025C4.8384006,4.501702025,4.4997478,4.840354925,4.4997478,5.251576225L4.4997478,20.249058125C4.4997478,20.664310125,4.8384006,20.998932125,5.2496219,20.998932125L18.747353,20.998932125C19.162605,20.998932125,19.497227,20.664310125,19.497227,20.249058125L19.497227,8.247040225C19.497227,7.831787125,19.831848,7.497166125,20.247101,7.497166125C20.662354,7.497166125,20.996975,7.831787125,20.996975,8.247040225L20.996975,20.245026125C21.001005,21.486751125,19.989079,22.498678125,18.751384,22.498678125Z" fill="#C5CBD8" fill-opacity="1"/><path d="M14.3437171025,10.498054475C14.1502017925,10.498054475,13.9607162525,10.425486575,13.8115482325,10.276317575C13.5172433855,9.982011775,13.5172433855,9.510317375,13.8115482325,9.216011975L21.2659421125,1.765650865C21.5602469125,1.471345484,22.0319424125,1.471345484,22.3262472125,1.765650865C22.6205521125,2.059956255,22.6205521125,2.531651135,22.3262472125,2.825956675L14.8718548125,10.280349775C14.7267179125,10.425486575,14.5332012225,10.498054475,14.3437171025,10.498054475Z" fill="#C5CBD8" fill-opacity="1"/><path d="M11.247164775,10.497795074999999L6.747920935,10.497795074999999C6.332668515,10.497795074999999,5.998046875,10.163174175,5.998046875,9.747920985C5.998046875,9.332667825,6.332667795,8.998046875,6.747920935,8.998046875L11.247164775,8.998046875C11.662417875,8.998046875,11.997038875000001,9.332667825,11.997038875000001,9.747920985C11.997038875000001,10.163174175,11.662416975,10.497795074999999,11.247164775,10.497795074999999Z" fill="#C5CBD8" fill-opacity="1"/><path d="M15.750440575,14.997795074999999L6.747920985,14.997795074999999C6.332668545,14.997795074999999,5.998046875,14.663174175,5.998046875,14.247920985C5.998046875,13.832667825,6.332667825,13.498046875,6.747920985,13.498046875L15.746408475,13.498046875C16.161660875000003,13.498046875,16.496282875,13.832667825,16.496282875,14.247920985C16.496282875,14.663174175,16.161660875000003,14.997795074999999,15.750440575,14.997795074999999Z" fill="#C5CBD8" fill-opacity="1"/></g></svg>