<svg xmlns="http://www.w3.org/2000/svg" xmlns:xlink="http://www.w3.org/1999/xlink" fill="none" version="1.1" width="24" height="24" viewBox="0 0 24 24"><path d="M2,8.2720728C2,8.006875,2.10535,7.7524991,2.29290009,7.5649729L7.5649729,2.29290009C7.7524991,2.10535,8.006875,2,8.2720728,2L15.727899,2C15.993123,2,16.247498999999998,2.10535,16.43502,2.29290009L21.707098,7.5649729C21.89465,7.7524991,22,8.006875,22,8.2720728L22,15.727921C22,15.993123,21.89465,16.247498999999998,21.707098,16.43502L16.43502,21.707098C16.247498999999998,21.89465,15.993123,22,15.727899,22L8.2720728,22C8.006875,22,7.7524991,21.89465,7.5649729,21.707098L2.29290009,16.43502C2.10535,16.247498999999998,2,15.993123,2,15.727921L2,8.2720728ZM15.458374,3.4999998999999997L12.007224,11.470048C11.920249,11.670948,11.6353979,11.670948,11.548398,11.470048L8.212674100000001,3.7664999L3.4999998999999997,8.4791727L3.4999998999999997,15.520823L8.4791727,20.499996L15.520823,20.499996L20.499996,15.520823L20.499996,8.4791727L15.520823,3.4999998999999997L15.458374,3.4999998999999997Z" fill-rule="evenodd" fill="#C5CBD8" fill-opacity="1"/><path d="M2.4866536259651184,8.45440005C2.4866536259651184,8.20213895,2.5868646259651182,7.96017165,2.7652659459651185,7.78179265L7.780165025965118,2.76689357C7.958544025965119,2.58849225,8.200511325965119,2.48828125,8.452772425965119,2.48828125L15.544900625965118,2.48828125C15.797187625965119,2.48828125,16.03915362596512,2.58849225,16.217528625965116,2.76689357L21.23243062596512,7.78179265C21.41083462596512,7.96017165,21.51104462596512,8.20213895,21.51104462596512,8.45440005L21.51104462596512,15.54655025C21.51104462596512,15.79881525,21.41083462596512,16.040781250000002,21.23243062596512,16.219156249999997L16.217528625965116,21.23405825C16.03915362596512,21.41246225,15.797187625965119,21.51267225,15.544900625965118,21.51267225L8.452772425965119,21.51267225C8.200511325965119,21.51267225,7.958544025965119,21.41246225,7.780165025965118,21.23405825L2.7652659459651185,16.219156249999997C2.5868646259651182,16.040781250000002,2.4866536259651184,15.79881525,2.4866536259651184,15.54655025L2.4866536259651184,8.45440005ZM15.288523625965118,3.91511075L12.005720425965118,11.49637695C11.922988225965119,11.68747805,11.652034125965118,11.68747805,11.569279025965118,11.49637695L8.396271525965119,4.16861045L3.9134831259651186,8.65139815L3.9134831259651186,15.34955225L8.649770525965119,20.08584425L15.347924625965119,20.08584425L20.08421662596512,15.34955225L20.08421662596512,8.65139815L15.347924625965119,3.91511075L15.288523625965118,3.91511075Z" fill-rule="evenodd" fill="#C5CBD8" fill-opacity="1"/></svg>