<svg xmlns="http://www.w3.org/2000/svg" xmlns:xlink="http://www.w3.org/1999/xlink" fill="none" version="1.1" width="20" height="20" viewBox="0 0 20 20"><defs><clipPath id="master_svg0_59_3278"><rect x="0" y="0" width="20" height="20" rx="0"/></clipPath></defs><g clip-path="url(#master_svg0_59_3278)"><path d="M2.5,4.3258281L2.5,8.7741613C2.49999985098839,9.273519499999999,2.90480912,9.678328,3.4041667,9.678328L7.8525,9.678328C8.351992599999999,9.6783285,8.757040499999999,9.2736545,8.7574997,8.7741613L8.7574997,4.3258281C8.7574997,3.8261449,8.3521824,3.42120081,7.8525,3.42166156L3.4041667,3.42166156C2.90480912,3.42166156,2.49999985098839,3.8264706,2.5,4.3258281ZM7.1808329,8.5049949L4.0766665,8.5049949C3.8539118,8.5049949,3.6733335,8.3244166,3.6733332,8.101661199999999L3.6733332,4.9999948C3.6733335,4.7772398,3.8539118,4.5966616,4.0766665,4.5966616L7.1808329,4.5966616C7.4032621,4.597121,7.5833325,4.777565,7.583333,4.9999948L7.583333,8.101661199999999C7.583333,8.3240914,7.4032621,8.5045347,7.1808329,8.5049949ZM2.5,12.1474953L2.5,16.595827C2.49999985098839,17.095185,2.90480912,17.499995,3.4041667,17.499995L7.8525,17.499995C8.3519921,17.499995,8.757039500000001,17.095321,8.7574997,16.595827L8.7574997,12.1474953C8.7574997,11.6476784,8.3523178,11.2424955,7.8525,11.2424955L3.4041667,11.2424955C2.90467441,11.2429552,2.5,11.6480036,2.5,12.1474953ZM7.1808329,16.326662L4.0766665,16.326662C3.8539118,16.326662,3.6733335,16.146084000000002,3.6733332,15.923328L3.6733332,12.819161C3.6733338,12.596407,3.8539120000000002,12.4158287,4.0766665,12.4158287L7.1808329,12.4158287C7.4035883,12.4158297,7.5841665,12.596407,7.5841665,12.819161L7.5841665,15.923328C7.5841665,16.146083,7.4035873,16.326662,7.1808329,16.326662ZM10.3216672,12.1474953L10.3216672,16.595827C10.3216662,17.095185,10.7264757,17.499995,11.2258339,17.499995L15.674167,17.499995C16.173523,17.499995,16.578332,17.095187,16.578333999999998,16.595827L16.578333999999998,12.1474953C16.578792,11.6478128,16.173849,11.2424955,15.674167,11.2424955L11.2258339,11.2424955C10.7263422,11.2429552,10.3216672,11.6480036,10.3216672,12.1474953ZM15,16.326662L11.8983335,16.326662C11.6755781,16.326662,11.4949999,16.146084000000002,11.4949999,15.923328L11.4949999,12.819161C11.4949999,12.596407,11.6755781,12.4158287,11.8983335,12.4158287L15,12.4158287C15.222755,12.4158297,15.403334,12.596407,15.403334,12.819161L15.403334,15.923328C15.403334,16.146083,15.222754,16.326662,15,16.326662ZM9.666666,7.1891613L12.810833,10.3333282C13.163701,10.6866531,13.736299,10.6866531,14.089167,10.3333282L17.234999000000002,7.1874948C17.588326000000002,6.8346267,17.588326000000002,6.2620289,17.234999000000002,5.9091611L14.089167,2.7649945000000002C13.736299,2.411668599,13.163701,2.411668599,12.810833,2.7649945000000002L9.666666,5.9108284C9.313341600000001,6.2636962,9.313341600000001,6.8362932,9.666666,7.1891613ZM15.929999,6.8333282L13.734999,9.0283284C13.577724,9.1860356,13.322272,9.1860356,13.164998,9.0283284L10.9699993,6.8333282C10.812294,6.6760535,10.812294,6.420603,10.9699993,6.2633282999999995L13.166667,4.0699949C13.323941,3.912288,13.579392,3.912288,13.736668,4.0699949L15.931668,6.2649949C16.087802,6.422537800000001,16.087058,6.676703,15.929999,6.8333282Z" fill="currentColor" fill-opacity="1"/></g></svg>