<svg xmlns="http://www.w3.org/2000/svg" xmlns:xlink="http://www.w3.org/1999/xlink" fill="none" version="1.1" width="12" height="12" viewBox="0 0 12 12"><defs><clipPath id="master_svg0_279_44033"><rect x="0" y="0" width="12" height="12" rx="0"/></clipPath></defs><g clip-path="url(#master_svg0_279_44033)"><path d="M5.55666540078125,2.34862389375L3.98216800078125,2.34862389375Q3.81888700078125,2.34862389375,3.73141460078125,2.2728147937500003Q3.64394260078125,2.19700559375,3.60895400078125,2.0803761937500003Q3.57396530078125,1.96374669375,3.57396510078125,1.81796002375Q3.57396480078125,1.67217326375,3.59729100078125,1.54388082375Q3.60895400078125,1.4155885537500001,3.64394280078125,1.26397025375Q3.67893170078125,1.11235201375,3.74307800078125,1.00738555375Q3.80722430078125,0.90241912775,3.91219070078125,0.86743026675Q4.01715680078125,0.83244140975,4.16877530078125,0.92574498075Q4.3437192007812495,1.03071144375,4.565315200781249,1.15317231375Q4.78691120078125,1.27563321375,4.99684360078125,1.39809411375Q5.2067773007812495,1.52055490375,5.38755230078125,1.61968994375Q5.56832790078125,1.71882492375,5.66163160078125,1.7771396637499999Q5.77826120078125,1.85878019375,5.83657550078125,1.95791519375Q5.89489030078125,2.0570501937500003,5.88322730078125,2.1445222937499997Q5.87156490078125,2.23199439375,5.78992370078125,2.29030909375Q5.70828290078125,2.34862379375,5.55666540078125,2.34862389375ZM6.46637440078125,2.3369608937499997L8.02920910078125,2.3369608937499997Q8.19249060078125,2.3369608937499997,8.279962500781249,2.26115179375Q8.36743350078125,2.18534269375,8.40242290078125,2.06871319375Q8.43741270078125,1.95208369375,8.43741180078125,1.80629706375Q8.43741180078125,1.66051030375,8.42574930078125,1.5322178637500001Q8.40242290078125,1.40392559375,8.37326620078125,1.25813877375Q8.34410810078125,1.11235201375,8.279962500781249,1.00738555375Q8.21581550078125,0.90241908275,8.11084940078125,0.86743024475Q8.00588230078125,0.83244140975,7.85426520078125,0.91408201675Q7.67932030078125,1.01904849375,7.45772460078125,1.14150935375Q7.23612980078125,1.26397019375,7.02036480078125,1.38643115375Q6.80459980078125,1.50889200375,6.62382510078125,1.6080269837499999Q6.44304940078125,1.7071619037499999,6.36140870078125,1.76547670375Q6.23311610078125,1.84711718375,6.17480130078125,1.94625219375Q6.11648650078125,2.04538729375,6.12814950078125,2.13285939375Q6.13981250078125,2.22033139375,6.22145320078125,2.27864609375Q6.30309390078125,2.3369607937500003,6.46637440078125,2.3369608937499997ZM5.39338400078125,3.10671519375L2.01113087078125,3.10671519375Q1.63791668078125,3.10671519375,1.52711874078125,3.22917609375Q1.41632080078125,3.35163689375,1.41632080078125,3.61988449375L1.41632080078125,4.64622279375Q1.41632080078125,4.93779659375,1.53878170078125,5.07775159375Q1.66124260078125,5.21770669375,2.02279383078125,5.21770669375L5.39338400078125,5.21770669375L5.39338400078125,3.10671519375ZM6.66464420078125,3.10671519375L10.00024510078125,3.10671519375Q10.37345980078125,3.10671519375,10.50758360078125,3.25250199375Q10.64170740078125,3.39828869375,10.64170740078125,3.66653629375L10.64170740078125,4.66954919375Q10.64170740078125,4.94945999375,10.51924610078125,5.08358379375Q10.39678480078125,5.21770719375,10.03523450078125,5.21770719375L6.66464420078125,5.21770719375L6.66464420078125,3.10671519375ZM5.39338400078125,5.83584309375L1.8128609107812501,5.83584309375L1.8128609107812501,7.74856569375L1.8128609107812501,8.50665669375L1.8128609107812501,9.21809579375L1.8128609107812501,9.82456879375L1.8128609107812501,10.24443439375Q1.8128609107812501,10.83924579375,2.15108621078125,11.16580759375Q2.48931150078125,11.49236959375,3.20075110078125,11.49236959375L5.39338400078125,11.49236959375L5.39338400078125,5.83584309375ZM6.66464420078125,5.83584309375L10.23350520078125,5.83584309375L10.23350520078125,10.20944599375Q10.22184180078125,10.80425639375,9.89527990078125,11.14831259375Q9.56871800078125,11.49236959375,8.85727740078125,11.49236959375L6.66464420078125,11.49236959375L6.66464420078125,5.83584309375Z" fill="currentColor" fill-opacity="1"/></g></svg>