<svg xmlns="http://www.w3.org/2000/svg" xmlns:xlink="http://www.w3.org/1999/xlink" fill="none" version="1.1" width="20" height="20" viewBox="0 0 20 20"><defs><clipPath id="master_svg0_55_4429"><rect x="19" y="-1" width="22" height="22" rx="0"/></clipPath></defs><g transform="matrix(-1,0,0,1,40,0)" clip-path="url(#master_svg0_55_4429)"><path d="M29.8101792,1.0000006Q30.5368214,1.00073725,31.0724936,1.49652272Q31.604359600000002,1.988783684,31.66959,2.71338749L31.670061099999998,2.71873534L31.670585600000003,2.72492898L31.717772500000002,3.2980994Q31.888079599999998,2.91517812,32.2240515,2.63234293Q32.743121099999996,2.19536801,33.419593,2.19289973L33.423007,2.1928921Q33.588617,2.19291341,33.749753999999996,2.22209015L33.756499,2.223315L33.761922,2.22430323Q34.518797,2.36238247,34.959066,2.9977035499999998Q35.394577999999996,3.6261593000000003,35.26953,4.3821402L35.268271,4.3896213L35.266783000000004,4.398210000000001L35.136748,5.1349029999999996Q35.419855,4.9580891000000005,35.771118,4.8893401999999995Q36.496542,4.7473605,37.123109,5.142303L37.126622,5.1445179Q37.753011,5.5393417,37.939575,6.2595878Q38.124183,6.9722805,37.778288,7.6199055Q37.772714,7.6303415,37.762737,7.6487808Q37.748079000000004,7.6758709,37.747527,7.6770487L35.372066000000004,12.736542Q35.370973,12.738868,35.369412,12.748541Q35.027906,14.865582,34.104751,16.795444Q34.100744,16.803819,34.100822,16.808346999999998L34.103535,16.965483Q34.118006,17.803914,33.530197,18.401957Q32.9423876,19,32.1038332,19L29.0517435,19Q28.2604055,19,27.6833024,18.458551Q27.1061997,17.917101000000002,27.0558033,17.12737L27.052483600000002,17.075353Q27.0508657,17.049998000000002,26.9929936,17.002929Q26.0176263,16.209637999999998,25.4155164,15.098829Q25.4043632,15.078252,25.3975611,15.07246L22.66098365,12.742233L22.6602599,12.741617Q22.07152742,12.241219,22.00662309,11.4671631Q21.9418528,10.6947079,22.43752825,10.1018019L22.44101191,10.0976515Q22.937783867,9.510539099999999,23.69730723,9.439816Q24.4574794,9.3690329,25.0502691,9.8530035Q25.0526013,9.8549075,25.0568404,9.8583765Q25.063797,9.8640699,25.0641751,9.864369400000001L26.2116356,10.7716722Q26.1446235,10.3313961,25.9601495,9.6991782Q25.9368668,9.6193852,25.9117208,9.5365596L25.9115865,9.5361199L24.5211684,4.9738071Q24.5171508,4.9606245,24.5138768,4.9492495000000005Q24.2558373,4.0526976999999995,24.8079556,3.3027911000000003Q25.3673835,2.54295653,26.3064921,2.54133707L26.3109238,2.54133749Q27.5132465,2.5450950900000002,27.9784136,3.5547882Q27.9815388,3.5615717,27.9846582,3.5684621L27.9404063,3.0310642000000003L27.9400849,3.0271137Q27.8809385,2.27030867,28.356905,1.68551189Q28.8368878,1.09578025,29.5883632,1.0098072299999998Q29.6740732,1.00000161,29.7739582,1.00000161L29.8049974,1.00000161L29.8101792,1.0000006ZM31.8338909,8.0708556L32.022609700000004,7.0008883L32.565730099999996,3.9215887C32.5662298,3.9187528,32.5666895,3.9161878999999997,32.567226399999996,3.9133589C32.6463966,3.4964397,33.004965,3.1944193,33.423242,3.1928931L33.424756,3.1928905C33.47399,3.1928974,33.523122,3.1973146999999997,33.571583000000004,3.2060896000000003C33.575473,3.2067940999999998,33.578688,3.2073799000000003,33.582577,3.2080895C34.04901,3.2931824,34.361512,3.7439142,34.282937000000004,4.218946900000001C34.282548,4.2212932,34.282182,4.223395099999999,34.281769,4.2257371L33.691092,7.5721216L33.514708,8.5714045L33.481267,8.7608562C33.46937,8.8282566,33.460338,8.896165400000001,33.469056,8.9640503C33.484065,9.1561561,33.536252,9.5520015,33.707503,9.5520015C33.77743,9.5520015,33.864676,9.4867601,33.980381,9.3163323C34.005499,9.2793341,34.025739,9.240943399999999,34.044385,9.2002974L34.269258,8.7101021L34.653549999999996,7.8723879L35.363198,6.3254385C35.381153,6.2862988,35.401185,6.2476058,35.4266,6.2128444C35.695452,5.8451226,36.200908999999996,5.7430942,36.589873,5.988269799999999L36.593272,5.9904125C36.982563999999996,6.2357898,37.111674,6.7453842,36.896214,7.1487923C36.877862,7.1831527,36.858889,7.2167883,36.842332999999996,7.2520499L34.466869,12.311547C34.425768,12.39909,34.397576,12.493811,34.382174,12.589287C34.170897,13.899021,33.77353,15.17049,33.202649,16.36392C33.133139,16.509230000000002,33.098192,16.66455,33.100972,16.825605L33.103684,16.982742000000002C33.113332,17.541696,32.6628695,18,32.1038332,18L29.0517435,18C28.524185199999998,18,28.0873709,17.590173,28.0537734,17.063685L28.0504537,17.011667C28.0306396,16.701176,27.865342599999998,16.423443,27.6239734,16.227131C27.0822763,15.786554,26.6302872,15.241457,26.2946684,14.622287C26.2299976,14.502978,26.1492028,14.399072,26.0458784,14.31109L23.30929977,11.9808626L23.3085095,11.9801893C22.941883743,11.6685724,22.89536975,11.1132507,23.20473856,10.7431974C23.20539881,10.7424068,23.20571321,10.742033,23.20637812,10.7412472C23.51450127,10.3770943,24.0508143,10.3279715,24.4178447,10.6276264C24.4266609,10.6348228,24.4350438,10.6417513,24.4439714,10.6488104L26.0761187,11.9393568C26.0845292,11.9460068,26.0924325,11.9525118,26.100729,11.9593039C26.256681,12.086967,26.4460895,12.165106,26.6452582,12.184154C26.6664679,12.186183,26.6870937,12.186979,26.7083676,12.185801C27.1948576,12.158854,27.5518823,11.4964304,26.8684514,9.245585L26.8682237,9.2448373L25.477731900000002,4.6822832000000005C25.476726499999998,4.6789842,25.4758174,4.6759694,25.4748635,4.6726551C25.3123915,4.1081502,25.7285531,3.5423354,26.3082166,3.5413359L26.3102448,3.5413373C26.690681,3.5425271,27.0267382,3.7933052,27.141658800000002,4.1616406C27.142108399999998,4.1630816,27.1424747,4.1642787000000006,27.1429143,4.1657226000000005L28.3639045,8.1740289L28.4961958,8.6083193C28.511508,8.6585865,28.5314627,8.7063208,28.5506997,8.7550755C28.5524335,8.759469,28.5541611,8.7638712,28.5558791,8.768283799999999C28.5606394,8.7805114,28.5651302,8.79285,28.569347399999998,8.8052893C28.5712276,8.8108358,28.572846900000002,8.8157096,28.5748081,8.8212285C28.6793275,9.1153274,28.952736899999998,9.5457783,29.1556673,9.5457783C29.3092117,9.5457783,29.423639299999998,9.303034799999999,29.3991885,8.579094900000001C29.399075,8.575738399999999,29.3989587,8.572372,29.3988395,8.568995000000001C29.3983259,8.5544705,29.3974504,8.5403118,29.396257900000002,8.5258279L29.3517361,7.9851532L28.9370327,2.9489967200000002L28.9368229,2.94640154C28.8997493,2.47199711,29.2405992,2.056116432,29.7020273,2.0033264083C29.7261319,2.00056877313,29.7496967,2,29.7739582,2L29.809185499999998,2L29.8101792,2.0000024954177C30.2586422,2.0013848058,30.6327548,2.3491334,30.6736183,2.80304885L30.6740322,2.8078927399999998L31.015391299999997,6.9543014L31.1037426,8.0274811L31.137161300000002,8.4334102C31.1415167,8.486313299999999,31.149765000000002,8.5395422,31.1641684,8.5906329C31.247159,8.885004,31.342598000000002,8.9804454,31.4298353,8.9804454C31.5310087,8.9804454,31.6232958,8.8533621,31.6782837,8.75805C31.7232904,8.696074,31.7375593,8.6170235,31.7508631,8.541594L31.8338909,8.0708556Z" fill-rule="evenodd" fill="#C5CBD8" fill-opacity="1"/></g></svg>