<svg xmlns="http://www.w3.org/2000/svg" xmlns:xlink="http://www.w3.org/1999/xlink" fill="none" version="1.1" width="20" height="20" viewBox="0 0 20 20"><defs><clipPath id="master_svg0_78_4818"><rect x="0" y="0" width="20" height="20" rx="0"/></clipPath></defs><g clip-path="url(#master_svg0_78_4818)"><path d="M17.73970375,9.24796484375Q14.82564075,9.86905764375,14.01900075,10.08585534375C13.22017175,10.30265134375,12.22993875,8.73233984375,11.96431275,8.67569924375C11.79439075,9.16788674375,11.24556375,10.61319934375,10.91743855,11.59366634375C11.42525075,11.57804234375,14.06001675,12.37686934375,14.15571975,12.84171434375Q14.26509375,13.31241634375,15.49556275,18.41007234375Q16.01704675,19.50577534375,14.53657875,19.90616634375Q13.05415675,20.30655634375,12.98775075,19.08780634375Q11.95259475,15.17765034375,11.86079775,14.94132334375C11.77485975,14.70499634375,9.84517195,14.30850934375,9.40376665,14.42765134375C8.95845415,14.54874634375,8.00532865,17.88663634375,7.06392285,18.11319934375Q5.85493855,18.40616834375,2.31392285,16.25577734375Q0.91548547,15.91007434375,1.200641692,14.59757434375Q1.49165735,13.29483934375,2.8490793500000002,13.65030834375Q5.35689165,15.02921434375,5.64595465,14.86710434375C5.93892335,14.70304234375,6.10493895,13.75187134375,6.53267335,12.82999634375Q6.55025105,12.48234034375,7.53462605,9.71866794375Q8.07954785,7.87882424375,7.86275105,7.76358984375C7.56392285,7.60538674375,7.25142285,7.94327784375,7.08735995,8.22452734375C6.92329785,8.50382424375,6.27290675,9.65421584375,5.18501665,11.15226034375C4.218219550000001,12.48624534375,2.4936101500000003,11.24796534375,3.21040675,10.00187014375C3.80610995,8.96476074375,5.39204695,5.99991704375,6.53267285,5.44132324375C7.68110995,4.87882324375,9.66157915,4.56632324375,11.34712575,4.96085454375C13.04048575,5.34757324375,14.22798575,7.26554204375,14.56001675,7.51944824375Q14.88423475,7.76358894375,17.16548575,7.02530764375Q18.46431375,6.57413574375,18.78657875,7.75968314375Q19.11079775,8.95304294375,17.73970375,9.24796484375ZM12.40376575,4.36124564375C11.20845275,4.68546484375,9.99165635,3.99210524375,9.67134385,2.80851154375C9.35298535,1.63077704375,10.05025005,0.41202706375,11.24556375,0.08780818475C12.43892275,-0.23445744625,13.65962575,0.46476128375,13.97798575,1.64249574375C14.30025075,2.82608934375,13.59517275,4.03702684375,12.40376575,4.36124564375Z" fill="currentColor" fill-opacity="1"/></g></svg>