<svg xmlns="http://www.w3.org/2000/svg" xmlns:xlink="http://www.w3.org/1999/xlink" fill="none" version="1.1" width="24" height="24" viewBox="0 0 24 24"><defs><clipPath id="master_svg0_59_3356"><rect x="0" y="0" width="24" height="24" rx="0"/></clipPath></defs><g clip-path="url(#master_svg0_59_3356)"><path d="M5.602734525,6.756655675C5.682421725,6.639468175,5.7644529250000005,6.524624775,5.846484225,6.412124175C5.9285154250000005,6.297280775,6.0128908249999995,6.184780075,6.094922025,6.069936775C6.179296925,5.957437075,6.261328225,5.842593175,6.348046825,5.732436675L6.601171525,5.397280675L6.858984025,5.064467875L7.116796525,4.7316558749999995L7.639452425,4.073061675C7.815233725,3.855092975,7.991014925,3.637124075,8.169140325,3.421498975L8.436327025,3.098061575L8.703515025,2.774623975C8.881639525,2.5589989749999997,9.062108525,2.345717575,9.242577525,2.132436335C9.423046625,1.919155125,9.605858825,1.708217595,9.786327825,1.494936275C10.037109325,1.1996237,10.480077725,1.164467447,10.775390625,1.415248735L10.780078925,1.417592455L10.866797425,1.492592465L11.342578925,1.9027487650000001L11.813671125,2.317593575C11.970703125,2.455874775,12.127735125,2.594156175,12.282421125,2.732437375C12.439453125,2.870718675,12.594140125,3.0113435749999997,12.751171125,3.1496250750000003C13.062890125,3.428531175,13.372265125,3.709781175,13.679296125,3.991031675L14.141015125,4.415250275C14.295702125,4.555875275,14.448046125,4.698844175,14.600389125,4.841813075L15.057421125,5.270719075L15.512109125,5.701969175L15.964453125,6.135562875C16.114452125,6.278531575,16.266796125,6.423843875,16.416796124999998,6.569156675L16.866796125,7.005094075L17.314451124999998,7.443376075L17.759764125,7.884000775L18.205076125,8.324625475000001C18.643358125,8.758219275,18.645702125,9.466032075,18.209764125,9.904313075L18.205076125,9.909000375C18.057421124999998,10.058999975,17.907420125,10.204313275,17.759764125,10.354312875L17.312109125,10.797282175L16.862108125,11.237906475L16.409765125,11.676188875L15.957421125,12.114469875L15.502733125,12.550406875L15.045702125,12.983999875C14.893358125,13.126968875,14.741014125,13.272282875,14.586327125,13.415251875L14.124609125,13.851188875L13.660546125,14.277751875C13.505859125,14.420719875,13.351171125,14.561344875,13.194139125,14.704313875L12.727733125,15.126188875L12.258983125,15.548063875L11.787889525,15.967595875L11.312109025,16.382440875L10.833982425,16.797283874999998L10.747263925,16.872284875C10.449607825,17.130097875,9.997263925,17.099628875,9.737108225,16.799628875L9.734763625,16.797285875L9.179294625,16.148066874999998L8.902732324999999,15.822284875L8.628513325,15.494159875C8.445701125,15.276191875,8.265232125,15.055878875,8.082419824999999,14.835566875C7.901951325,14.615253875,7.721482725,14.392596875,7.543357825,14.169940875C7.454295625,14.059784875,7.365232425,13.947284875,7.276170225,13.834785875L7.011328225,13.499625875C6.922266025,13.387126875,6.835546925,13.274626875,6.748827925,13.159781875L6.488671825,12.819937875L6.230859325,12.477750875C6.144140225,12.362906875,6.0597658249999995,12.248063875,5.973046825,12.133219875C5.888671425,12.018375875,5.801952825,11.901187875,5.719921625,11.784000875C5.635546424999999,11.666812875,5.553515225,11.549625875,5.471483924999999,11.432437875C5.591015325,11.514468875,5.708202825,11.596500875,5.823046424999999,11.680875875C5.940233924999999,11.765250875,6.055078025,11.849626875,6.172265525,11.934000875C6.287108925,12.018375875,6.404296425,12.105093875,6.516797025,12.191813875L6.858984425,12.449625875L7.198828225,12.712125875C7.311327925,12.798844875,7.426172225,12.885563875,7.538671925,12.974626875L7.873827925,13.239469875C7.986327625,13.328532875,8.098827825,13.415251875,8.208984325,13.506658875C8.431640625,13.684782875,8.651952224999999,13.865252875,8.874608525,14.045720875C9.094921625,14.226190875,9.315233225,14.406658875,9.533203125,14.591814875L9.861328125,14.866033875L10.187109025,15.142595875L10.836327525,15.698064875L9.737109625,15.698064875L10.151953725,15.219938875L10.569141425,14.744158875L10.988671325,14.273065875L11.410546325,13.804315875L11.834766425,13.337908875C11.975391425,13.183220875,12.118358125,13.026188875,12.261328125,12.871500875L12.687890125,12.407437875L13.116796125,11.945719875C13.259764125,11.791031875,13.405077125,11.638687875,13.548046125,11.486343875L13.981640125,11.029313075L14.417578125,10.574625975L14.855859125,10.122282075L15.294140125,9.669938075L15.734765125,9.219938275L16.177734125,8.772281675C16.325390125,8.624625675,16.473046125,8.474625074999999,16.623047125,8.326969175L16.623047125,9.911344575L16.182423125,9.466032075L15.741797125,9.020719575000001L15.303516125,8.573062875L14.867578125,8.123062574999999C14.722266125,7.973062975,14.576954125,7.823062875,14.433985125,7.670719175L14.000390125,7.218374775L13.569139125,6.763687575L13.140234125,6.306656375C12.997265125,6.154312575,12.854296125,6.001968875,12.713671125,5.847280975L12.289452125,5.385562875C12.008202525,5.076187375,11.726952525,4.769155975,11.448047625,4.457437475C11.307422625,4.302749875,11.169139825,4.145718775000001,11.030859925,3.988687775C10.892578125,3.831656475,10.751953125,3.676968775,10.616016425,3.519937775L10.196483625,3.048843775L9.786327825,2.573062275L10.866797425,2.573062275C10.653514825,2.7535310749999997,10.442577325,2.936343675,10.229297625,3.1168123750000003C10.016015025,3.297281075,9.802734325,3.477749575,9.587109125,3.655874975L9.263671925,3.923062275L8.940234625,4.1902496750000005C8.724609325,4.368374575,8.506640925,4.5441558749999995,8.288672425,4.719937075L7.630078825,5.242593775L7.297266025,5.500406275L6.964453225,5.758218775L6.629297225,6.011343475L6.291797625,6.264468175C6.179297925,6.348843575,6.0644536250000005,6.430874775,5.949609725,6.512906075C5.834766425,6.594937275,5.719922325000001,6.676968575,5.602734525,6.756655675ZM13.503515125,9.564469375L9.294140325,7.133999775L9.294140325,8.629312075L4.501172025,8.629312075L4.501172025,10.504312475L9.294140325,10.504312475L9.294140325,11.994937875L13.503515125,9.564469375ZM3.050390835,23.730094875L2.080078125,23.730094875C2.110546947,23.019939875,2.124609411,22.241813875,2.124609411,21.391032875C2.124609411,20.556659875,2.110546947,19.844157875,2.080078125,19.258220875L3.052734375,19.258220875C3.022265555,19.834783875,3.008203265,20.544940875,3.008203265,21.391032875C3.005859375,22.255878875,3.019922015,23.034001875,3.050390835,23.730094875ZM8.075390825,23.730094875L7.226953025,23.730094875C7.226953025,23.636344875,6.912890425,23.141814875,6.282422025,22.244157875C5.6238279250000005,21.299626875,5.2488279250000005,20.652749875,5.157422025,20.303533875L5.103515625,20.303533875C5.159765525,20.805095875,5.190234225,21.257438875,5.190234225,21.662908875C5.190234225,22.227750875,5.206640525,22.916814875,5.2394533249999995,23.730094875L4.3957033249999995,23.730094875C4.430859525,23.019939875,4.447265625,22.241813875,4.447265625,21.391032875C4.447265625,20.556659875,4.430859525,19.844157875,4.3957033249999995,19.258220875L5.415234525,19.258220875C5.415234525,19.380096875,5.698828225,19.862907875,6.263672325,20.711345875C6.866016425,21.611346875,7.210546925,22.220721875,7.299610125,22.541814875L7.351172925,22.541814875C7.297266925,22.030875875,7.269141625,21.573844875,7.269141625,21.168376875C7.269141625,20.547282875,7.252735125,19.912128875,7.219922525,19.260564875L8.077735425,19.260564875C8.044922825,19.827750875,8.028516325,20.537908875,8.028516325,21.393376875C8.026172625000001,22.253532875,8.042579125,23.031657875,8.075390825,23.730094875ZM12.676171125,20.430095875C12.676171125,20.976188875,12.472265125,21.381658875,12.066796325,21.641814875C11.661327325,21.901969875,11.162109325,22.033221875,10.571483625,22.033221875C10.463672625,22.033221875,10.386328725,22.030877875,10.341796925,22.026189875C10.341796925,22.457440875,10.353515625,23.024627875,10.379297225,23.730096875L9.413672425,23.730096875C9.444140925,23.069158875,9.458202825,22.288690875,9.458202825,21.391034875C9.458202825,20.566033875,9.444140925,19.855878875,9.413672425,19.258222875L10.011328725,19.258222875C10.095703125,19.258222875,10.257422425,19.255878875,10.498828925,19.248845875C10.740234325,19.241813875,10.946483625,19.239471875,11.124609925,19.239471875C11.560546925,19.239471875,11.926172225,19.337909875,12.226171125,19.534782875C12.526171125,19.731658875,12.676171125,20.029313875,12.676171125,20.430095875ZM11.790233625,20.619939875C11.790233625,20.130094875,11.464453725,19.886344875,10.815235125,19.886344875C10.653514825,19.886344875,10.480078725,19.902751875,10.299610125,19.937907875C10.325389825,20.371501875,10.337108625,20.861346875,10.337108625,21.407439875C10.393360125,21.412128875,10.461327525,21.414470875,10.536327325,21.414470875C11.373046925,21.412128875,11.790233625,21.147283875,11.790233625,20.619939875ZM17.384766125,19.260564875C17.363671125,20.029313875,17.354298125,20.798062875,17.354298125,21.566814875C17.354298125,23.085563875,16.730860125,23.847282875,15.486328125,23.847282875C14.869923125,23.847282875,14.408203125,23.678533875,14.096485125,23.343375875C13.784766125,23.005876875,13.630077125,22.403533875,13.630077125,21.531657875C13.630077125,20.762908875,13.620703125,20.005878875,13.599609125,19.262908875L14.572266125,19.262908875C14.541798125,20.036346875,14.527734125,20.781657875,14.527734125,21.501189875C14.527734125,22.131658875,14.607422125,22.562907875,14.769140125,22.794940875C14.928514125,23.029315875,15.176952125,23.144158875,15.509764125,23.144158875C15.858984125,23.144158875,16.112108125,23.026971875,16.269140125,22.794940875C16.423826124999998,22.562907875,16.503515125,22.129314875,16.503515125,21.491815875C16.503515125,20.793378875,16.489452125,20.050408875,16.458982125,19.260564875L17.384766125,19.260564875ZM21.776953125,19.260564875L21.753515125,19.998845875C21.296484125,19.963689875,20.865232125,19.947282875,20.459764125,19.947282875C20.455076125,20.380876875,20.452734125,20.861344875,20.452734125,21.393376875C20.452734125,22.218375875,20.464453125,22.996501875,20.490232125,23.732438875L19.529295125,23.732438875C19.559765125,23.003532875,19.573828125,22.225408875,19.573828125,21.393376875C19.573828125,20.870719875,19.569139125,20.390250875,19.559765125,19.947282875C19.236328125,19.947282875,18.793358125,19.966031875,18.230858125,20.001187875L18.258983125,19.260564875L21.776953125,19.260564875Z" fill="#C5CBD8" fill-opacity="1"/></g></svg>