<svg xmlns="http://www.w3.org/2000/svg" xmlns:xlink="http://www.w3.org/1999/xlink" fill="none" version="1.1" width="20" height="20" viewBox="0 0 20 20"><defs><clipPath id="master_svg0_55_4437"><rect x="0" y="0" width="20" height="20" rx="0"/></clipPath></defs><g clip-path="url(#master_svg0_55_4437)"><path d="M9.98212911875,1.21875C5.24123121875,1.21875,1.39794921875,5.062011200000001,1.39794921875,9.8029299C1.39794921875,14.543847,5.24123051875,18.38711,9.98212911875,18.38711C14.72302721875,18.38711,18.56630921875,14.543828,18.56630921875,9.8029299C18.56630921875,5.0620313,14.72302721875,1.218749925494194,9.98212911875,1.21875ZM10.71527381875,1.82689446C10.71527381875,1.82689446,11.25296971875,1.51501942,11.44007821875,1.70212886C11.62718821875,1.88923824,12.28212921875,1.6709569100000001,13.96621021875,2.6689255999999997C13.96621021875,2.6689255999999997,13.59531221875,3.0644726,13.51420021875,3.0407419C13.56154221875,3.1267382,13.70709021875,3.3888865,13.81027321875,3.5509372C13.93502021875,3.7468357,13.96621021875,3.7604685,13.96621021875,3.7604685L13.84144621875,3.9475777L13.96621021875,3.9787495C13.84144621875,3.9475777,13.77910221875,4.3217964,13.59853521875,4.3841791C13.41798921875,4.4465620999999995,13.65433521875,4.7896085,13.59197221875,4.851972099999999C13.52960921875,4.9143550000000005,13.62316421875,5.4757218,13.59197221875,5.8063669C13.56080121875,6.1370306,13.43605621875,5.8499408,13.28011821875,5.8063669C13.12418121875,5.7628117,12.87468721875,5.6628118,12.85336121875,5.5692573C12.83199421875,5.4757023,12.78113421875,5.1950386,12.84349721875,5.0391009C12.90586121875,4.8831632,12.65638621875,4.727225499999999,12.53162221875,4.6128705C12.40685521875,4.4984950999999995,11.90789021875,4.6336708,11.81431621875,4.6128705C11.72076321875,4.5920501,11.65839921875,4.3217959,11.65839921875,4.0723038C11.65839921875,3.8228116,12.09502021875,4.1034951,12.34074221875,4.0723038C12.58648521875,4.041132,12.62519621875,3.4193547,12.62519621875,3.4193547L12.61107521875,2.8908001C12.51025521875,2.8504876,12.49378921875,2.7982218000000003,12.65638621875,2.7312688C12.65638621875,2.7312688,12.12619121875,2.6065228,12.00146521875,2.8872062C11.87670021875,3.1679093,11.81435721875,3.1406437,11.78314521875,3.4193547C11.75197421875,3.6980655,11.26336101875,3.4524992,11.14902491875,3.4193547C11.03466991875,3.3861907,10.72279451875,3.0119325999999997,10.72279451875,3.0119325999999997C10.81634901875,2.7936319000000003,10.87871261875,2.6377139,10.87871261875,2.6377139L10.71527481875,2.263495L10.71527381875,1.82689446ZM5.79529281875,4.7272656C5.84818361875,4.6566799,6.20070311875,4.0411327,6.63734391875,4.228281C7.07396511875,4.4153905,7.35462901875,4.0099802,7.35462901875,4.0099802C7.35462901875,4.0099802,7.99570321875,3.3550584,8.033808718749999,3.4486129L8.07191371875,3.5421677C8.033808718749999,3.4486129,8.60210891875,3.2926753,8.664453018749999,3.6045504C8.72683621875,3.9164057,9.10109381875,4.0733201999999995,9.10109381875,4.0733201999999995C9.10109381875,4.0733201999999995,8.88277291875,4.4466014000000005,8.945156118749999,4.7272654C9.00751921875,5.007949099999999,9.225839618750001,5.070312299999999,9.10109381875,5.3198237C8.97632841875,5.5693154,8.72683621875,5.6628704,8.664453018749999,5.7876163C8.60208991875,5.9123821,8.089238618749999,5.3822064,8.03378911875,5.1950581C7.97834011875,5.007949099999999,7.70433571875,4.8208389,7.46709011875,4.883202600000001C7.22986361875,4.9455855,6.60611341875,5.1015029,6.48138711875,5.0391397C6.35664131875,4.9767573,5.64916041875,4.9222262,5.79529281875,4.7272656ZM14.15335921875,13.896192C13.90386721875,14.551113,13.31130821875,15.673847,12.99945121875,15.985703C12.68757621875,16.297577,12.31331921875,16.890137,12.03265521875,17.108438C11.75197221875,17.326738,11.75197221875,17.732166,11.40892621875,17.700994C11.06587791875,17.669806,10.66042901875,16.703008,10.75400351875,16.453516C10.84755801875,16.204023,9.03873061875,15.767382,9.03873061875,15.767382C9.03873061875,15.767382,8.259042718749999,15.673828,8.10312511875,14.176874C8.07535171875,13.910468,8.05753901875,13.721406,8.04689501875,13.590096C7.81255911875,13.486542,6.89337921875,13.106053,6.32546901875,13.241269C5.67054701875,13.397206,5.51460981875,13.033202,4.953243018749999,12.950117L3.98644591875,12.056171C3.98644591875,12.056171,2.39593815875,10.2161312,2.58304751875,9.9042768C2.7701568187500003,9.5924025,2.7701568187500003,8.750370499999999,2.8013483187499997,8.563261C2.83253971875,8.376132,2.55244191875,7.1909952,2.56773511875,7.0350771C2.58304751875,6.8791394,2.33355533875,6.286581,2.33355533875,6.286581C2.33355533875,6.286581,2.92611391875,5.0391204,3.01966881875,5.0391204C3.11322371875,5.0391204,3.45628971875,6.099472,3.79935621875,6.1306434C4.142383618749999,6.1618347,5.077989118750001,6.0994716,5.21834061875,5.9435344C5.35869221875,5.7875967,5.48341841875,5.6004877,5.63935611875,5.6004877C5.79529381875,5.6004877,5.79529381875,5.5069327,6.07597731875,5.6316786C6.35666081875,5.7564244,6.66853571875,5.9435344,6.79326251875,6.1306434C6.91802831875,6.3177524,6.69970751875,6.6920109,7.35463001875,6.6920109C8.00955201875,6.6920109,8.00955201875,6.5360732,8.10312601875,6.9726944C8.19668051875,7.4093347,8.30755951875,8.376112,8.03382871875,8.4384952C7.76007891875,8.5008583,6.94921921875,9.4502916,7.01160191875,9.7552528C7.07398511875,10.060214,7.07398511875,10.5280066,6.94921921875,10.8086901C6.82447341875,11.0893536,6.73091841875,11.1829081,6.26310591875,11.1517372C5.79531331875,11.1205463,5.39982461875,10.8710337,5.27009821875,11.245292C5.140371318750001,11.61953,4.89220781875,12.462616,5.32752011875,12.377499C5.32752011875,12.377499,6.01361371875,12.16867,6.26310591875,12.377499C6.51259801875,12.586327,8.10314511875,13.272421,8.10314511875,13.272421C8.10314511875,13.272421,9.53771491875,11.713084,11.78318321875,12.711072L12.15744121875,12.960565L12.78117321875,12.824959C12.78117321875,12.824959,13.59201221875,12.586307,13.87271521875,12.648689L14.15339721875,12.711071L14.15339721875,12.586306C14.15335921875,12.586345,14.40285021875,13.241266,14.15335921875,13.896192ZM17.80222721875,10.3408985C17.80222721875,10.3408985,17.61511621875,10.060215,17.61511621875,9.7649803C17.61511621875,9.4697456,17.39679521875,9.498847,17.39679521875,9.124628999999999C17.39679521875,8.7503715,17.11611321875,8.875136399999999,16.92900521875,8.6256442C16.741895218750003,8.376152000000001,16.64830121875,8.7191997,16.49238521875,8.7503905C16.33644721875,8.7815809,16.36761721875,9.0310941,16.21168021875,9.327343C16.055742218749998,9.6236324,15.65033121875,9.8107414,15.52556621875,9.7552929C15.40082121875,9.6998243,14.93300621875,9.2805862,14.90183721875,9.186992199999999C14.87064421875,9.0934372,14.24691521875,8.563261,14.26421921875,8.4385157C14.28154321875,8.3137498,14.09097721875,7.6588278,13.96622921875,7.3469729C13.84146521875,7.0350981,13.96622921875,5.806406,13.96622921875,5.806406C13.77912121875,5.7004685,15.68150421875,4.9143751,15.43201021875,4.8208199C15.18252021875,4.7272656,15.05777221875,3.6981053,15.05777221875,3.6981053L15.96564421875,4.1658983C16.873533218749998,4.633710600000001,18.02052521875,8.3449602,18.02052521875,8.3449602L18.02052521875,9.4053125L17.80222721875,10.3408985Z" fill="#C5CBD8" fill-opacity="1"/></g></svg>