<svg xmlns="http://www.w3.org/2000/svg" xmlns:xlink="http://www.w3.org/1999/xlink" fill="none" version="1.1" width="16" height="16" viewBox="0 0 16 16"><defs><clipPath id="master_svg0_279_34124"><rect x="-0.5" y="-0.5" width="17" height="17" rx="0"/></clipPath></defs><g clip-path="url(#master_svg0_279_34124)"><path d="M0.898234668125,7.43425190625L1.448957905125,13.76758570625Q1.488276593125,14.21974750625,1.822828378125,14.526462106250001Q2.157374088125,14.83317090625,2.6112383281250002,14.83317090625L3.3333615281249998,14.83317090625Q3.816617928125,14.83317090625,4.158323328125,14.49146600625Q4.5000286281249995,14.14976070625,4.5000286281249995,13.66650390625L4.5000286281249995,7.33317065625Q4.5000286281249995,6.84991374625,4.158323328125,6.50820864625Q3.816618228125,6.16650390625,3.3333615281249998,6.16650390625L2.060514928125,6.16650399625Q1.547350358125,6.16650393625,1.200565918125,6.54475404625Q0.853781518125,6.92300408625,0.898234668125,7.43425190625ZM2.6112383281250002,13.83317040625Q2.458434728125,13.83317040625,2.445198528125,13.68095590625L1.894475278125,7.34762251625Q1.888123778125,7.27457511625,1.9376664781250001,7.22053712625Q1.9872047881250001,7.16650396625,2.060514748125,7.16650396625L3.3333615281249998,7.16650390625Q3.500028328125,7.16650390625,3.500028328125,7.33317065625L3.500028328125,13.66650390625Q3.500028328125,13.83317040625,3.3333615281249998,13.83317040625L2.6112383281250002,13.83317040625Z" fill-rule="evenodd" fill="#000000" fill-opacity="1"/><path d="M5.5,7.12467100625L5.5,13.66650390625Q5.49999994,14.14975990625,5.84170471,14.49146590625Q6.18340993,14.83317090625,6.66666669,14.83317090625L12.3288665,14.83317090625Q13.2116814,14.83317090625,13.4516125,13.98359690625L15.2417078,7.64511490625Q15.3994284,7.08672710625,15.0493202,6.62403300625Q14.6992111,6.16133740625,14.1189671,6.16133740625L11.1718707,6.16133740625L11.272353200000001,5.82614420625L11.2785583,5.80544140625Q11.5674267,4.84175710625,11.5999579,4.312610906250001Q11.6658025,3.24130950625,11.2621598,2.56809627625Q10.8129816,1.81893771625,10.010797,1.38371991625Q9.5777352,1.14876633625,9.2332947,1.16794362625Q8.5986314,1.20327949625,8.5098751,1.84332832625Q8.5008683,1.90826079625,8.4986103,2.01025983625Q8.498023,2.03678780625,8.4975595,2.04722925625Q8.4159532,3.88326020625,7.9045082,4.73622040625Q7.4935975,5.42154760625,6.21191522,6.02572920625Q5.5,6.36129810625,5.5,7.12467100625ZM6.66666669,13.83317090625Q6.5,13.83317090625,6.5,13.66650390625L6.5,7.12467100625Q6.5,6.99546050625,6.6382841500000005,6.93027880625Q8.1949399,6.19647550625,8.7621589,5.2504532062500004Q9.380892,4.2185628062500005,9.489268299999999,2.2390552762500002Q9.5106099,2.25004321625,9.53392,2.26268994625Q10.0958734,2.56757241625,10.404506699999999,3.08232500625Q10.6486597,3.48953390625,10.6018419,4.25126410625Q10.5763946,4.6651862062500005,10.3206673,5.5183098062500004L10.3144469,5.5390634062499995L10.0210571,6.51776270625Q10.006916,6.56493420625,10.0022492,6.61395840625Q9.9975829,6.66298200625,10.002570200000001,6.71197460625Q10.0075579,6.76096720625,10.022007,6.80804540625Q10.0364571,6.85512350625,10.059813,6.89847800625Q10.0831695,6.94183250625,10.1145353,6.97979740625Q10.1459007,7.01776220625,10.1840701,7.04887870625Q10.2222395,7.07999510625,10.265746100000001,7.10306740625Q10.3092527,7.12613960625,10.3564243,7.14028070625Q10.4266682,7.16133740625,10.5,7.16133780625L14.1189671,7.16133780625Q14.201869,7.16133780625,14.2518816,7.22743320625Q14.3018923,7.29352570625,14.2793608,7.37329290625L12.489255,13.71180990625Q12.454980899999999,13.83317090625,12.3288665,13.83317090625L6.66666669,13.83317090625Z" fill-rule="evenodd" fill="#000000" fill-opacity="1"/></g></svg>