<svg xmlns="http://www.w3.org/2000/svg" xmlns:xlink="http://www.w3.org/1999/xlink" fill="none" version="1.1" width="24" height="24" viewBox="0 0 24 24"><defs><clipPath id="master_svg0_59_3376"><rect x="0" y="0" width="24" height="24" rx="0"/></clipPath></defs><g clip-path="url(#master_svg0_59_3376)"><path d="M20.975717375,16.163C20.690719375,17.055,20.200718375,17.5,19.505718375,17.5C18.628717375,17.5,17.765716375,16.974,16.918716375,15.92C16.329717375,15.190001,15.504716375,13.8000011,14.441718375,11.752000800000001C14.036451375,10.9658046,13.613342375,10.1889367,13.172718375,9.4220009C13.482719375,8.934001,13.758718375,8.5420008,14.001718375,8.246001C14.958719375,7.082001,15.960718375,6.500001,17.006717375,6.500001C17.841716375,6.500001,18.636718375,7.036000700000001,19.392719375,8.108001C20.168718375,9.2090015,20.712719375,10.5690007,21.024719375,12.1880007C21.330719375,13.7820015,21.314720375,15.107,20.975717375,16.163ZM12.005717375,11.429999800000001C12.215717375,11.8149996,12.435717375,12.2300005,12.665716375,12.6719999C13.790716375,14.839001,14.688716375,16.34,15.360715375,17.174999C16.608715375,18.725,17.990715375,19.5,19.506715375,19.5C20.362714375,19.5,21.094715375,19.23,21.703716375,18.690001000000002C22.228716375,18.223,22.620714375,17.585,22.880716375,16.774C23.323715375,15.394,23.359714375,13.7390003,22.988716375,11.810999899999999C22.622715375,9.9099998,21.968715375,8.2909999,21.026716375,6.955000200000001C19.872717375,5.31800008,18.532716375,4.5,17.006715375,4.5C15.330715375,4.5,13.813715375,5.32499993,12.456714375,6.9760001C12.314714375,7.1490004,12.164714375,7.3459997,12.006713375,7.5699999C11.863916375,7.3666456,11.713818375,7.1685162,11.556714375,6.9760001C10.199717475,5.32599986,8.681717875,4.5,7.006717675,4.5C5.480717675,4.5,4.140717475000001,5.31800008,2.986717675,6.955000200000001C2.044717575,8.2909999,1.390717565,9.9099998,1.024717625,11.810999899999999C0.654717625,13.7390003,0.689717636,15.393,1.132717665,16.774C1.3927177149999999,17.584,1.784717575,18.224001,2.309717675,18.689C2.918717575,19.229,3.650717775,19.5,4.506717675,19.5C6.022717475,19.5,7.404717475,18.725,8.652717075,17.174999C9.324716575,16.34,10.222717275,14.839001,11.346717375,12.6730003C11.576717375,12.2289991,11.796717375,11.8149996,12.006717375,11.429999800000001L12.005717375,11.429999800000001ZM10.839717375,9.4219995C10.449716575,10.0959992,10.027717575,10.8719997,9.571718175,11.751999399999999C8.508717575,13.7999992,7.681717375,15.188001,7.094717975,15.92C6.246717475,16.973,5.384717975,17.499001,4.506717875,17.499001C3.812717875,17.499001,3.322717875,17.054000000000002,3.036717875,16.162001C2.698717875,15.106001,2.682717775,13.7810001,2.988718075,12.1880007C3.299718175,10.5680008,3.843718075,9.2080007,4.620718275,8.1070004C5.376717575,7.036,6.171717675,6.500000200000001,7.006717675,6.500000200000001C8.052717675,6.500000200000001,9.054717975,7.0820003,10.011716875,8.2460003C10.254717875,8.5420003,10.530717875,8.9340005,10.839717375,9.4219995Z" fill="#C5CBD8" fill-opacity="1"/></g></svg>