<svg xmlns="http://www.w3.org/2000/svg" xmlns:xlink="http://www.w3.org/1999/xlink" fill="none" version="1.1" width="20" height="20" viewBox="0 0 20 20"><defs><clipPath id="master_svg0_55_4488"><rect x="0" y="0" width="20" height="20" rx="0"/></clipPath></defs><g clip-path="url(#master_svg0_55_4488)"><path d="M14.4665114375,2.8020026099999997L5.293666637499999,2.8020026099999997C4.5385334375,2.8020026099999997,3.8545005375,3.1069366499999997,3.3607831375,3.59912185C2.9004703375,4.0585150500000005,2.5679542375,4.682786950000001,2.5667284775,5.37632035C2.5584538575,8.35517355,2.5734706474999998,11.33402725,2.5633572375,14.31226825C2.5633572375,14.44221025,2.5627441975,14.57828125,2.5627441975,14.71680325C2.5627441975,15.46825925,2.8682912375000003,16.14861525,3.3610894375,16.639881250000002C3.8548069375,17.13175925,4.5385334375,17.43700025,5.293666637499999,17.43700025L14.4665134375,17.43700025C15.2216474375,17.43700025,15.9056794375,17.13175925,16.399396437500002,16.639881250000002C16.8925014375,16.14861525,17.1980494375,15.46795325,17.1980494375,14.71680325L17.1980494375,5.57674935C17.1980494375,4.799857149999999,16.8937274375,4.10663035,16.4018484375,3.6080092500000003C15.9087434375,3.10846915,15.2231784375,2.8020026099999997,14.4665114375,2.8020026099999997ZM14.4665114375,1.8164065480232C15.4943994375,1.8164065480232,16.4275904375,2.23534611,17.1021224375,2.9190727499999998C17.7702194375,3.59636355,18.1836434375,4.53200505,18.1836434375,5.57674935L18.1836434375,14.71680325C18.1836434375,15.73825725,17.7662354375,16.66501225,17.0920104375,17.33678525C16.4193174375,18.00702625,15.4901094375,18.42259625,14.4665114375,18.42259625L5.293666637499999,18.42259625C4.2700686375,18.42259625,3.3411692375,18.00702625,2.6684754374999997,17.33678525C1.9945558575,16.66501225,1.5771484375,15.73825725,1.5771484375,14.71680325L1.5771484375,5.521891549999999C1.5771484375,4.50043945,1.9945557075,3.57368495,2.6681687375000003,2.90221675C3.3408624375000002,2.2316682,4.2700686375,1.81640625,5.2936661375,1.81640625L14.4665114375,1.8164065480232ZM9.8909692375,4.56479715L9.7870769375,4.56724905C9.7432527375,4.57613685,9.6966686375,4.5932986499999995,9.6519250375,4.61567065C9.6010522375,4.64049485,9.556000237500001,4.67206045,9.5232095375,4.70454595C9.4793629375,4.74835635,9.4444904375,4.80030295,9.4205436375,4.85747265C9.3978653375,4.9120237499999995,9.3853006375,4.97117185,9.3853006375,5.03001335L9.3853006375,9.70791575C9.3853006375,9.76675745,9.3978653375,9.82559965,9.4205436375,9.87923045C9.4441423375,9.93684675,9.4793853375,9.98986535,9.5232095375,10.03338435C9.567677037500001,10.07756905,9.6206388375,10.11228655,9.6788950375,10.13543795C9.7371225375,10.15842155,9.8051586375,10.17160125,9.8802433375,10.17160125C9.9553270375,10.17160125,10.0233621375,10.15873055,10.0815906375,10.13574405C10.1401252375,10.11245345,10.1934499375,10.07720855,10.2372760375,10.03338435C10.2811012375,9.98986625,10.3163442375,9.93684675,10.3399429375,9.88045785C10.3626213375,9.82559965,10.3751869375,9.76675745,10.3751869375,9.70791575L10.3751869375,5.03001335C10.3745737375,4.903749250000001,10.3212471375,4.78821135,10.2372760375,4.70454595C10.1720543375,4.6395101499999996,10.0894985375,4.59461475,9.9994583375,4.57521705L9.8909692375,4.56479715ZM4.5863418375,9.76706405C4.5612118375,9.92673305,4.5477271375,10.08732125,4.5461950375,10.24729825L4.6031975375,10.79342075C4.6608131375,11.38949775,4.7037184375,11.82682625,5.0077331375,12.52403625C5.145949637499999,12.84031025,5.3120541375000006,13.14309825,5.5054347375,13.42290325C5.6896209375,13.68983425,5.9016957375,13.93929825,6.1395135375,14.16332625L6.1453366375,14.16945525C6.3761057375,14.39930525,6.6341500375,14.60923625,6.9142608375,14.79372725C7.1916132375,14.97638125,7.4959344375,15.13758325,7.8220148375,15.27304125C8.145642737500001,15.40727125,8.4830627375,15.50840725,8.8287563375,15.57552325C9.176595237499999,15.64294525,9.538532737499999,15.67696325,9.9090509375,15.67696325C10.2768106375,15.67696325,10.6298599375,15.64325225,10.9703436375,15.57613525C11.3108272375,15.50932625,11.6427294375,15.40788625,11.9669734375,15.27304125C12.2893754375,15.13942125,12.5909384375,14.97975225,12.8704364375,14.79832325C13.1594334375,14.61107225,13.4291234375,14.39777325,13.6782804375,14.16332625C13.9160984375,13.93929925,14.1281734375,13.68983425,14.3123594375,13.42290325C14.5057404375,13.14310025,14.6718454375,12.84031025,14.8100614375,12.52403625C15.0785254375,11.90834625,15.2130654375,11.23565105,15.2130654375,10.50687505C15.2130654375,10.30123615,15.1995804375,10.09958075,15.1738374375,9.90436265C15.1477864375,9.707917250000001,15.1070264375,9.50687505,15.0521694375,9.30215545C14.9973124375,9.09651705,14.9354064375,8.89853905,14.8649174375,8.710676150000001C14.7944304375,8.52373075,14.7138304375,8.34291645,14.6203574375,8.17006875C14.5259664375,7.99538325,14.4236054375,7.82529405,14.3105194375,7.65796375C14.2026434375,7.49706795,14.0800574375,7.33433435,13.9403074375,7.16731025C13.8042364375,7.01836775,13.6611174375,6.86911865,13.5124814375,6.72783755C13.3690544375,6.59084705,13.2167404375,6.45906685,13.0576854375,6.33923815C12.9219204375,6.26568605,12.7916724375,6.22860335,12.6715384375,6.24545905C12.6169864375,6.25312085,12.5642734375,6.27334735,12.5155454375,6.30307485C12.4597704375,6.33678575,12.4061364375,6.38520765,12.3555714375,6.44374275C12.3227794375,6.49522925,12.2979554375,6.54702235,12.2835514375,6.60065415C12.2685344375,6.65612455,12.2642444375,6.71649835,12.2725194375,6.78514715C12.2801804375,6.83785865,12.3001014375,6.88934515,12.3301354375,6.93838075C12.3662984375,6.99660825,12.4177844375,7.05269285,12.4799974375,7.10448555C12.7499934375,7.31533475,12.9914894375,7.54150675,13.2029504375,7.78606705C13.4190094375,8.03583665,13.6041154375,8.30522105,13.7576554375,8.59575035C13.9115014375,8.88658765,14.0276524375,9.194893350000001,14.1054954375,9.51514955C14.1836444375,9.83785915,14.2231784375,10.17037585,14.2231784375,10.50687505C14.2231784375,10.79709915,14.1919194375,11.08211235,14.1336904375,11.36038495C14.0763814375,11.63497825,13.9914904375,11.90344425,13.8842264375,12.16332625C13.7745114375,12.42903325,13.6402794375,12.67911025,13.4839824375,12.90834625C13.3295224375,13.13390625,13.1511604375,13.34230325,12.9501174375,13.52710225C12.7518334375,13.72354725,12.5382274375,13.89792625,12.3108284375,14.04901525C12.0806714375,14.20194125,11.8336594375,14.33249525,11.5710182375,14.44037325C11.3022155375,14.55080025,11.0233602375,14.63495925,10.7383480375,14.69167625C10.4573173375,14.74775925,10.1683206375,14.77809925,9.8802433375,14.77809925C9.5762276375,14.77809925,9.2832460375,14.74683925,9.0000701375,14.68922325C8.7196550375,14.63191525,8.4505767375,14.54733025,8.189774037500001,14.44037325L8.1765957375,14.43424325C7.6602001375,14.19244225,7.2044844375,13.88965225,6.8103690375,13.52710225L6.8020944375,13.51882825C6.6188268375,13.33586825,6.4505772375,13.13145525,6.2994895375,12.91018625C6.1450305375,12.68462725,6.0055880375,12.43853425,5.8823886375,12.17773025L5.8762598375,12.16332625C5.7689962375,11.90344425,5.6841054375,11.63497825,5.6267957375,11.36038495C5.5688738375,11.08211235,5.5376141375,10.79709915,5.5376141375,10.50687505C5.5376141375,10.15627765,5.5768418375,9.81793975,5.6580557375,9.48910145C5.7395758375,9.15995695,5.8640008375,8.842456349999999,6.0337834375,8.53415205C6.1897745375,8.22615335,6.3831553375,7.94941375,6.6090207375,7.70148325C6.8364186375,7.45201875,7.0981412375,7.22921805,7.3889775375,7.03093485C7.4567074375,6.98220685,7.5088067375,6.93102645,7.5440497375,6.87800695C7.5737767375,6.83356955,7.5930838375,6.78484205,7.6013593375,6.73304895C7.6102466375,6.65765815,7.6068754375,6.58900975,7.5924711375,6.52863595C7.5768418375,6.46305225,7.5477271375,6.39992045,7.5081939375,6.34107875C7.4744825375,6.29081825,7.4318833375,6.24852565,7.3819298375,6.21818595C7.3347334375,6.18937775,7.2768111375,6.16945795,7.2096948375,6.16118285L7.1738391375,6.15413425C7.1070294375,6.13758465,7.0448165375,6.13758465,6.9881205375,6.14953755C6.9280533375,6.16240885,6.8692116375,6.18999095,6.8143539375,6.22645995C6.6433458375,6.34444995,6.4750957375,6.47193955,6.3135876375,6.61260745C6.1582093375,6.74653335,6.0120248375,6.89241125,5.8784055375,7.05208015C5.7383504375,7.21971705,5.6059565375,7.39287095,5.4864347375,7.56755635C5.3721225375,7.73243615,5.2648592375,7.90620275,5.168628737500001,8.08456615L5.1649510375,8.09161475C5.0573814375,8.27947805,4.9703447375,8.465504150000001,4.8980188375000004,8.65214105C4.8250796375,8.840312449999999,4.7637865375,9.03798295,4.708316137500001,9.24515435L4.7046384375,9.25588085C4.6531520375,9.42290445,4.6136179375,9.59391265,4.5863418375,9.76706405Z" fill="#C5CBD8" fill-opacity="1"/></g></svg>