<svg xmlns="http://www.w3.org/2000/svg" xmlns:xlink="http://www.w3.org/1999/xlink" fill="none" version="1.1" width="20" height="20" viewBox="0 0 20 20"><defs><clipPath id="master_svg0_55_4495"><rect x="-0.15000000596046448" y="-0.15000000596046448" width="20.30000001192093" height="20.30000001192093" rx="0"/></clipPath></defs><g clip-path="url(#master_svg0_55_4495)"><path d="M17.25153865625,2.4656804775C16.69625365625,1.9103956475000001,15.96561565625,1.6083984375,15.17652565625,1.6083984375C14.39717865625,1.6083984375,13.65679865625,1.9103955075,13.10151365625,2.4656804174999998L9.76006265625,5.8071317375C9.64316125625,5.9240336375,9.64316125625,6.1091289375,9.76006265625,6.2162890375C9.87696505625,6.3331909375,10.06205935625,6.3331909375,10.16921995625,6.2162890375L13.51067165625,2.8748376374999998C13.94905365625,2.4364547775,14.54330765625,2.1929087075,15.16678465625,2.1929087075C15.79026365625,2.1929087075,16.384514656249998,2.4364547775,16.822896656250002,2.8748376374999998C17.738630656250002,3.7905705375,17.738630656250002,5.2713303375,16.822896656250002,6.1870637375L12.39035865625,10.6196012375C11.47462555625,11.5353345375,9.99386695625,11.5353345375,9.07813405625,10.6196012375C8.961231756250001,10.5026989375,8.77613685625,10.5026989375,8.66897675625,10.6196012375C8.55207445625,10.7365036375,8.55207445625,10.9215974375,8.66897675625,11.0287580375C9.24374485625,11.6035270375,9.99386695625,11.8860394375,10.74398895625,11.8860394375C11.49411105625,11.8860394375,12.24423265625,11.6035270375,12.81900065625,11.0287580375L17.25153865625,6.5962209375C18.39133265625,5.466167437499999,18.39133265625,3.6054759375,17.25153865625,2.4656804775ZM9.818513356250001,13.2206724375L6.47706175625,16.5621244375C5.56132885625,17.4778584375,4.08056875625,17.4778584375,3.16483595625,16.5621244375C2.24910294625,15.6463914375,2.24910294625,14.1656314375,3.16483595625,13.2498984375L7.59737395625,8.8076191375C8.03575655625,8.3692364375,8.63000865625,8.125689937499999,9.25348665625,8.125689937499999C9.87696405625,8.125689937499999,10.47121715625,8.3692355375,10.90959925625,8.8076191375C11.02650165625,8.924520937499999,11.21159745625,8.924520937499999,11.31875705625,8.8076191375C11.43565845625,8.6907167375,11.43565845625,8.505621937499999,11.31875705625,8.398461837500001C10.76347065625,7.8431763375,10.03283405625,7.5411791375,9.24374435625,7.5411791375C8.45465425625,7.5411791375,7.72401715625,7.8431763375,7.16873165625,8.398461837500001L2.73619419625,12.8309994375C1.59639870625,13.9707944375,1.59639870625,15.8314854375,2.73619419625,16.9712824375C3.2914791562500003,17.5265674375,4.022116856249999,17.8285634375,4.8112060562500005,17.8285634375C5.590553256250001,17.8285634375,6.33093305625,17.5265674375,6.88621855625,16.9712824375L10.22766975625,13.6298304375C10.34457205625,13.5129274375,10.34457205625,13.3278324375,10.22766975625,13.2206724375C10.11076925625,13.1037714375,9.92567345625,13.1037714375,9.818513356250001,13.2206724375Z" fill="#C5CBD8" fill-opacity="1"/><path d="M17.35714865625,6.7027425375L17.35760365625,6.7022872375Q18.25638365625,5.8108649375,18.25638365625,4.534603837500001Q18.25638365625,3.2583958375,17.35760365625,2.3596143175Q16.45638965625,1.4583985375,15.17652565625,1.4583984275Q13.89666365625,1.4583984275,12.99544865625,2.3596144875L9.653996456249999,5.7010660375Q9.52238605625,5.8326769375,9.52238605625,6.0153637375Q9.52238605625,6.2002382375,9.65627955625,6.3246250375Q9.78718995625,6.4539656375,9.96829505625,6.4539656375Q10.15303425625,6.4539656375,10.27737615625,6.3202662375L13.61673865625,2.9809037375000003Q14.25473165625,2.3429087975,15.16678565625,2.3429085575Q16.078837656250002,2.3429087375,16.71683065625,2.9809036375Q17.35969765625,3.6237683375,17.35969765625,4.5309503375Q17.35969765625,5.4381325375,16.71683265625,6.0809974375L12.28429365625,10.5135355375Q11.64142705625,11.1564016375,10.73424625625,11.1564016375Q9.82706545625,11.1564016375,9.18420025625,10.5135355375Q9.05258945625,10.3819246375,8.86990215625,10.3819246375Q8.685027556249999,10.3819246375,8.56064085625,10.5158186375Q8.43130065625,10.6467285375,8.43130065625,10.8278331375Q8.43130065625,11.0125856375,8.56501865625,11.1369314375Q9.46562055625,12.0360404375,10.74398895625,12.0360404375Q12.02385265625,12.0360404375,12.92506665625,11.1348247375L17.35714865625,6.7027425375ZM17.95638465625,4.534603837500001Q17.95638465625,5.6861724375,17.14592965625,6.4897012375L17.14547265625,6.4901552375L12.71293465625,10.9226923375Q11.89958765625,11.7360404375,10.74398895625,11.7360404375Q9.58838985625,11.7360404375,8.77504305625,10.9226923375L8.772737956250001,10.9203882375L8.770335656250001,10.9181852375Q8.73130035625,10.8824033375,8.73130035625,10.8278331375Q8.73130035625,10.7694101375,8.77504305625,10.7256679375L8.77734755625,10.7233629375L8.77954955625,10.7209606375Q8.815331956249999,10.6819248375,8.86990215625,10.6819248375Q8.92832515625,10.6819248375,8.97206835625,10.7256679375Q9.70280075625,11.4564008375,10.73424625625,11.4564008375Q11.76569175625,11.4564008375,12.49642465625,10.7256679375L16.92896265625,6.2931299375Q17.65969765625,5.5623955375000005,17.65969765625,4.5309503375Q17.65969765625,3.4995054375,16.928964656250002,2.7687717375Q16.20310365625,2.0429087275,15.16678565625,2.0429085775Q14.13046765625,2.0429087575000002,13.40460565625,2.7687716375L10.06085015625,6.1125273375L10.05864715625,6.1149301375Q10.02286435625,6.1539654375,9.96829505625,6.1539654375Q9.90987105625,6.1539654375,9.86612795625,6.1102228375L9.86382385625,6.1079182375L9.86142115625,6.1057162375Q9.822386256249999,6.0699343375,9.822386256249999,6.0153637375Q9.822386256249999,5.9569401375,9.86612845625,5.9131980375L13.20758165625,2.5717463475Q14.02092865625,1.7583984475,15.17652565625,1.7583984475Q16.33212565625,1.7583984475,17.14547265625,2.5717462875Q17.95638465625,3.3826583374999997,17.95638465625,4.534603837500001ZM10.33142855625,13.1123134375Q10.46534635625,13.2367054375,10.46534635625,13.4215974375Q10.46534635625,13.6042854375,10.33373545625,13.7358964375L6.99228475625,17.077346437499997Q6.09106735625,17.9785654375,4.8112060562500005,17.9785654375Q3.5313444562500003,17.9785654375,2.63012820625,17.077346437499997Q1.73134764625,16.178566437500002,1.73134764625,14.9011404375Q1.73134760625,13.6237134375,2.63012820625,12.7249334375L7.06266545625,8.2923960375Q7.96388195625,7.3911795375,9.24374485625,7.3911781375Q10.52209755625,7.3911795375,11.42269995625,8.290275537500001Q11.55643365625,8.414623737500001,11.55643365625,8.5993876375Q11.55643365625,8.7804741375,11.42711825625,8.9113755375Q11.30272385625,9.0452957375,11.11783125625,9.0452957375Q10.93514445625,9.0452957375,10.80353355625,8.9136848375Q10.16554065625,8.275689637500001,9.25348665625,8.275689637500001Q8.341435956249999,8.275689637500001,7.70355655625,8.9135680375L3.2709020562499997,13.3559634375Q2.62803619625,13.9988294375,2.62803619625,14.9060124375Q2.62803625625,15.8131934375,3.27090215625,16.456059437500002Q3.91376665625,17.0989244375,4.82094885625,17.0989244375Q5.72813105625,17.0989244375,6.37099595625,16.456059437500002L9.71035095625,13.1167044375Q9.83469395625,12.9829974375,10.01943875625,12.9829974375Q10.20052715625,12.9829974375,10.33142855625,13.1123134375ZM10.01943875625,13.2829964375Q10.07786175625,13.2829964375,10.12160305625,13.3267384375L10.12390805625,13.3290434375L10.12631125625,13.3312464375Q10.16534705625,13.3670284375,10.16534705625,13.4215974375Q10.16534705625,13.4800214375,10.12160395625,13.5237644375L6.78015275625,16.865216437500003Q5.96680405625,17.6785644375,4.8112060562500005,17.6785644375Q3.6556075562499997,17.6785644375,2.84226029625,16.865216437500003Q2.03134766625,16.0543034375,2.03134766625,14.9011404375Q2.03134775625,13.7479784375,2.84226029625,12.9370664375L7.27479795625,8.5045280375Q8.08814665625,7.6911792375,9.24374485625,7.6911783375Q10.39934065625,7.6911792375,11.21269135625,8.5045280375L11.21499535625,8.5068330375L11.21739865625,8.509034637500001Q11.25643345625,8.5448174375,11.25643345625,8.5993876375Q11.25643345625,8.657811137500001,11.21269135625,8.7015533375L11.21038625625,8.7038574375L11.20818325625,8.7062606375Q11.17240145625,8.745296037500001,11.11783125625,8.745296037500001Q11.05940915625,8.745296037500001,11.01566605625,8.7015528375Q10.28980545625,7.9756899375,9.25348665625,7.9756899375Q8.217172156250001,7.9756899375,7.49119135625,8.701669237499999L3.05876995625,13.1438324375Q2.32803621625,13.8745654375,2.32803621625,14.9060124375Q2.3280362762499998,15.9374564375,3.05877005625,16.6681904375Q3.78950365625,17.3989244375,4.82094885625,17.3989244375Q5.8523940562500005,17.3989244375,6.58312795625,16.6681904375L9.92688365625,13.3244344375L9.92908665625,13.3220324375Q9.96486945625,13.2829964375,10.01943875625,13.2829964375Z" fill-rule="evenodd" fill="#C5CBD8" fill-opacity="1"/></g></svg>