<svg xmlns="http://www.w3.org/2000/svg" xmlns:xlink="http://www.w3.org/1999/xlink" fill="none" version="1.1" width="16.60009765625" height="16.599609375" viewBox="0 0 16.60009765625 16.599609375"><path d="M16.200609828125,9.5569495875Q16.028020828125,10.6401256875,15.587508828125,11.6161646875Q15.164438828125,12.5535596875,14.513998828125,13.3495826875Q13.882738828125,14.1221326875,13.072815828125,14.7187596875Q12.275766828125,15.3059036875,11.356647828125,15.6854446875Q10.437525828125,16.064988687499998,9.458083128125,16.211434687500002Q8.462820028125,16.3602426875,7.469690328125,16.2584686875Q6.446397828125,16.153603687500002,5.484146628125,15.7882606875Q4.482228728125,15.4078556875,3.594286728125,14.7626206875Q2.706345128125,14.1173856875,2.035572728125,13.2823076875Q1.391356128125,12.4802906875,0.976459558125,11.5400796875Q0.573792638125,10.6275856875,0.409154458125,9.6359166875Q0.247133598125,8.6600141875,0.325712249125,7.6696800875Q0.404290948125,6.6793460875,0.718189508125,5.7411198875Q1.0371584281250001,4.7877387875,1.578700228125,3.9499899875Q2.136692928125,3.0867921875,2.899340828125,2.3961546875Q3.693429728125,1.6770439875,4.672043328125,1.1795780675Q5.650654328125,0.6821102775,6.700052728125,0.46410107749999996Q7.707903828125,0.2547231655,8.734961528125,0.3121746795Q9.731739028125,0.3679323345,10.691111828125,0.6714831575Q11.635236828125,0.9702096575,12.483024828125,1.4896300875Q13.330818828125,2.0090523874999997,14.025321828125,2.7142738875Q14.731039828125,3.4308814875,15.232591828125,4.2931182875000005Q15.749375828125,5.1815437875,16.019339828125,6.1738037875Q16.300428828125,7.2069720875,16.300046828124998,8.3038301875Q16.297691828125,8.9341449875,16.200618828125002,9.5568961875L16.200609828125,9.5569495875ZM0.980750438125,6.5632633875Q0.7135274381250001,7.6864132875,0.796052338125,8.8398828875Q0.878577348125,9.9933509875,1.302979928125,11.0671306875Q1.736930028125,12.1650666875,2.489733428125,13.0800146875Q3.238153928125,13.9904536875,4.226014828125,14.6269846875Q5.192327528125,15.2496296875,6.302573728125,15.5561336875Q7.412817028125,15.8626386875,8.562097528125,15.8240416875Q9.737001428125,15.7845846875,10.847272828125,15.3872706875Q11.957508828125,14.9899706875,12.890188828125,14.2752486875Q13.802529828125,13.5761116875,14.465333828125,12.6351586875Q15.128138828125,11.6942066875,15.478799828125,10.6003246875Q15.837278828125,9.4820575875,15.836680828125,8.3040608875L15.836683828125,8.3027209875Q15.838943828125,7.0520739875,15.437901828125,5.8726238875Q15.046582828125,4.7217697875,14.310415828125,3.7507774875Q13.574247828125,2.7797834875,12.571278828125,2.0915995875Q11.543378828125,1.3863101875,10.337529828125,1.0494911675Q9.131559328125,0.7126406475,7.886379228125,0.7830924375Q6.671397728125,0.8518356675,5.537691128125,1.3006730875Q4.403985028125,1.7495103875,3.471762928125,2.5308518875Q2.516371928125,3.3316120875,1.868895928125,4.4022497875Q1.253984808125,5.4148468875,0.980750438125,6.5632633875ZM5.754843728125,12.9091336875C4.905200928125,12.6790706875,4.1005957281250005,12.3240476875,3.472450728125,11.8616696875Q3.172810328125,11.6351886875,2.901365028125,11.3759496875Q2.300350628125,10.8115516875,2.417219128125,10.3845196875Q2.457449928125,10.2362689875,2.586276028125,10.1410150875C2.809887928125,9.9756745875,3.082408228125,9.9259290875,3.299953228125,9.7389325875C3.081613028125,9.5922917875,2.822225328125,9.3373746875,2.793565528125,9.0590867875Q2.779071828125,8.9183463875,2.835633728125,8.7886323875L2.836031228125,8.7877206875L2.836539228125,8.7868661875C2.921222728125,8.6442813875,3.076555028125,8.5670861875,3.192639328125,8.4511527875Q3.570687328125,8.0546340875,3.826783928125,7.5704917875C3.930467828125,7.3814763875,3.961277728125,7.2871493875,3.961277728125,7.0711125875Q3.956957328125,5.7821917875,4.466518928125,4.5979504875Q4.747031728125,3.9671103875,5.087178228125,3.6445536875Q5.452013528125,3.2974845875,5.820771228125,3.4334334875Q6.028657928125,3.5142495875,6.257174528125,3.6746410875Q6.420626628125,3.7893650875,6.647191528125,3.9853939875Q7.016195328125,4.2936408875000005,7.306160928125,4.6773900875L7.306318728125,4.6775998875L7.306470428125,4.6778139875Q7.367646228125,4.7645773875,7.457275428125,4.9504575875C7.497258228125,5.0333771875,7.540455828125,5.1135472875,7.587675528125,5.1924619875C7.691769128125,5.1646628875,7.799325428125,5.1490311875,7.906737328125,5.1417111875Q8.281250928125,5.1144594875,8.655841828125,5.1416849875Q8.656056428125,5.1417007875,8.656271028125,5.1417102875C8.780764628125,5.1474337875,8.909864428125,5.1610421875,9.030061728125,5.1956929875Q9.101176228125,5.0764374875,9.157409628125,4.9494676875L9.157504128125,4.9492559875L9.157604228125,4.9490460875Q9.216234228125,4.8264517875,9.290675128125,4.7127461875L9.290900228125,4.7123999875L9.291145328125,4.7120661875Q9.567583128125,4.3341812875,9.926843628125,4.0337593875Q9.927005728125,4.0336238875,9.927164028125,4.0334834875Q10.162468928125,3.8259257875,10.323281828125,3.7098860875Q10.555141828125,3.5425812875,10.768484828125,3.4568712875Q11.139512828125,3.3015682875,11.503977828125,3.6322478875Q11.839812828125,3.9339472875,12.127325828125,4.5605401875Q12.440788828125,5.2537173875,12.565198828125,6.0040135875Q12.648472828125,6.5191411875,12.651704828125,7.0408463875C12.651704828125,7.2479643875,12.677444828125,7.3561491875,12.774873828125,7.5340885875Q13.026994828125,8.018199487499999,13.397914828125,8.4183978875Q13.398057828125,8.4185523875,13.398203828125,8.4187030875C13.514120828125,8.5372838875,13.673528828125,8.6251544875,13.766379828125,8.7601136875L13.766936828125,8.7609223875L13.767389828125,8.7617930875Q13.833571828125,8.8890885875,13.825923828125,9.0323237875Q13.818284828125,9.1753835875,13.739104828125,9.2948102875C13.631034828125,9.4723119875,13.484158828125,9.6140527875,13.317950828125,9.7352380875C13.531825828125,9.9281177875,13.806860828125,9.9725160875,14.034028828125,10.1364707875Q14.158469828125,10.2262849875,14.200806828125,10.3642256875C14.348497828125,10.8445106875,13.862269828125,11.2574286875,13.533469828125,11.5512816875Q13.128197828125,11.9144216875,12.653973828125,12.1816226875C12.004343828125,12.5493536875,11.289596828125,12.8183336875,10.551316828125,12.9890426875C9.009359328125,13.3455786875,7.281300528125,13.3224596875,5.754843728125,12.9091336875ZM12.863226828125,9.9148645875Q12.807792828125,9.8317327875,12.801510828125,9.7320518875Q12.795228828125,9.6323680875,12.839788828125,9.5429534875L12.840274828125,9.5419787875L12.840886828125,9.5410804875C12.950610828125,9.3802833875,13.157542828125,9.2796077875,13.284255828125,9.1246833875L13.284389828125,9.1245193875C13.313645828125,9.0864400875,13.346485828125,9.0385732875,13.353132828125,8.9903316875C13.230569828125,8.8784322875,13.100123828125,8.7932071875,12.989621828125,8.6649865875Q12.624007828125,8.2476753875,12.363019828125,7.7582277875Q12.362907828125,7.7580184875,12.362789828125,7.7578124875Q12.194615828125,7.4635996875,12.188337828125,7.1245278875Q12.189034828125,6.6878804875,12.139292828125,6.2543854875Q12.043810828125,5.5424565875,11.767644828125,4.8794083875Q11.509519828125,4.2740592875,11.208626828125,3.9839074875C11.086146828125,3.8659329875,11.007271828125,3.8351482875,10.854529828125,3.9140433875Q10.447395828125,4.1446666875,10.117867428125,4.4766850875L10.117641428125,4.4769134875L10.117406828125,4.4771322875C9.772110028125,4.7980713875,9.674698828125,5.0628413875,9.418334028125,5.4395718875Q9.338720328125,5.5565690875,9.238307028125,5.6111864875Q9.153652228125,5.6572336875,9.042835228125,5.6534165875C8.920108828125,5.6491870875,8.802886028125,5.6042403875,8.680797528125,5.5949921875Q8.322455428125,5.5711164875,7.964035028125,5.5949968875C7.844782328125,5.6023654875,7.730469228125,5.6446251875,7.611581828125,5.6552862875Q7.513949428125,5.6640405875,7.440292328125,5.6399054875Q7.315928028125,5.5988578875,7.221122728125,5.4727239875C6.962368528125,5.1284598875,6.852739328125,4.8218316875,6.531639128125,4.5140266875L6.531469828125,4.5138644875L6.531305328125,4.5136980875Q6.196365828125,4.1731769875,5.784947828125,3.9302804875C5.648183328125,3.8563844875,5.536650228125,3.8748788875,5.428338028125,3.9720103875Q5.131981828125,4.2487685875,4.866917128125,4.8509444875Q4.589616728125,5.5039319875,4.490087028125,6.2060880875Q4.431730728125,6.6474265875,4.434135428125,7.0926208875Q4.435039528125,7.4314994875,4.273531928125,7.7292813875Q4.014152028125,8.2230386875,3.649317028125,8.6450843875L3.649148028125,8.6452798875L3.648972728125,8.6454696875C3.528075028125,8.7764901875,3.391228228125,8.8853416875,3.257131528125,9.0014819875C3.329947428125,9.2615165875,3.623675828125,9.3276815875,3.763237228125,9.5334682875Q3.811617128125,9.6171712875,3.811617128125,9.7138213875Q3.811617128125,9.8102349875,3.763474928125,9.8937635875C3.586857328125,10.2459582875,3.168513728125,10.3224796875,2.859048328125,10.5118256875C2.851169628125,10.5815856875,2.896183928125,10.6551396875,2.932707028125,10.7102186875Q3.055751528125,10.9011106875,3.225856528125,11.0516946875L3.226007028125,11.0518296875L3.226154328125,11.0519666875Q3.534750228125,11.3393836875,3.713099028125,11.4722436875Q3.949500528125,11.6447886875,4.205048328125001,11.7875246875Q4.938975328125,12.1965086875,5.754436928125,12.3996936875Q7.011232328125,12.7168936875,8.307220428125,12.7439766875Q8.990157128125,12.7202346875,9.667008428125,12.6251596875Q10.723117828125,12.4901906875,11.716797828125,12.1090316875Q12.058598828125,11.9709006875,12.381190828125,11.7926916875Q12.840466828125,11.5371226875,13.185145828125,11.2284426875C13.355081828125,11.0765656875,13.534144828125,10.9125436875,13.661490828125,10.7245676875L13.661651828125,10.7243306875L13.661819828125,10.7240996875C13.680913828125,10.6979856875,13.788352828125,10.5455856875,13.747516828125,10.4940676875C13.540747828125,10.2331685875,13.085003828125,10.2503852875,12.863226828125,9.9148645875ZM10.196031528125,5.8807196875Q10.037285828125,5.7876467875,9.951976728125,5.6244964875L9.951828028125,5.6242107875L9.951690628125,5.6239189875Q9.898139028125,5.5105437875,9.919653928125,5.3870381875Q9.941167828125,5.2635321875,10.029910128125,5.1748876875L10.030123728125,5.1746749875L10.030344928125,5.1744699875Q10.145811128125,5.0675444875,10.282219928125,4.9889802875Q10.423185828125,4.8970422875,10.578725828125,4.8326902875Q10.751578828125,4.7594122875,10.939492828125,4.7594122875Q11.127405828125,4.7594122875,11.300385828125,4.8327445875Q11.504690828125,4.9210672875,11.612178828125,5.1290988875Q11.719666828125,5.3371309875,11.730337828125,5.6648730875Q11.734109828125,5.8770823875,11.702672828125,6.0867318875Q11.695531828125,6.2258581875,11.633772828125,6.3507895875L11.633415828125,6.3515152875L11.632984828125,6.3522009875Q11.513659828125,6.5422458875,11.268017828125,6.4750327875C10.978249828125,6.3957452875,10.466397828125,6.0438971875,10.196031528125,5.8807196875ZM6.497303928125,5.8080629875Q6.735555628125,5.6024875875,6.678234128125,5.3600849875Q6.655791328125,5.2649640875,6.579974628125,5.1840223875Q6.530338728125,5.1310324875,6.426949928125,5.0577425875Q6.314261428125,4.9768390875,6.192513928125,4.9102854875Q5.866485628125,4.7193503875,5.491926228125,4.7713489875Q5.341227028125,4.7941584875,5.214264828125,4.8783955875Q5.087302728125,4.9626321875,5.007824428125,5.0925411875L5.007585528125,5.0929312875L5.007370028125,5.0933346875Q4.889679928125,5.3131088875,4.876058128125,5.5622386875Q4.868418728125,5.7620620875,4.900300028125,5.9594735875Q4.911647828125,6.1129679875,4.949005128125,6.2622942875L4.949050428125,6.2624749875L4.949100028125,6.2626542875Q4.975208728125,6.3575224875,5.052344328125,6.4187073875Q5.129479928125,6.4798922875,5.227901028125,6.4838046875L5.228387828125,6.4838232875L5.228874228125,6.4838127875Q5.424894328125,6.4796628875,5.582852828125,6.3637160875C5.874244728125,6.1695580875,6.235495528125,6.0339645875,6.497303928125,5.8080629875ZM5.361398728125,5.9599556875C5.629820828125,5.7754830875,5.957279728125,5.6607160875,6.203624728125,5.4529285875C5.633965528125,5.0455712875,5.292782328125,5.2576765875,5.361398728125,5.9599556875ZM6.185184928125,9.2671336875Q6.029375028125,8.9765672875,6.029375028125,8.5666284875Q6.029375028125,8.156692487499999,6.185184928125,7.8661250875Q6.343615528125,7.5706719875,6.570844628125,7.5706719875Q6.798073728125,7.5706719875,6.956504328125,7.8661250875Q7.112314728125,8.156692487499999,7.112314728125,8.5666284875Q7.112314728125,8.9765672875,6.956504328125,9.2671336875Q6.798073728125,9.5625867875,6.570844628125,9.5625867875Q6.343615528125,9.5625867875,6.185184928125,9.2671336875ZM9.657326728125,9.2671336875Q9.501517328125,8.9765662875,9.501517328125,8.5666284875Q9.501517328125,8.1566929875,9.657326728125,7.8661250875Q9.815757728125,7.5706719875,10.042985928125,7.5706719875Q10.270216028125,7.5706719875,10.428646828125,7.8661250875Q10.584456828125,8.156692487499999,10.584456828125,8.5666284875Q10.584456828125,8.9765672875,10.428646828125,9.2671336875Q10.270216028125,9.5625867875,10.042985928125,9.5625867875Q9.815757728125,9.5625867875,9.657326728125,9.2671336875ZM11.248340828125,5.9638132875C11.331370828125,5.2214116875,10.981245828125,5.0596942875,10.407291828125,5.4608025875C10.655220828125,5.6645731875,10.980120828125,5.7865481875,11.248340828125,5.9638132875Z" fill-rule="evenodd" fill="#05C3DE" fill-opacity="1"/><path d="M0.02665215812499999,7.6459512875Q0.10813638812500001,6.6189989875,0.43368990812499997,5.6459364875Q0.7646674181249999,4.6566619875,1.326756328125,3.7871272875Q1.906128728125,2.8908557875,2.697967028125,2.1737840875Q3.521759728125,1.4277740875,4.536098528125,0.9121476975Q5.550415028125,0.3965293395,6.639031928125,0.1703726475Q7.685390428125,-0.047005142499999986,8.751716628125,0.012642947500000001Q9.786217728125,0.0705107475,10.781611828125,0.3854589985Q11.760697828125,0.6952471175,12.639751828125,1.2338240775Q13.518826828125,1.7724105875,14.239071828125,2.5037724875Q14.971335828125,3.2473346875,15.491909828125,4.1422755875Q16.028507828125,5.0647616875,16.308816828125,6.0950460875Q16.600442828125,7.1669420875,16.600047828125,8.3039350875Q16.597604828125,8.9579381875,16.497039828125,9.6031007875L16.496873828125,9.6041555875L16.496316828125,9.6076411875Q16.317258828125,10.7285326875,15.860949828125,11.7395756875Q15.421675828125,12.7128766875,14.746307828125,13.5394046875Q14.091120828125,14.3412386875,13.250742828125,14.9602986875Q12.424166828125,15.5691936875,11.471150828125,15.9627336875Q10.518150828125,16.3562676875,9.502446128125,16.5081366875Q8.469820028125,16.6625326875,7.439106928125,16.5569056875Q6.376685628125,16.4480326875,5.377660728125,16.0687256875Q4.338288328125,15.6740996875,3.417932028125,15.0053116875Q2.497560228125,14.3365116875,1.801682828125,13.4701786875Q1.132795448125,12.6374476875,0.7019947181249999,11.6611966875Q0.284043884125,10.7140656875,0.113205388125,9.6850509875Q-0.054832281875,8.6729077875,0.02665215812499999,7.6459512875ZM15.587508828125,11.6161646875Q16.028020828125,10.6401256875,16.200609828125,9.5569495875L16.200618828125002,9.5568961875Q16.297691828125,8.9341449875,16.300046828124998,8.3038301875Q16.300428828125,7.2069720875,16.019339828125,6.1738037875Q15.749375828125,5.1815437875,15.232591828125,4.2931182875000005Q14.731039828125,3.4308814875,14.025321828125,2.7142738875Q13.330818828125,2.0090523874999997,12.483024828125,1.4896300875Q11.635236828125,0.9702096575,10.691111828125,0.6714831575Q9.731739028125,0.3679323345,8.734961528125,0.3121746795Q7.707903828125,0.2547231655,6.700052728125,0.46410107749999996Q5.650654328125,0.6821102775,4.672043328125,1.1795780675Q3.693429728125,1.6770439875,2.899340828125,2.3961546875Q2.136692928125,3.0867921875,1.578700228125,3.9499899875Q1.0371584281250001,4.7877387875,0.718189508125,5.7411198875Q0.404290948125,6.6793460875,0.325712249125,7.6696800875Q0.247133598125,8.6600141875,0.409154458125,9.6359166875Q0.573792638125,10.6275856875,0.976459558125,11.5400796875Q1.391356128125,12.4802906875,2.035572728125,13.2823076875Q2.706345128125,14.1173856875,3.594286728125,14.7626206875Q4.482228728125,15.4078556875,5.484146628125,15.7882606875Q6.446397828125,16.153603687500002,7.469690328125,16.2584686875Q8.462820028125,16.3602426875,9.458083128125,16.211434687500002Q10.437525828125,16.064988687499998,11.356647828125,15.6854446875Q12.275766828125,15.3059036875,13.072815828125,14.7187596875Q13.882738828125,14.1221326875,14.513998828125,13.3495826875Q15.164438828125,12.5535596875,15.587508828125,11.6161646875ZM0.796052338125,8.8398828875Q0.7135274381250001,7.6864132875,0.980750438125,6.5632633875Q1.253984808125,5.4148468875,1.868895928125,4.4022497875Q2.516371928125,3.3316120875,3.471762928125,2.5308518875Q4.403985028125,1.7495103875,5.537691128125,1.3006730875Q6.671397728125,0.8518356675,7.886379228125,0.7830924375Q9.131559328125,0.7126406475,10.337529828125,1.0494911675Q11.543378828125,1.3863101875,12.571278828125,2.0915995875Q13.574247828125,2.7797834875,14.310415828125,3.7507774875Q15.046582828125,4.7217697875,15.437901828125,5.8726238875Q15.838943828125,7.0520739875,15.836683828125,8.3027209875L15.836680828125,8.3040608875Q15.837278828125,9.4820575875,15.478799828125,10.6003246875Q15.128138828125,11.6942066875,14.465333828125,12.6351586875Q13.802529828125,13.5761116875,12.890188828125,14.2752486875Q11.957508828125,14.9899706875,10.847272828125,15.3872706875Q9.737001428125,15.7845846875,8.562097528125,15.8240416875Q7.412817028125,15.8626386875,6.302573728125,15.5561336875Q5.192327528125,15.2496296875,4.226014828125,14.6269846875Q3.238153928125,13.9904536875,2.489733428125,13.0800146875Q1.736930028125,12.1650666875,1.302979928125,11.0671306875Q0.878577348125,9.9933509875,0.796052338125,8.8398828875ZM1.095287498125,8.8184737875Q1.016053018125,7.7109956875,1.2726036281250002,6.6327018875Q1.534911128125,5.5302118875,2.125603528125,4.5574955875Q2.747283428125,3.5295128875,3.664471128125,2.7607726875Q4.559517828125,2.0105899875,5.648122828125,1.5796084875Q6.736751128125,1.1486178675,7.903325528125,1.0826134075Q9.098802528125,1.0149738775000001,10.256823528125,1.3384312875Q11.414709828125,1.6618531875,12.401547828125,2.3389684875Q13.364503828125,2.9996971875,14.071354828125,3.9320237875Q14.778185828125,4.8643211875,15.153871828125,5.9692015875Q15.538853828125,7.1014189875,15.536684828125,8.3020381875L15.536680828125,8.3042134875Q15.537254828125,9.4352244875,15.193119828125,10.5087456875Q14.856463828125,11.5589426875,14.220071828125,12.4623976875Q13.583666828125,13.3658746875,12.707712828125,14.0371266875Q11.812264828125,14.7233186875,10.746194828125,15.1048126875Q9.680069928125,15.4863276875,8.552027728125,15.5242106875Q7.448515428125,15.5612716875,6.382407628125,15.2669516875Q5.316315628125,14.9726376875,4.388509228125,14.3748036875Q3.440098528125,13.7636916875,2.721397428125,12.8894056875Q1.998580928125,12.0109036875,1.581978428125,10.9568596875Q1.1745223981250001,9.9259557875,1.095287498125,8.8184737875ZM3.294607128125,12.1032726875Q4.2627294281250006,12.8159076875,5.676434528125,13.1987066875Q8.117553728125,13.8597016875,10.618900828125,13.2813306875Q11.804552828125,13.0071786875,12.801239828125,12.4429896875Q13.304000828125,12.1597096875,13.733381828125,11.7749676875Q13.744134828125,11.7653576875,13.765720828125,11.7461116875Q14.150128828125,11.4033726875,14.305973828125,11.1793946875Q14.624548828125,10.7215456875,14.487601828125,10.2762021875Q14.415712828125,10.0419702875,14.209597828125,9.8932103875Q14.083388828125,9.8021220875,13.834095828125,9.6909970875Q13.827567828125,9.6880874875,13.821042828125,9.6851482875Q13.919132828125,9.5749988875,13.992467828125,9.4555329875Q14.113658828125,9.2699985875,14.125497828125,9.0483159875Q14.137507828125,8.8233356875,14.033540828125,8.6233586875L14.024530828125,8.6060371875L14.013536828125,8.5900716875Q13.932220828125,8.4718808875,13.736517828125,8.3153552875Q13.648525828125,8.2449783875,13.615138828125,8.2114376875Q13.273476828125,7.8419999875,13.038011828125,7.3900107875Q12.951704828125,7.2323846875,12.951697828125,7.0389875875Q12.948322828125,6.4941229875,12.861158828125,5.9549388875Q12.730322828125,5.1658935875,12.399992828125,4.4354266875Q12.086550828125,3.7523262875,11.705561828125,3.4100682875Q11.199741828125,2.9511372875,10.656649828125,3.1784960875Q10.409309828125,3.2778637875,10.147737528125,3.4666084875Q9.976317428125,3.5903017875,9.731560728125,3.8059930875Q9.345971128125,4.1290080875,9.049267728125,4.5345973875L9.044028328125,4.5417384875L9.039681428125,4.5484237875Q8.954249428125,4.6789178875,8.886764528125,4.8200277875L8.885138528125,4.8234419875L8.883108128125,4.8279833875Q8.876260728125,4.8434433875,8.869157828125,4.8587779875Q8.777338028125,4.8471150875,8.673882528125,4.8422064875Q8.279391728124999,4.8138017875,7.886341128125,4.8424057875Q7.814024428125,4.8473338875,7.745324128125,4.8564409875Q7.736283328125,4.8383712875,7.727500928125,4.8201579875Q7.627107128125,4.6119532875,7.551148928125,4.5042276875L7.548549128125,4.5005626875L7.545514628125,4.4965319875Q7.234862828125,4.0854041875,6.843483928125,3.7585250875Q6.605421528125,3.5525486875,6.429523028125,3.4290885875Q6.171246528125,3.2478088875,5.924543828125,3.1519531875Q5.380553728125,2.9514014875,4.880749228125,3.4268679875Q4.497209028125,3.7905747875,4.190946628124999,4.4793753875Q3.656749728125,5.7208704875,3.661277728125,7.0711130875Q3.661277728125,7.2484321875,3.561599028125,7.4302172875Q3.325906228125,7.8757872875,2.978441728125,8.2410602875Q2.948279828125,8.2705664875,2.870498228125,8.3312682875Q2.661191728125,8.4946126875,2.578683828125,8.6335343875L2.568540828125,8.6505918875L2.560640528125,8.6687211875Q2.472576428125,8.8706798875,2.495143928125,9.0898198875Q2.528564228125,9.4143342875,2.782403028125,9.6927337875Q2.533778228125,9.8067302875,2.407917028125,9.8997926875Q2.195234328125,10.0570497875,2.127859928125,10.3053296875Q1.963309528125,10.9065886875,2.694166928125,11.5929036875Q2.978118628125,11.8640866875,3.294607128125,12.1032726875ZM14.034028828125,10.1364707875C13.894411828125,10.0357045875,13.736714828125,9.9800986875,13.586248828125,9.9074277875C13.491892828125,9.8618564875,13.400378828125,9.8095750875,13.317950828125,9.7352380875C13.400652828125,9.6749381875,13.478567828125,9.6095504875,13.549297828125,9.5371989875C13.620715828125,9.4641437875,13.684808828125,9.3839902875,13.739104828125,9.2948102875Q13.818284828125,9.1753835875,13.825923828125,9.0323237875Q13.833571828125,8.8890885875,13.767389828125,8.7617930875L13.766936828125,8.7609223875L13.766379828125,8.7601136875C13.673528828125,8.6251544875,13.514120828125,8.5372838875,13.398203828125,8.4187030875L13.397914828125,8.4183978875Q13.026994828125,8.018199487499999,12.774873828125,7.5340885875C12.677444828125,7.3561491875,12.651704828125,7.2479643875,12.651704828125,7.0408463875Q12.648472828125,6.5191411875,12.565198828125,6.0040135875Q12.440788828125,5.2537173875,12.127325828125,4.5605401875Q11.839812828125,3.9339472875,11.503977828125,3.6322478875Q11.139512828125,3.3015682875,10.768484828125,3.4568712875Q10.555141828125,3.5425812875,10.323281828125,3.7098860875Q10.162468928125,3.8259257875,9.927164028125,4.0334834875L9.926843628125,4.0337593875Q9.567583128125,4.3341812875,9.291145328125,4.7120661875L9.290900228125,4.7123999875L9.290675128125,4.7127461875Q9.216234228125,4.8264517875,9.157604228125,4.9490460875L9.157504128125,4.9492559875L9.157409628125,4.9494676875Q9.101176228125,5.0764374875,9.030061728125,5.1956929875C8.909864428125,5.1610421875,8.780764628125,5.1474337875,8.656271028125,5.1417102875L8.655841828125,5.1416849875Q8.281250928125,5.1144594875,7.906737328125,5.1417111875C7.799325428125,5.1490311875,7.691769128125,5.1646628875,7.587675528125,5.1924619875C7.540455828125,5.1135472875,7.497258228125,5.0333771875,7.457275428125,4.9504575875Q7.367646228125,4.7645773875,7.306470428125,4.6778139875L7.306318728125,4.6775998875L7.306160928125,4.6773900875Q7.016195328125,4.2936408875000005,6.647191528125,3.9853939875Q6.420626628125,3.7893650875,6.257174528125,3.6746410875Q6.028657928125,3.5142495875,5.820771228125,3.4334334875Q5.452013528125,3.2974845875,5.087178228125,3.6445536875Q4.747031728125,3.9671103875,4.466518928125,4.5979504875Q3.956957328125,5.7821917875,3.961277728125,7.0711125875C3.961277728125,7.2871493875,3.930467828125,7.3814763875,3.826783928125,7.5704917875Q3.570687328125,8.0546340875,3.192639328125,8.4511527875C3.076555028125,8.5670861875,2.921222728125,8.6442813875,2.836539228125,8.7868661875L2.836031228125,8.7877206875L2.835633728125,8.7886323875Q2.779071828125,8.9183463875,2.793565528125,9.0590867875C2.811964228125,9.2377385875,2.925450828125,9.4067592875,3.062122328125,9.5436839875C3.138345728125,9.6200484875,3.221780328125,9.6864299875,3.299953228125,9.7389325875C3.214550228125,9.8123426875,3.120674828125,9.8646010875,3.024611928125,9.9110040875C2.875976128125,9.9828023875,2.722103328125,10.0405835875,2.586276028125,10.1410150875Q2.457449928125,10.2362689875,2.417219128125,10.3845196875Q2.300350628125,10.8115516875,2.901365028125,11.3759496875Q3.172810328125,11.6351886875,3.472450728125,11.8616696875C4.1005957281250005,12.3240476875,4.905200928125,12.6790706875,5.754843728125,12.9091336875C7.281300528125,13.3224596875,9.009359328125,13.3455786875,10.551316828125,12.9890426875C11.289596828125,12.8183336875,12.004343828125,12.5493536875,12.653973828125,12.1816226875Q13.128197828125,11.9144216875,13.533469828125,11.5512816875C13.544179828125,11.5417096875,13.555057828125,11.5320116875,13.566074828125,11.5221886875C13.893273828125,11.2304576875,14.343685828125,10.8288656875,14.200806828125,10.3642256875Q14.158469828125,10.2262849875,14.034028828125,10.1364707875ZM12.839788828125,9.5429534875L12.840274828125,9.5419787875L12.840886828125,9.5410804875C12.950610828125,9.3802833875,13.157542828125,9.2796077875,13.284255828125,9.1246833875L13.284389828125,9.1245193875C13.313645828125,9.0864400875,13.346485828125,9.0385732875,13.353132828125,8.9903316875C13.230569828125,8.8784322875,13.100123828125,8.7932071875,12.989621828125,8.6649865875Q12.624007828125,8.2476753875,12.363019828125,7.7582277875L12.362789828125,7.7578124875Q12.194615828125,7.4635996875,12.188337828125,7.1245278875Q12.189034828125,6.6878804875,12.139292828125,6.2543854875Q12.100110828125,5.9622392875,12.030504828125,5.6783318875Q11.930486828125,5.2703747875,11.767644828125,4.8794083875Q11.741742828125,4.8186635875,11.715408828125,4.7610907875Q11.479324828125,4.244942887500001,11.208626828125,3.9839074875C11.086146828125,3.8659329875,11.007271828125,3.8351482875,10.854529828125,3.9140433875Q10.447395828125,4.1446666875,10.117867428125,4.4766850875L10.117641428125,4.4769134875L10.117406828125,4.4771322875C9.772110028125,4.7980713875,9.674698828125,5.0628413875,9.418334028125,5.4395718875Q9.338720328125,5.5565690875,9.238307028125,5.6111864875Q9.153652228125,5.6572336875,9.042835228125,5.6534165875C8.920108828125,5.6491870875,8.802886028125,5.6042403875,8.680797528125,5.5949921875Q8.322455428125,5.5711164875,7.964035028125,5.5949968875C7.844782328125,5.6023654875,7.730469228125,5.6446251875,7.611581828125,5.6552862875Q7.513949428125,5.6640405875,7.440292328125,5.6399054875Q7.315928028125,5.5988578875,7.221122728125,5.4727239875C6.962368528125,5.1284598875,6.852739328125,4.8218316875,6.531639128125,4.5140266875L6.531469828125,4.5138644875L6.531305328125,4.5136980875Q6.196365828125,4.1731769875,5.784947828125,3.9302804875C5.648183328125,3.8563844875,5.536650228125,3.8748788875,5.428338028125,3.9720103875Q5.163682928125,4.2191636875,4.923983528125,4.7258371875Q4.895274128125,4.7865223875,4.866917128125,4.8509444875Q4.682697728125,5.2847447875,4.576934828125,5.7402462875Q4.523495628125,5.9703988875,4.490087028125,6.2060880875Q4.431730728125,6.6474265875,4.434135428125,7.0926208875Q4.435039528125,7.4314994875,4.273531928125,7.7292813875Q4.014152028125,8.2230386875,3.649317028125,8.6450843875L3.649148028125,8.6452798875L3.648972728125,8.6454696875C3.528075028125,8.7764901875,3.391228228125,8.8853416875,3.257131528125,9.0014819875C3.329947428125,9.2615165875,3.623675828125,9.3276815875,3.763237228125,9.5334682875Q3.811617128125,9.6171712875,3.811617128125,9.7138213875Q3.811617128125,9.8102349875,3.763474928125,9.8937635875C3.586857328125,10.2459582875,3.168513728125,10.3224796875,2.859048328125,10.5118256875C2.851169628125,10.5815856875,2.896183928125,10.6551396875,2.932707028125,10.7102186875Q3.055751528125,10.9011106875,3.225856528125,11.0516946875L3.226007028125,11.0518296875L3.226154328125,11.0519666875Q3.534750228125,11.3393836875,3.713099028125,11.4722436875Q3.949500528125,11.6447886875,4.205048328125001,11.7875246875Q4.938975328125,12.1965086875,5.754436928125,12.3996936875Q7.011232328125,12.7168936875,8.307220428125,12.7439766875Q8.990157128125,12.7202346875,9.667008428125,12.6251596875Q10.723117828125,12.4901906875,11.716797828125,12.1090316875Q12.058598828125,11.9709006875,12.381190828125,11.7926916875Q12.840466828125,11.5371226875,13.185145828125,11.2284426875C13.355081828125,11.0765656875,13.534144828125,10.9125436875,13.661490828125,10.7245676875L13.661651828125,10.7243306875L13.661819828125,10.7240996875C13.680913828125,10.6979856875,13.788352828125,10.5455856875,13.747516828125,10.4940676875C13.540747828125,10.2331685875,13.085003828125,10.2503852875,12.863226828125,9.9148645875Q12.807792828125,9.8317327875,12.801510828125,9.7320518875Q12.795228828125,9.6323680875,12.839788828125,9.5429534875ZM11.000384828125,4.1998588875Q11.119964828125,4.3151707875,11.234393828125,4.4952106875Q11.090587828125,4.4594125875,10.939492828125,4.4594125875Q10.697511828125,4.4594125875,10.476611828125,4.5502276875Q10.480923828125,4.5464086875,10.485427828125,4.5424503875Q10.716429828125,4.3394264875,10.984746828125,4.185144187500001Q10.991989828125,4.1917729875,11.000384828125,4.1998588875ZM5.717440128125,4.2405056875Q5.936527728125,4.3787021875,6.131141628125,4.5485524875Q5.808226628125,4.4245609875,5.450674028125,4.4741987875Q5.447583228125,4.4746660875,5.444499928125,4.4751510875Q5.420385828125,4.4789423875,5.396730428125,4.4837917875Q5.397682228125,4.4823093875,5.398634428125,4.4808315875Q5.512903728125,4.3034677875,5.628629228125,4.1953563875Q5.633762328125,4.1907529875,5.640248728125,4.1932479874999995Q5.642231428125,4.1944255875,5.644211728125,4.1956054875Q5.661849028125,4.2061142875,5.679356528125,4.2168354875Q5.698484928125,4.2285492875,5.717440128125,4.2405056875ZM11.702672828125,6.0867318875Q11.730383828125,5.9019302875,11.730737828125,5.7151417875Q11.730785828125,5.6900310875,11.730337828125,5.6648730875Q11.719666828125,5.3371309875,11.612178828125,5.1290988875Q11.553476828125,5.0154871875,11.465898828125,4.9375791875Q11.393113828125,4.8728317875,11.300385828125,4.8327445875Q11.127405828125,4.7594122875,10.939492828125,4.7594122875Q10.751578828125,4.7594122875,10.578725828125,4.8326902875Q10.423185828125,4.8970422875,10.282219928125,4.9889802875Q10.145811128125,5.0675444875,10.030344928125,5.1744699875L10.030123728125,5.1746749875L10.029910128125,5.1748876875Q9.941167828125,5.2635321875,9.919653928125,5.3870381875Q9.915032428125,5.4135670875,9.913874628125,5.4396280875L9.913723028125,5.4434671875Q9.910490028125,5.5366916875,9.951690628125,5.6239189875L9.951828028125,5.6242107875L9.951976728125,5.6244964875Q10.037285828125,5.7876467875,10.196031528125,5.8807196875C10.466397828125,6.0438971875,10.978249828125,6.3957452875,11.268017828125,6.4750327875Q11.390866828125,6.5086469875,11.482122828125,6.4779171875Q11.487704828125,6.4760374875,11.493159828125,6.4739203875Q11.576983828125,6.4413923875,11.632984828125,6.3522009875L11.633415828125,6.3515152875L11.633772828125,6.3507895875Q11.695531828125,6.2258581875,11.702672828125,6.0867318875ZM5.007824428125,5.0925411875Q5.072471128125,4.9868750875,5.168532328125,4.9114255875Q5.190570328125,4.8941163875,5.214264828125,4.8783955875Q5.341227028125,4.7941584875,5.491926228125,4.7713489875Q5.866485628125,4.7193503875,6.192513928125,4.9102854875Q6.314261428125,4.9768390875,6.426949928125,5.0577425875Q6.530338728125,5.1310324875,6.579974628125,5.1840223875Q6.655791328125,5.2649640875,6.678234128125,5.3600849875Q6.686715128125,5.3959502875,6.688725928125,5.4310078875L6.688980128125,5.4360088875Q6.697789228125,5.6350741875,6.497303928125,5.8080629875C6.235495528125,6.0339645875,5.874244728125,6.1695580875,5.582852828125,6.3637160875Q5.424894328125,6.4796628875,5.228874228125,6.4838127875L5.228387828125,6.4838232875L5.227901028125,6.4838046875Q5.186311228125,6.4821514875,5.148521928125,6.4702710875Q5.127819528125,6.4637627875,5.108259228125,6.4541854875Q5.079028628125,6.4398736875,5.052344328125,6.4187073875Q4.975208728125,6.3575224875,4.949100028125,6.2626542875L4.949050428125,6.2624749875L4.949005128125,6.2622942875Q4.911647828125,6.1129679875,4.900300028125,5.9594735875Q4.884844828125,5.8637752875,4.878677328125,5.7675122875Q4.872121828125,5.6651968875,4.876058128125,5.5622386875Q4.889679928125,5.3131088875,5.007370028125,5.0933346875L5.007585528125,5.0929312875L5.007824428125,5.0925411875ZM5.361398728125,5.9599556875C5.452691528125,5.8972148875,5.550813628125,5.8425373875,5.650250928125,5.7895207875C5.746473828125,5.7382177875,5.843928328125,5.6884703875,5.937618228125,5.6344775875C6.031780228125,5.5802125875,6.122139928125,5.5216593875,6.203624728125,5.4529285875C6.100524428125,5.3792023875,6.004907628125,5.3257674875,5.917850028125,5.2918572875C5.618289428125,5.1751737875,5.420067328125,5.2896642875,5.366979128125,5.6041020875C5.350249728125,5.7031898875,5.347932828125,5.8221335875,5.361398728125,5.9599556875ZM11.248340828125,5.9638132875C11.263486828125,5.8283853875,11.264218828125,5.7122811875,11.251807828125,5.6153912875C11.208423828125,5.2766942875,11.004431828125,5.1727981875,10.694108828125,5.2990722875C10.606559828125,5.3346972875,10.510547828125,5.3886417875,10.407291828125,5.4608025875C10.489808828125,5.5286230875,10.580853828125,5.5873827875,10.675495828125,5.6421355875C10.769129828125,5.6963047875,10.866285828125,5.7465524875,10.962193828125,5.7977723875C11.060609828125,5.8503322875,11.157710828125,5.9039163875,11.248340828125,5.9638132875ZM12.902402828125,9.0696982875Q12.924156828125,9.0522813875,12.943063828125,9.0365905875Q12.827631828125,8.9365605875,12.762369828125,8.8608340875Q12.399740828125,8.4469451875,12.133389828125,7.9640726875Q12.116612828125,7.9336571875,12.100236828125,7.9030055875Q11.896050828125,7.5438828875,11.888389828125,7.1300806875Q11.888813828125,6.8377093875,11.866372828125,6.5496062875Q11.866145828125,6.5466885875,11.865915828125,6.5437712875Q11.629298828125,6.8849148875,11.188841828125,6.7643961875Q10.917912828125,6.6902632875,10.238163028125,6.2606029875Q10.114006028125,6.1821255875,10.056185728125,6.1467847875Q10.048826228125,6.1422862875,10.042481428125,6.1384510875L10.042453728125,6.1384343875L10.042425128125,6.1384176875Q9.810809128125,6.0019559875,9.686126728125,5.7635054875L9.682951928125,5.7574095875L9.680245428125,5.7516579875Q9.656752628125,5.7019204875,9.641501428125,5.6510457875Q9.640671728125,5.6482786875,9.639866828125,5.6455077875Q9.528172528125,5.7950286875,9.381652828125,5.8747243875Q9.225111928125,5.9598736875,9.032507928125,5.9532389875Q8.940259028125,5.9500593875,8.786345528125,5.9167532875Q8.694576228125,5.8968953875,8.658137328125,5.8941349875Q8.322455428125,5.8717817875,7.983979228125,5.8943333875Q7.943213928125,5.8968557875,7.843537328125,5.9187903875Q7.713920628125,5.9473127875,7.638376728125,5.9540876875Q7.479227528125,5.9683575875,7.346879528125,5.9249915875Q7.132609828125,5.8542704875,6.981309428125,5.6529731875Q6.974542128125,5.6439690875,6.967577428125,5.6345100875Q6.907591328125,5.8502869875,6.693287828125,6.0351981875Q6.511165628125,6.1923422875,6.097262828125,6.4135527875Q5.884266828125,6.5273885875,5.777530628125,6.5949978875Q5.765088528125,6.6028790875,5.754068828125,6.6101464875Q5.522105228125,6.7776727875,5.235460728125,6.7837404875L5.225923028125,6.7839502875L5.215985328125,6.7835678875Q5.019743428125,6.7757668875,4.865911028125,6.6537451875Q4.803374728125,6.6041411875,4.757658028125,6.5434927875Q4.756604228125,6.5420951875,4.755559428125,6.5406913875Q4.732637428125,6.8144797875,4.734130828125,7.0910005875Q4.735242328125,7.5072426875,4.537242428125,7.8723091875Q4.263683828125,8.3931140875,3.876273428125,8.8412751875L3.872820328125,8.8452586875L3.869566428125,8.8487882875Q3.795567528125,8.9289836875,3.666179928125,9.0444583875Q3.665192828125,9.0453395875,3.664201028125,9.0462216875Q3.686421628125,9.0635833875,3.712757628125,9.0827054875Q3.924075328125,9.2361383875,4.0115246281250005,9.3650846875L4.017576728125,9.3740071875L4.022972628125,9.3833427875Q4.111617328125,9.5367087875,4.111617328125,9.7138213875Q4.111617328125,9.8684148875,4.044071928125,10.0049333875Q4.036343128125,10.0205545875,4.0277257281250005,10.0359458875Q3.853392328125,10.3736236875,3.278203228125,10.6360656875Q3.269433028125,10.6400666875,3.260923128125,10.6439766875Q3.258057628125,10.6452926875,3.255231128125,10.6465936875Q3.331876228125,10.7448886875,3.424708128125,10.8270666875L3.425738528125,10.8279826875L3.430768728125,10.8325746875Q3.727170728125,11.1086346875,3.892318728125,11.2316606875Q4.111671928125,11.3917456875,4.351339328125,11.5256106875Q5.050189528125,11.9150476875,5.826968628125,12.1085936875Q6.975050428125,12.3983546875,8.155896628125,12.4396416875Q8.230430128125,12.4422486875,8.305143328125,12.4438646875Q8.968148228125,12.4203816875,9.625277528125,12.3280766875Q10.649332828125,12.1971796875,11.609355828125,11.8289316875Q11.929396828125,11.6995426875,12.236125828125,11.5300966875Q12.665300828125,11.2912766875,12.985005828125,11.0049616875Q13.260387828125,10.7588426875,13.381624828125,10.5999306875Q13.383797828125,10.5970826875,13.385922828125,10.5942606875Q13.324982828125,10.5631426875,13.237230828125,10.5267096875Q12.840239828125,10.3618836875,12.660025828125,10.1437120875Q12.634682828125,10.1130313875,12.613630828125,10.0813026875L12.612957828125,10.0802907875Q12.513420828125,9.9304751875,12.502104828125,9.7509212875Q12.490749828125,9.5707435875,12.571283828125,9.4091434875L12.580914828125,9.3898229875L12.593067828125,9.3720082875Q12.677802828125,9.2478313875,12.888335828125,9.0809049875Q12.895483828125,9.0752381875,12.902402828125,9.0696982875ZM5.729375328125,8.5666284875Q5.729375328125,9.0519256875,5.920797328125,9.4089059875Q6.164075328125,9.8625869875,6.570845128125,9.8625869875Q6.977614928125,9.8625869875,7.220891428125,9.4089068875Q7.412314928125,9.0519275875,7.412314928125,8.5666284875Q7.412314928125,8.0813331875,7.220891428125,7.7243537875Q6.977614928125,7.2706718875,6.570844628125,7.2706718875Q6.164074928125,7.2706718875,5.920797328125,7.7243537875Q5.729375328125,8.0813340875,5.729375328125,8.5666284875ZM9.201518028125,8.5666284875Q9.201518028125,9.0519246875,9.392938628125,9.4089049875Q9.636218028125,9.8625869875,10.042985928125,9.8625869875Q10.449757828125,9.8625869875,10.693033828125,9.4089059875Q10.884456828125,9.0519256875,10.884456828125,8.5666284875Q10.884456828125,8.0813340875,10.693033828125,7.7243537875Q10.449757828125,7.2706718875,10.042985928125,7.2706718875Q9.636217128125,7.2706718875,9.392938628125,7.7243547875Q9.201518028125,8.081334587499999,9.201518028125,8.5666284875ZM6.029375028125,8.5666284875Q6.029375028125,8.9765672875,6.185184928125,9.2671336875Q6.343615528125,9.5625867875,6.570844628125,9.5625867875Q6.798073728125,9.5625867875,6.956504328125,9.2671336875Q7.112314728125,8.9765672875,7.112314728125,8.5666284875Q7.112314728125,8.156692487499999,6.956504328125,7.8661250875Q6.798073728125,7.5706719875,6.570844628125,7.5706719875Q6.343615528125,7.5706719875,6.185184928125,7.8661250875Q6.029375028125,8.156692487499999,6.029375028125,8.5666284875ZM9.501517328125,8.5666284875Q9.501517328125,8.9765662875,9.657326728125,9.2671336875Q9.815757728125,9.5625867875,10.042985928125,9.5625867875Q10.270216028125,9.5625867875,10.428646828125,9.2671336875Q10.584456828125,8.9765672875,10.584456828125,8.5666284875Q10.584456828125,8.156692487499999,10.428646828125,7.8661250875Q10.270216028125,7.5706719875,10.042985928125,7.5706719875Q9.815757728125,7.5706719875,9.657326728125,7.8661250875Q9.501517328125,8.1566929875,9.501517328125,8.5666284875Z" fill-rule="evenodd" fill="#05C3DE" fill-opacity="1"/></svg>