<svg xmlns="http://www.w3.org/2000/svg" xmlns:xlink="http://www.w3.org/1999/xlink" fill="none" version="1.1" width="32" height="32" viewBox="0 0 32 32"><defs><clipPath id="master_svg0_279_39357"><rect x="0" y="0" width="32" height="32" rx="0"/></clipPath></defs><g clip-path="url(#master_svg0_279_39357)"><path d="M16.7635498046875,17.988649460937502L21.4302198046875,22.6553154609375L23.6079978046875,20.4775374609375L19.8746628046875,16.7442034609375L19.8746628046875,10.2108702609375L16.7635498046875,10.2108702609375L16.7635498046875,17.988649460937502ZM2.7635498046875,7.0997588609375L8.2079940046875,12.5442037609375L9.2968826046875,13.6330909609375C10.5413270046875,9.8997588609375,14.1191058046875,7.0997588609375,18.3191038046875,7.0997588609375C23.4524398046875,7.0997588609375,27.6524408046875,11.299758960937499,27.6524408046875,16.4330934609375C27.6524408046875,21.5664274609375,23.4524398046875,25.7664264609375,18.3191038046875,25.7664264609375C13.6524378046875,25.7664264609375,9.763549304687501,22.3442034609375,9.1413274046875,17.833093460937498L6.0302160046874995,14.7219824609375C5.874660504687499,15.3442044609375,5.874660504687499,15.8108704609375,5.874660504687499,16.4330934609375C5.874660504687499,23.2775344609375,11.4746609046875,28.8775384609375,18.3191038046875,28.8775384609375C25.1635498046875,28.8775384609375,30.7635538046875,23.2775404609375,30.7635538046875,16.4330934609375C30.7635538046875,9.5886459609375,25.1635518046875,3.9886474609375,18.3191038046875,3.9886474609375C14.4302168046875,3.98864801724756,11.0079946046875,5.8553146609375,8.6746612046875,8.6553144609375L7.1191053046875,7.0997586609375L2.7635498046875,7.0997588609375Z" fill="#3D3935" fill-opacity="1"/></g></svg>