<svg xmlns="http://www.w3.org/2000/svg" xmlns:xlink="http://www.w3.org/1999/xlink" fill="none" version="1.1" width="16" height="16" viewBox="0 0 16 16"><defs><clipPath id="master_svg0_279_35649"><rect x="-0.5" y="-0.5" width="17" height="17" rx="0"/></clipPath></defs><g clip-path="url(#master_svg0_279_35649)"><rect x="0" y="0" width="16" height="16" rx="0" fill="#FFFFFF" fill-opacity="0.009999999776482582" style="mix-blend-mode:passthrough"/><path d="M1.833984345,2.49999997L11.333984375,2.49999997L11.333984375,2.49990001Q11.383220375,2.49989998,11.431509375,2.4902945499999998Q11.479799375,2.48068911,11.525286375,2.46184736Q11.570774375,2.44300562,11.611712375,2.41565165Q11.652650375,2.38829768,11.687465375,2.35348266Q11.722280375,2.31866765,11.749634375,2.27772954Q11.776989375,2.23679143,11.795830375,2.19130343Q11.814672375,2.14581545,11.824278375,2.097525649Q11.833883375,2.049235854,11.833884375,2Q11.833883375,1.950764146,11.824278375,1.902474351Q11.814672375,1.85418455,11.795829375,1.80869657Q11.776989375,1.76320857,11.749635375,1.72227046Q11.722281375,1.68133235,11.687466375,1.64651734Q11.652650375,1.61170232,11.611712375,1.58434838Q11.570774375,1.55699441,11.525286375,1.53815266Q11.479799375,1.51931089,11.431509375,1.50970545Q11.383220375,1.50010002,11.333984375,1.50009999L11.333984375,1.50000003L1.333984375,1.50000003Q1.284738678,1.50000006,1.236439228,1.50960743Q1.188139785,1.51921481,1.142642695,1.53806031Q1.097145585,1.55690581,1.056199315,1.58426529Q1.015253005,1.61162472,0.980431025,1.6464466500000001Q0.945609095,1.68126863,0.918249635,1.72221491Q0.890890185,1.76316121,0.872044685,1.80865832Q0.853199185,1.85415541,0.843591805,1.902454853Q0.8339844350000001,1.950754303,0.833984405,2L0.833984405,12Q0.8339844350000001,12.049246,0.843591805,12.097545Q0.853199185,12.145844,0.872044685,12.19134Q0.890890185,12.236837,0.918249665,12.277784Q0.945609095,12.318731,0.980431025,12.353553Q1.015253005,12.388374,1.056199285,12.415733Q1.097145585,12.443093,1.142642695,12.461939Q1.188139785,12.480785,1.236439228,12.490393Q1.284738678,12.5,1.333984375,12.5L6.126877775,12.5L7.647097575,14.02022Q7.717423475,14.090546,7.809308975,14.128607Q7.901194575,14.166666,8.000650875,14.166666Q8.100107175,14.166666,8.191992775,14.128606Q8.283878375,14.090546,8.354203675,14.02022L9.874423975,12.5L14.667317375,12.5Q14.716562375,12.5,14.764862375,12.490393Q14.813161375,12.480785,14.858657375,12.461939Q14.904155375,12.443093,14.945102375,12.415734Q14.986048375,12.388374,15.020870375,12.353553Q15.055692375,12.318731,15.083051375,12.277784Q15.110410375,12.236837,15.129255375,12.19134Q15.148101375,12.145844,15.157709375,12.097544Q15.167316375,12.049246,15.167317375,12L15.167317375,5.3333333L15.167218375,5.3333333Q15.167217375,5.2840972,15.157611375,5.2358074000000006Q15.148006375,5.1875176,15.129163375,5.1420297999999995Q15.110322375,5.0965416,15.082967375,5.0556035Q15.055614375,5.0146654,15.020799375,4.9798504999999995Q14.985984375,4.9450354999999995,14.945045375,4.9176815000000005Q14.904108375,4.8903275,14.858620375,4.8714859Q14.813132375,4.8526442,14.764842375,4.8430388Q14.716552375,4.8334334000000005,14.667318375,4.8334334000000005Q14.618082375,4.8334334000000005,14.569791375,4.8430388Q14.521501375,4.8526442,14.476014375,4.8714859Q14.430525375,4.8903275,14.389588375,4.9176815000000005Q14.348650375,4.9450354999999995,14.313835375,4.9798504999999995Q14.279020375,5.0146654,14.251665375,5.0556035Q14.224311375,5.0965416,14.205469375,5.1420297999999995Q14.186628375,5.1875176,14.177023375,5.2358074000000006Q14.167417375,5.2840972,14.167418375,5.3333335L14.167317375,5.3333333L14.167317375,11.499999L9.667318375,11.499999Q9.567861575,11.499999,9.475975975,11.5380592Q9.384090375,11.5761194,9.313765075,11.6464462L8.000650375,12.959559L6.687537675,11.6464462Q6.617211375,11.5761194,6.525325775,11.5380592Q6.433440175,11.499999,6.333984375,11.499999L1.833984345,11.499999L1.833984345,2.49999997Z" fill-rule="evenodd" fill="#767676" fill-opacity="1"/><path d="M7.666015625,7.1668921975L7.666015625,7.1669921875L8.333515825,7.1669921875L8.333515825,7.1668921975Q8.382751645,7.1668921675,8.431041475,7.1572867375Q8.479331255,7.1476812975,8.524819255,7.1288395475Q8.570307255,7.1099978075,8.611245335,7.0826438375Q8.652183415,7.0552898675,8.686998525,7.0204748475Q8.721813425,6.9856598375,8.749167325,6.9447217275Q8.776521325000001,6.9037836175,8.795363025,6.8582956175Q8.814204925,6.8128076375,8.823810325,6.7645178365Q8.833415725,6.7162280415,8.833415825,6.6669921875Q8.833415725,6.6177563335,8.823810325,6.5694665385Q8.814204925,6.5211767375,8.795363025,6.4756887575Q8.776521325000001,6.4302007575,8.749167425,6.3892626475Q8.721813425,6.3483245375,8.686998525,6.3135095275Q8.652183415,6.2786945075,8.611245335,6.2513405675Q8.570307255,6.2239865975,8.524819255,6.2051448475Q8.479331255,6.1863030775,8.431041415,6.1766976375Q8.382751645,6.1670922075,8.333515825,6.1670921775L8.333515825,6.1669921875L7.666015625,6.1669921875L7.666015625,6.1670921775Q7.616779771,6.1670922075,7.568489976,6.1766976375Q7.520200175,6.1863030775,7.474712195,6.2051448275Q7.429224195,6.2239865675,7.388286085,6.2513405375Q7.347347975,6.2786945075,7.312532965,6.3135095275Q7.277717945,6.3483245375,7.250364005,6.3892626475Q7.223010035,6.4302007575,7.204168285,6.4756887575Q7.185326515,6.5211767375,7.175721075,6.5694665385Q7.166115645,6.6177563335,7.166115615,6.6669921875Q7.166115645,6.7162280415,7.175721075,6.7645178365Q7.185326515,6.8128076375,7.204168265,6.8582956175Q7.223010005,6.9037836175,7.250363975,6.9447217275Q7.277717945,6.9856598375,7.312532965,7.0204748475Q7.347347975,7.0552898675,7.388286085,7.0826438075Q7.429224195,7.1099977775,7.474712195,7.1288395275Q7.520200175,7.1476812975,7.568489976,7.1572867375Q7.616779771,7.1668921675,7.666015625,7.1668921975Z" fill-rule="evenodd" fill="#767676" fill-opacity="1"/><path d="M11,7.1668921975L11,7.1669921875L11.66630048,7.1669921875L11.66630048,7.1668921975Q11.7155363,7.1668921675,11.76382601,7.1572867375Q11.81211579,7.1476812975,11.85760379,7.1288395475Q11.90309179,7.1099978075,11.94402993,7.0826438375Q11.98496807,7.0552898675,12.0197831,7.0204748475Q12.0545981,6.9856598375,12.0819521,6.9447217275Q12.1093061,6.9037836175,12.1281478,6.8582956175Q12.1469896,6.8128076375,12.156595,6.7645178365Q12.1662004,6.7162280415,12.1662005,6.6669921875Q12.1662004,6.6177563335,12.156595,6.5694665385Q12.1469896,6.5211767375,12.1281477,6.4756887575Q12.109306,6.4302007575,12.081952,6.3892626475Q12.0545981,6.3483245375,12.0197831,6.3135095275Q11.98496807,6.2786945075,11.94402993,6.2513405675Q11.90309179,6.2239865975,11.85760385,6.2051448475Q11.81211585,6.1863030775,11.76382601,6.1766976375Q11.7155363,6.1670922075,11.66630048,6.1670921775L11.66630048,6.1669921875L11,6.1669921875L11,6.1670921775Q10.950764146,6.1670922075,10.902474351,6.1766976375Q10.85418455,6.1863030775,10.80869657,6.2051448275Q10.76320857,6.2239865675,10.72227046,6.2513405375Q10.68133235,6.2786945075,10.64651734,6.3135095275Q10.61170232,6.3483245375,10.58434838,6.3892626475Q10.55699441,6.4302007575,10.53815266,6.4756887575Q10.51931089,6.5211767375,10.50970545,6.5694665385Q10.50010002,6.6177563335,10.50009999,6.6669921875Q10.50010002,6.7162280415,10.50970545,6.7645178365Q10.51931089,6.8128076375,10.53815264,6.8582956175Q10.55699438,6.9037836175,10.58434835,6.9447217275Q10.61170232,6.9856598375,10.64651734,7.0204748475Q10.68133235,7.0552898675,10.72227046,7.0826438075Q10.76320857,7.1099977775,10.80869657,7.1288395275Q10.85418455,7.1476812975,10.902474351,7.1572867375Q10.950764146,7.1668921675,11,7.1668921975Z" fill-rule="evenodd" fill="#767676" fill-opacity="1"/><path d="M4.333984375,7.1668921975L4.333984375,7.1669921875L5.000284855,7.1669921875L5.000284855,7.1668921975Q5.049520675,7.1668921675,5.097810385,7.1572867375Q5.146100165,7.1476812975,5.191588165,7.1288395475Q5.2370761649999995,7.1099978075,5.278014305,7.0826438375Q5.318952445,7.0552898675,5.353767475,7.0204748475Q5.388582475,6.9856598375,5.4159364750000005,6.9447217275Q5.4432904749999995,6.9037836175,5.462132175,6.8582956175Q5.4809739749999995,6.8128076375,5.490579375,6.7645178365Q5.500184775,6.7162280415,5.500184875,6.6669921875Q5.500184775,6.6177563335,5.490579375,6.5694665385Q5.4809739749999995,6.5211767375,5.4621320749999995,6.4756887575Q5.443290375,6.4302007575,5.415936375,6.3892626475Q5.388582475,6.3483245375,5.353767475,6.3135095275Q5.318952445,6.2786945075,5.278014305,6.2513405675Q5.2370761649999995,6.2239865975,5.191588225,6.2051448475Q5.146100225,6.1863030775,5.097810385,6.1766976375Q5.049520675,6.1670922075,5.000284855,6.1670921775L5.000284855,6.1669921875L4.333984375,6.1669921875L4.333984375,6.1670921775Q4.284748521,6.1670922075,4.236458726,6.1766976375Q4.188168925,6.1863030775,4.142680945,6.2051448275Q4.097192945,6.2239865675,4.056254835,6.2513405375Q4.015316725,6.2786945075,3.980501715,6.3135095275Q3.945686695,6.3483245375,3.918332755,6.3892626475Q3.890978785,6.4302007575,3.872137035,6.4756887575Q3.853295265,6.5211767375,3.8436898250000002,6.5694665385Q3.834084395,6.6177563335,3.834084365,6.6669921875Q3.834084395,6.7162280415,3.8436898250000002,6.7645178365Q3.853295265,6.8128076375,3.872137015,6.8582956175Q3.890978755,6.9037836175,3.918332725,6.9447217275Q3.945686695,6.9856598375,3.980501715,7.0204748475Q4.015316725,7.0552898675,4.056254835,7.0826438075Q4.097192945,7.1099977775,4.142680945,7.1288395275Q4.188168925,7.1476812975,4.236458726,7.1572867375Q4.284748521,7.1668921675,4.333984375,7.1668921975Z" fill-rule="evenodd" fill="#767676" fill-opacity="1"/><ellipse cx="14.333984375" cy="2.3330078125" rx="1.25" ry="1.25" fill="#767676" fill-opacity="1"/></g></svg>