<svg xmlns="http://www.w3.org/2000/svg" xmlns:xlink="http://www.w3.org/1999/xlink" fill="none" version="1.1" width="24" height="24" viewBox="0 0 24 24"><defs><clipPath id="master_svg0_59_3418"><rect x="0" y="0" width="24" height="24" rx="0"/></clipPath></defs><g clip-path="url(#master_svg0_59_3418)"><path d="M12.0009765625,1.67042183876L20.7509765625,5.803921675L20.7509765625,12.898421875C20.7509765625,16.696422875,17.632976562499998,20.684920875,12.6724767625,22.096919875L12.4649772625,22.154418875L12.0009765625,22.274419875L11.5314769625,22.152919875C6.610976662500001,20.836921875,3.4399764525,16.970921875000002,3.2584763765,13.195922875L3.2524764538,13.034421875L3.2509765625,5.804421875L12.0009765625,1.669921875L12.0009765625,1.67042183876ZM12.0004768625,3.329421475L4.7504762625,6.753921475L4.7524760624999995,13.014920875C4.8294762625,16.052419875,7.3959760625,19.327920875,11.5104770625,20.586921875L11.7104759625,20.646421875L11.9134759625,20.702422875L11.9999761625,20.724921875L12.0829753625,20.703921875C16.374475562500002,19.555923875,19.0809745625,16.270921875,19.2429765625,13.190922875L19.2489755625,13.044422875L19.250975562500003,12.898422875L19.250975562500003,6.753921475L12.0004768625,3.329421475ZM14.4544765625,8.887421575000001L15.5149765625,9.947921775L10.741975762500001,14.720921875L7.3834757625,11.362421975L8.4439754625,10.301921875L10.741475062500001,12.599920875L14.4544765625,8.887421575000001Z" fill="#C5CBD8" fill-opacity="1"/></g></svg>