<svg xmlns="http://www.w3.org/2000/svg" xmlns:xlink="http://www.w3.org/1999/xlink" fill="none" version="1.1" width="16" height="16" viewBox="0 0 16 16"><defs><clipPath id="master_svg0_279_35626"><rect x="-0.5" y="-0.5" width="17" height="17" rx="0"/></clipPath></defs><g clip-path="url(#master_svg0_279_35626)"><rect x="0" y="0" width="16" height="16" rx="0" fill="#FFFFFF" fill-opacity="0.009999999776482582" style="mix-blend-mode:passthrough"/><path d="M2.166015625,1.9996745025L2.166015625,13.9996748125Q2.166015625,14.4829308125,2.507726025,14.8246378125Q2.849433515,15.1663418125,3.332682315,15.1663418125L12.666013725,15.1663418125Q13.149269625,15.1663418125,13.490976625,14.8246368125Q13.832682625,14.4829308125,13.832682625,13.9996748125L13.832682625,4.6663413125Q13.832681625,4.5668847125,13.794622625,4.4749992125Q13.756561625,4.3831136125,13.686236625,4.3127878125L10.352902425,0.9794544325000001Q10.282576125,0.9091283125,10.190691025,0.8710680625Q10.098805425,0.8330078425,9.999349125,0.8330078125L3.332682315,0.8330078125Q2.849432985,0.8330078125,2.507724245,1.1747165425Q2.166015625,1.5164251725,2.166015625,1.9996745025ZM3.332682315,14.1663418125Q3.166015625,14.1663418125,3.166015625,13.9996748125L3.166015625,1.9996745025Q3.166015625,1.8330078125,3.332682315,1.8330078125L9.792242524999999,1.8330078125L12.832682625,4.8734474125L12.832682625,13.9996748125Q12.832682625,14.1663418125,12.666013725,14.1663418125L3.332682315,14.1663418125Z" fill-rule="evenodd" fill="#767676" fill-opacity="1"/><path d="M5.333984375,7.1669921875L10.667317875,7.1669921875L10.667317875,7.1668921975Q10.716553675,7.1668921675,10.764842975,7.1572867375Q10.813132775,7.1476812975,10.858620675000001,7.1288395475Q10.904108975,7.1099978075,10.945047375,7.0826438375Q10.985985275,7.0552898675,11.020800075,7.0204748475Q11.055614975000001,6.9856598375,11.082968675,6.9447217275Q11.110322475,6.9037836175,11.129164175,6.8582956175Q11.148006474999999,6.8128076375,11.157611875,6.7645178365Q11.167217274999999,6.7162280415,11.167217775000001,6.6669921875Q11.167217274999999,6.6177563335,11.157611875,6.5694665385Q11.148006474999999,6.5211767375,11.129164675,6.4756887575Q11.110322974999999,6.4302007575,11.082968675,6.3892626475Q11.055614975000001,6.3483245375,11.020800075,6.3135095275Q10.985985275,6.2786945075,10.945046875,6.2513405675Q10.904108975,6.2239865975,10.858620675000001,6.2051448475Q10.813132775,6.1863030775,10.764842975,6.1766976375Q10.716553675,6.1670922075,10.667317875,6.1670921775L10.667317875,6.1669921875L5.333984375,6.1669921875L5.333984375,6.1670921775Q5.284748521,6.1670922075,5.236458726,6.1766976375Q5.188168925,6.1863030775,5.142680945,6.2051448275Q5.097192945,6.2239865675,5.056254835,6.2513405375Q5.015316725,6.2786945075,4.980501715,6.3135095275Q4.945686695,6.3483245375,4.918332755,6.3892626475Q4.890978785,6.4302007575,4.872137035,6.4756887575Q4.853295265,6.5211767375,4.843689825,6.5694665385Q4.834084395,6.6177563335,4.834084365,6.6669921875Q4.834084395,6.7162280415,4.843689825,6.7645178365Q4.853295265,6.8128076375,4.872137015,6.8582956175Q4.890978755,6.9037836175,4.918332725,6.9447217275Q4.945686695,6.9856598375,4.980501715,7.0204748475Q5.015316725,7.0552898675,5.056254835,7.0826438075Q5.097192945,7.1099977775,5.142680945,7.1288395275Q5.188168925,7.1476812975,5.236458726,7.1572867375Q5.284748521,7.1668921675,5.333984375,7.1668921975L5.333984375,7.1669921875Z" fill-rule="evenodd" fill="#767676" fill-opacity="1"/><path d="M5.333984375,9.8330078125L10.667317875,9.8330078125L10.667317875,9.8329078225Q10.716553675,9.8329077925,10.764842975,9.8233023625Q10.813132775,9.8136969225,10.858620675000001,9.7948551725Q10.904108975,9.7760134325,10.945047375,9.7486594625Q10.985985275,9.7213054925,11.020800075,9.6864904725Q11.055614975000001,9.6516754625,11.082968675,9.6107373525Q11.110322475,9.5697992425,11.129164175,9.5243112425Q11.148006474999999,9.4788232625,11.157611875,9.4305334615Q11.167217274999999,9.3822436665,11.167217775000001,9.3330078125Q11.167217274999999,9.2837719585,11.157611875,9.2354821635Q11.148006474999999,9.1871923625,11.129164675,9.1417043825Q11.110322974999999,9.0962163825,11.082968675,9.0552782725Q11.055614975000001,9.0143401625,11.020800075,8.9795251525Q10.985985275,8.9447101325,10.945046875,8.9173561925Q10.904108975,8.8900022225,10.858620675000001,8.8711604725Q10.813132775,8.8523187025,10.764842975,8.8427132625Q10.716553675,8.8331078325,10.667317875,8.8331078025L10.667317875,8.8330078125L5.333984375,8.8330078125L5.333984375,8.8331078025Q5.284748521,8.8331078325,5.236458726,8.8427132625Q5.188168925,8.8523187025,5.142680945,8.8711604525Q5.097192945,8.8900021925,5.056254835,8.9173561625Q5.015316725,8.9447101325,4.980501715,8.9795251525Q4.945686695,9.0143401625,4.918332755,9.0552782725Q4.890978785,9.0962163825,4.872137035,9.1417043825Q4.853295265,9.1871923625,4.843689825,9.2354821635Q4.834084395,9.2837719585,4.834084365,9.3330078125Q4.834084395,9.3822436665,4.843689825,9.4305334615Q4.853295265,9.4788232625,4.872137015,9.5243112425Q4.890978755,9.5697992425,4.918332725,9.6107373525Q4.945686695,9.6516754625,4.980501715,9.6864904725Q5.015316725,9.7213054925,5.056254835,9.7486594325Q5.097192945,9.7760134025,5.142680945,9.7948551525Q5.188168925,9.8136969225,5.236458726,9.8233023625Q5.284748521,9.8329077925,5.333984375,9.8329078225L5.333984375,9.8330078125Z" fill-rule="evenodd" fill="#767676" fill-opacity="1"/></g></svg>