<svg xmlns="http://www.w3.org/2000/svg" xmlns:xlink="http://www.w3.org/1999/xlink" fill="none" version="1.1" width="20" height="20" viewBox="0 0 20 20"><defs><clipPath id="master_svg0_55_4502"><rect x="-0.4000000059604645" y="-0.4000000059604645" width="20.80000001192093" height="20.80000001192093" rx="0"/></clipPath></defs><g clip-path="url(#master_svg0_55_4502)"><path d="M10.82932949375,2.5C6.68349649375,2.5,3.33349609375,5.858333099999999,3.33349609375,10L0.83349609375,10L4.07932929375,13.245832L4.13766239375,13.366666L7.50016259375,10L5.00016259375,10C5.00016259375,6.7791662,7.61266279375,4.1666669,10.83349509375,4.1666669C14.05432709375,4.1666669,16.66682709375,6.7791662,16.66682709375,10C16.66682709375,13.220833,14.05432709375,15.833332,10.83349509375,15.833332C9.22099589375,15.833332,7.76682899375,15.174999,6.71266219375,14.120832L5.53349539375,15.299999C6.88766289375,16.658333,8.75849629375,17.5,10.82932949375,17.5C14.97516109375,17.5,18.33349609375,14.141666,18.33349609375,10C18.33349609375,5.858333099999999,14.97516109375,2.5,10.82932949375,2.5ZM10.00016209375,6.6666665L10.00016209375,10.833333L13.56682909375,12.950001L14.16682809375,11.9375L11.25016209375,10.208333L11.25016209375,6.6666665L10.00016209375,6.6666665Z" fill="#C5CBD8" fill-opacity="1"/><path d="M16.41888909375,15.586021Q18.73349609375,13.272304,18.73349609375,9.999999500000001Q18.73349609375,6.7276969,16.41888909375,4.4139777Q14.10402309375,2.09999996,10.82932849375,2.09999999Q7.55525069375,2.09999999,5.24371959375,4.4141949Q3.07595679375,6.5844569,2.94228199375,9.5999994L-0.13218939625000004,9.5999994L3.74856879375,13.480758L4.02244139375,14.048066L8.46500249375,9.5999994L5.41307779375,9.5999994Q5.54353999375,7.6066837,6.99185939375,6.1583635999999995Q8.58355519375,4.566667300000001,10.83349509375,4.5666668Q13.08343309375,4.5666668,14.67513109375,6.1583631Q16.266827093750003,7.7500601,16.266827093750003,9.999999500000001Q16.266827093750003,12.249939,14.67513109375,13.841636Q13.08343409375,15.433332,10.83349509375,15.433332Q8.590847493750001,15.433332,6.99550439375,13.83799L6.71266219375,13.555147L4.96824409375,15.299566L5.25021889375,15.582408Q7.56070229375,17.899999,10.82932949375,17.899999Q14.10402309375,17.899999,16.41888909375,15.586021ZM4.16871809375,12.769536L6.53532219375,10.399999099999999L4.60016279375,10.399999099999999L4.60016279375,9.999999500000001Q4.60016279375,7.4186902,6.42617419375,5.5926783Q8.25218539375,3.7666674,10.83349509375,3.7666668999999997Q13.41480409375,3.7666668000000003,15.24081509375,5.592677800000001Q17.06682609375,7.4186888,17.06682609375,9.999999500000001Q17.06682609375,12.58131,15.24081509375,14.407321Q13.41480509375,16.233332,10.83349509375,16.233332Q8.46076779375,16.233332,6.72053289375,14.678647L6.10566759375,15.293512Q8.09425119375,17.099999,10.82932949375,17.099999Q13.77274009375,17.099999,15.85331109375,15.020227Q17.93349609375,12.940841,17.93349609375,9.999999500000001Q17.93349609375,7.0591588,15.85331109375,4.979771899999999Q13.77274009375,2.90000004,10.82932849375,2.90000001Q7.88689179375,2.90000001,5.80973099375,4.9795547Q3.73349639375,7.0581822,3.73349709375,9.999999500000001L3.73349599375,10.399999099999999L1.79918104375,10.399999099999999L4.16871809375,12.769536ZM11.65016209375,9.980463499999999L11.65016209375,6.2666664L9.60016249375,6.2666664L9.60016249375,11.0610857L13.70689309375,13.49826L14.71482609375,11.7973719L11.65016209375,9.980463499999999ZM10.85016209375,7.0666666L10.40016269375,7.0666666L10.40016269375,10.6055813L13.42676309375,12.4017429L13.61883209375,12.0776281L10.85016209375,10.436202999999999L10.85016209375,7.0666666Z" fill-rule="evenodd" fill="#C5CBD8" fill-opacity="1"/></g></svg>