<svg xmlns="http://www.w3.org/2000/svg" xmlns:xlink="http://www.w3.org/1999/xlink" fill="none" version="1.1" width="20" height="20" viewBox="0 0 20 20"><defs><clipPath id="master_svg0_55_2811"><rect x="0" y="0" width="20" height="20" rx="0"/></clipPath></defs><g clip-path="url(#master_svg0_55_2811)"><path d="M12.548686875,11.3788499875L13.113333875,10.1256084875C12.329550875,9.7735976875,11.490965875,9.559293287500001,10.634394675,9.492102187499999C13.440916875,9.0296430875,14.846966875,5.8359560875,13.292858875,3.4536903875C11.738751375,1.0714254374999999,8.249252275,1.0714261575,6.695145575,3.4536918875C5.141039575000001,5.8359579875,6.547089075,9.0296439875,9.353609575,9.492102187499999C4.918415075,10.0373611875,1.625783335,13.8668361875,1.7515305176,18.3336521875L3.1287188749999997,18.3336521875C2.9497666750000002,14.3518331875,6.032824075,10.9789685875,10.014660875,10.8004312875C10.890235875,10.8160218875,11.753068875,11.0129727875,12.548686875,11.3788499875ZM7.439318175,5.5946580875C7.439400175,4.1911511875,8.574536275,3.0520271875000002,9.978033975,3.0470242875C11.381532675,3.0420213875,12.524759875,4.173023987500001,12.534848875,5.5764944875C12.544935875,6.9799656875,11.418085075,8.1272840875,10.014659875,8.142456987500001C8.596805575000001,8.157785887500001,7.439234775,7.0125956875,7.439318175,5.5946580875Z" fill="#C5CBD8" fill-opacity="1"/><path d="M15.28923893125,11.419921875L14.32520773125,12.411497775L14.79345183125,12.865970275L9.68408203125,12.865970275L9.68408203125,14.243158375L18.181334531250002,14.243158375L15.28923893125,11.419921875ZM18.25019363125,15.276049175L9.75294128825,15.276049175L12.58994933125,18.030426475L13.55398103125,17.038849875L13.14082433125,16.653237375L18.250192631250002,16.653237375L18.25019363125,15.276049175Z" fill="#C5CBD8" fill-opacity="1"/></g></svg>