<svg xmlns="http://www.w3.org/2000/svg" xmlns:xlink="http://www.w3.org/1999/xlink" fill="none" version="1.1" width="24" height="24" viewBox="0 0 24 24"><defs><clipPath id="master_svg0_59_3385"><rect x="0" y="0" width="24" height="24" rx="0"/></clipPath></defs><g clip-path="url(#master_svg0_59_3385)"><path d="M11.982004125,1.19921875C6.311103825,1.19921875,1.660803195,5.57321885,1.220703125,11.13251875L7.009503825,13.52471875C7.516537625,13.17845775,8.116316825,12.99337875,8.730304225000001,12.99371875C8.787004025,12.99371875,8.842803925,12.99731875,8.899503724999999,12.99911875L11.474405125,9.27131935L11.474405125,9.21821885C11.476389125,6.97035885,13.298145125,5.14860395,15.546005125,5.14661905C17.790605125,5.14661905,19.617605125,6.97451875,19.617605125,9.22091965C19.617605125,11.46731975,17.790605125,13.29341875,15.546005125,13.29341875L15.451506125,13.29341875L11.783105125,15.91332075C11.783105125,15.96011975,11.786705125,16.00781975,11.786705125,16.05642075C11.788694125,17.74313975,10.422423325,19.11182575,8.735705424999999,19.11281975C7.281283825,19.10790275,6.029792325,18.08333975,5.737804925,16.65852075L1.593303175,14.94221975C2.876703425,19.47551875,7.038303825,22.79921875,11.982004125,22.79921875C17.946304125,22.79921875,22.781105125,17.96351975,22.781105125,11.99921875C22.781105125,6.03491875,17.945406125,1.19921875,11.982004125,1.19921875ZM7.986904125,17.58822075L6.661204325,17.03921975C6.897004125,17.52791975,7.303803925,17.93831975,7.843803925,18.16421875C8.700266825,18.51909675,9.686117125,18.32406275,10.342935525,17.66979975C10.999753925,17.01554175,11.198637025,16.03046075,10.847104025,15.17261875C10.375111625,14.02632475,9.077326325,13.46295375,7.917603925,13.90091775L9.288304325,14.46791775C10.149617225,14.82725175,10.556700725,15.81665575,10.197665225,16.67809175C9.838629725,17.53952775,8.849365225,17.94695475,7.987803925,17.58821875L7.986904125,17.58822075ZM18.260406125,9.21551995C18.258421125,7.71771665,17.044707125000002,6.50400255,15.546905125,6.50201895C14.048281125,6.50201895,12.833405125,7.71689415,12.833405125,9.21551995C12.833405125,10.71414375,14.048281125,11.92901875,15.546905125,11.92901875C17.045529125,11.92901875,18.260406125,10.71414375,18.260406125,9.21551995ZM13.514706125,9.21101955C13.514706125,8.08493905,14.427575125,7.17207005,15.553655125,7.17207005C16.679736124999998,7.17207005,17.592605125,8.08493905,17.592605125,9.21101955C17.591614125,10.33679195,16.678979124999998,11.24902375,15.553204125,11.24951975C14.427165125,11.25001675,13.514207125,10.33705715,13.514706125,9.21101955Z" fill="#C5CBD8" fill-opacity="1"/></g></svg>