<svg xmlns="http://www.w3.org/2000/svg" xmlns:xlink="http://www.w3.org/1999/xlink" fill="none" version="1.1" width="24" height="24" viewBox="0 0 24 24"><defs><clipPath id="master_svg0_78_4729"><rect x="0" y="0" width="24" height="24" rx="0"/></clipPath></defs><g clip-path="url(#master_svg0_78_4729)"><path d="M16.91224034375,20.2496354140625L16.91224034375,20.2496354140625L16.91110334375,20.2503124140625Q14.64841834375,21.6000254140625,11.99990274375,21.6000254140625Q10.04706814375,21.6000254140625,8.26301674375,20.8454324140625Q6.54014014375,20.1167144140625,5.21167754375,18.7882534140625Q3.88320584375,17.459778414062498,3.15449476375,15.7369084140625Q2.39990234375,13.9528484140625,2.39990234375,12.0000238140625Q2.39990139007557,10.047197314062501,3.15449416375,8.2631388140625Q3.8832070437499997,6.5402703140625,5.21167664375,5.2117996140625Q6.54014584375,3.8833295140625,8.26301674375,3.1546168340625Q10.04707284375,2.4000244140625,11.99990174375,2.4000244140625Q13.95272634375,2.40002346038807,15.73678634375,3.1546162340625Q17.459656343749998,3.8833265140625,18.78813134375,5.2117987140625Q20.11659234375,6.5402646140625,20.84531034375,8.2631388140625Q21.59990334375,10.047188314062499,21.59990334375,12.0000238140625Q21.59990334375,13.7365224140625,20.99917634375,15.3497884140625C20.93628334375,15.5186774140625,20.77505534375,15.6306854140625,20.59483734375,15.6306854140625C20.35654634375,15.6306854140625,20.16337634375,15.4375144140625,20.16337634375,15.1992264140625C20.16337634375,15.1478224140625,20.17256134375,15.0968354140625,20.19049834375,15.0486614140625Q20.73698434375,13.5810754140625,20.73698434375,12.0000238140625Q20.73698434375,8.3810081140625,18.17794934375,5.8219762140625Q15.61891634375,3.2629452340625003,11.99990174375,3.2629455940625Q8.38088414375,3.2629452340625003,5.82185414375,5.8219769140625Q3.2628231637500003,8.381004314062501,3.26282352375,12.0000238140625Q3.2628231637500003,15.6190384140625,5.82185484375,18.1780714140625Q8.380882243750001,20.7371064140625,11.99990274375,20.7371064140625Q14.41120734375,20.7371064140625,16.47007834375,19.5086064140625C16.53692234375,19.4687194140625,16.61331634375,19.4476564140625,16.69116034375,19.4476564140625C16.92944934375,19.4476564140625,17.12262034375,19.6408274140625,17.12262034375,19.8791194140625C17.12262034375,20.0310514140625,17.04270834375,20.1717834140625,16.91224034375,20.2496354140625ZM19.26058234375,14.8702774140625Q16.71890834375,12.9424444140625,14.91593234375,14.5061064140625C14.84506334375,14.5675694140625,14.80435434375,14.6567624140625,14.80435434375,14.7505704140625C14.80435434375,14.9292884140625,14.94923234375,15.0741664140625,15.12794734375,15.0741664140625C15.20584034375,15.0741664140625,15.28111934375,15.0460704140625,15.33996534375,14.9950354140625Q16.744912343750002,13.7765774140625,18.86556434375,15.3829604140625Q19.85995334375,16.1874964140625,19.71452134375,17.1953794140625Q16.26116434375,17.4260874140625,14.91338334375,16.946537414062497Q9.458121743749999,12.4634814140625,6.2432537437499995,10.380133614062501C6.19084334375,10.346170414062499,6.12972524375,10.328097814062499,6.06727264375,10.328097814062499C5.99204804375,10.328097814062499,5.91917304375,10.3543067140625,5.86117814375,10.4022179140625L7.87339544375,7.4481134140625L7.88775304375,7.3994512140625Q8.29123734375,6.0319795140625,9.50604674375,5.3593447140625Q9.681901943749999,5.3482439140625,9.743894143750001,5.3929939140625Q9.774720143749999,5.4152469140625,9.78862144375,5.4980876140625L9.78862144375,7.1199021140625L9.79334834375,7.1472554140625Q9.965547543749999,8.1435585140625,11.36261464375,8.5870862140625L11.39117334375,8.5961523140625L11.42090984375,8.599821614062499Q12.44859834375,8.7266126140625,13.00197934375,8.4629216140625L13.05189734375,8.4391336140625L13.09108734375,8.4001207140625Q14.46974734375,7.0275903140625,14.99352534375,6.9831185140625L15.03444434375,6.9796448140625L15.07319734375,6.9660606140625Q15.16783634375,6.9328861140625,15.19035934375,6.9438610140625Q15.21211134375,6.9544592140625,15.23806834375,7.0381417140625Q15.30520134375,8.4185996140625,15.25618534375,9.3573117140625L13.02457834375,9.3573117140625C12.84586134375,9.3573117140625,12.70098134375,9.5021911140625,12.70098134375,9.6809082140625C12.70098134375,9.8596244140625,12.84586134375,10.004503714062501,13.02457834375,10.004503714062501L15.85851134375,10.004503714062501L15.88200434375,9.706325514062499Q15.96568234375,8.6443066140625,15.88260734375,6.9682588140625L15.88084034375,6.9325909140625L15.87133734375,6.8981666140625Q15.76211134375,6.5025163140625,15.47383834375,6.362057014062501Q15.22273034375,6.2397063140625,14.89618234375,6.3429420140624995Q14.14821234375,6.4437799140625,12.67723434375,7.8990297140625Q12.29876134375,8.0521564140625,11.53009034375,7.9611206140625Q10.55563064375,7.6440039140625,10.43581394375,7.0620098140625L10.43581394375,5.4525435140625L10.43293664375,5.4311132140625Q10.32431314375,4.621926814062499,9.37746384375,4.7208617140625L9.31475254375,4.7274141140624995L9.25908994375,4.757031714062499Q7.77922864375,5.5444507140625,7.28187564375,7.1669025140625L4.775576543750001,10.8463640140625Q4.40025284375,11.3943453140625,4.73645974375,12.3746490140625L4.76161384375,12.4479944140625L4.81727644375,12.5019754140625Q5.24349144375,12.9152994140625,5.68722104375,13.3180804140625Q6.84656004375,14.3704244140625,8.083157043749999,15.3136754140625Q9.25455524375,16.2071974140625,10.46833424375,16.9816094140625Q11.81798174375,17.8427134140625,13.20176334375,18.5447694140625L13.20778834375,18.5478244140625L13.21393734375,18.5506304140625Q15.68603134375,19.6776504140625,18.58750134375,19.1131534140625L18.61094634375,19.1085964140625L18.63346834375,19.1006394140625Q19.84541734375,18.6726074140625,20.28069534375,17.6253294140625L20.28922434375,17.6048044140625L20.29486834375,17.5833084140625Q20.70186234375,16.033131414062503,19.26824234375,14.8762684140625L19.26445734375,14.8732154140625L19.26058234375,14.8702774140625ZM8.71952674375,7.1636205140625C8.71952674375,7.1791329140625,8.718411943749999,7.1946263140625,8.716189343749999,7.2099800140625L8.716189343749999,7.2099800140625Q8.67634104375,7.4853287140625,8.68896484375,7.5722942140625Q8.69791984375,7.6339903140625,8.778706043749999,7.7980237140625Q9.30327514375,8.4635892140625,9.41378834375,9.0367555140625Q9.58170364375,9.7306514140625,9.582764143750001,10.340655814062501Q9.58309504375,10.3621135140625,9.58378644375,10.4041567140625Q9.59045834375,10.8094520140625,9.56834174375,11.0056190140625Q9.53214454375,11.3266792140625,9.396530643750001,11.6555290140625C9.34656194375,11.7766952140625,9.22843984375,11.8557558140625,9.097374443749999,11.8557558140625C8.91865774375,11.8557558140625,8.77377844375,11.7108765140625,8.77377844375,11.5321598140625C8.77377844375,11.4898338140625,8.78208204375,11.4479198140625,8.79821824375,11.4087906140625L8.798626443749999,11.4078035140625Q8.899257643750001,11.1634455140625,8.92522474375,10.9331131140625Q8.94266794375,10.7783975140625,8.936683143749999,10.4148102140625Q8.935986043749999,10.3724370140625,8.93564984375,10.3506307140625Q8.934645643749999,9.8052649140625,8.78297994375,9.1816664140625L8.78094384375,9.173294514062501L8.77935604375,9.1648259140625Q8.69872574375,8.7347822140625,8.25129794375,8.1745491140625L8.23025174375,8.1481953140625L8.215091743750001,8.118068714062499Q8.07331754375,7.8363323140625,8.04848574375,7.6652632140625Q8.02238084375,7.4854207140625,8.07567404375,7.1172609140625C8.09871194375,6.9581113140625,8.23512314375,6.8400249140625,8.395931243749999,6.8400249140625C8.574648843750001,6.8400249140625,8.71952674375,6.9849033140625,8.71952674375,7.1636205140625ZM15.14791234375,11.3668327140625Q15.68509534375,11.1223640140625,16.17671534375,11.1003113140625C16.20660734375,11.0989704140625,16.23616934375,11.0934915140625,16.26455634375,11.0840301140625C16.43410234375,11.0275135140625,16.52573034375,10.8442554140625,16.46921434375,10.6747093140625C16.42347834375,10.5374918140625,16.29223134375,10.4472923140625,16.147703343750003,10.4537697140625L16.147703343750003,10.4537697140625Q15.53090734375,10.4814730140625,14.87983534375,10.7777729140625Q14.41660034375,10.9885883140625,13.76984034375,11.4258079140625C13.64958534375,11.5071001140625,13.59817834375,11.6585207140625,13.64407934375,11.7962236140625C13.70059434375,11.9657707140625,13.88385234375,12.0573997140625,14.05339834375,12.0008850140625C14.08134734375,11.9915666140625,14.10789134375,11.9784794140625,14.13229734375,11.9619799140625L14.13229734375,11.9619799140625Q14.73413934375,11.5551395140625,15.14791234375,11.3668327140625ZM5.7596597437499994,10.5512552140625L5.3095312437499995,11.2120819140625Q5.12835764375,11.4765987140625,5.324713743749999,12.0924082140625Q5.59836244375,12.3565845140625,5.87933994375,12.6163754140625L6.41714144375,12.0025148140625C6.47858624375,11.9323826140625,6.56729694375,11.8921623140625,6.66053964375,11.8921623140625C6.83925674375,11.8921623140625,6.98413514375,12.0370407140625,6.98413514375,12.2157574140625C6.98413514375,12.2942085140625,6.95563504375,12.3699884140625,6.90393734375,12.4289974140625L6.35854884375,13.0515154140625Q7.25297784375,13.8492014140625,8.193502443749999,14.5816234140625L8.59676504375,13.9328584140625L8.59676504375,13.9328584140625C8.65599584375,13.8375704140625,8.759919643749999,13.7798004140625,8.87177564375,13.7798004140625C9.050491843749999,13.7798004140625,9.19537114375,13.9246824140625,9.19537114375,14.1033974140625C9.19537114375,14.1637754140625,9.17847874375,14.2229484140625,9.14660454375,14.2742254140625L9.14660454375,14.2742254140625L8.71014074375,14.9764084140625Q9.647675043749999,15.6792584140625,10.61231324375,16.3047194140625L11.24713234375,15.7477854140625C11.30616374375,15.6959974140625,11.38201234375,15.6674424140625,11.46054074375,15.6674424140625C11.63925744375,15.6674424140625,11.78413484375,15.8123204140625,11.78413484375,15.9910374140625C11.78413484375,16.084204414062498,11.74398044375,16.172849414062497,11.67384814375,16.234376414062503L11.18200014375,16.6658774140625Q12.32321164375,17.372988414062497,13.48851634375,17.9645294140625Q15.75941834375,18.9974864140625,18.44006134375,18.4824864140625Q19.03899734375,18.265902414062502,19.38429434375,17.8642464140625Q16.023446343750003,18.0563474140625,14.63643634375,17.5343274140625L14.58629434375,17.5154534140625L14.54490734375,17.4814284140625Q9.087932143749999,12.9947904140625,5.89129234375,10.9232559140625C5.79924274375,10.8636026140625,5.74367734375,10.7613830140625,5.74367734375,10.6516952140625C5.74367734375,10.6175804140625,5.74907184375,10.5836830140625,5.7596597437499994,10.5512552140625ZM16.58007934375,12.5564934140625L16.58063234375,12.5565144140625C16.61799234375,12.5580064140625,16.655329343749997,12.5530114140625,16.69098534375,12.5417514140625C16.861407343750002,12.4879344140625,16.95593334375,12.3061533140625,16.902115343749998,12.1357326140625C16.86103134375,12.0056362140625,16.74276834375,11.9152803140625,16.606405343749998,11.9098358140625L16.606405343749998,11.9098358140625Q15.94149534375,11.8833456140625,15.30822834375,12.1436100140625Q14.79612334375,12.3540802140625,14.23799134375,12.7863844140625C14.13082334375,12.8693924140625,14.08675434375,13.0103954140625,14.12757334375,13.1396564140625C14.18138934375,13.3100774140625,14.36317034375,13.4046034140625,14.53359334375,13.3507874140625C14.57001234375,13.3392844140625,14.60411134375,13.3214264140625,14.63430534375,13.2980384140625Q15.12313634375,12.9193994140625,15.55424834375,12.7422184140625Q16.056696343749998,12.5357174140625,16.58007934375,12.5564934140625Z" fill-rule="evenodd" fill="currentColor" fill-opacity="1"/></g></svg>