<svg xmlns="http://www.w3.org/2000/svg" xmlns:xlink="http://www.w3.org/1999/xlink" fill="none" version="1.1" width="20" height="20" viewBox="0 0 20 20"><defs><clipPath id="master_svg0_55_4461"><rect x="0" y="0" width="20" height="20" rx="0"/></clipPath></defs><g clip-path="url(#master_svg0_55_4461)"><path d="M10,17.5C5.8645,17.5,2.5,14.1355,2.5,10C2.5,5.8645,5.8645,2.5,10,2.5C14.1355,2.5,17.5,5.8645,17.5,10C17.5,14.1355,14.1355,17.5,10,17.5ZM10,1C5.0372505,1,1,5.0372505,1,10C1,14.96275,5.0372496,19,10,19C14.96275,19,19,14.96275,19,10C19,5.0372496,14.96275,1,10,1Z" fill="#C5CBD8" fill-opacity="1"/><path d="M10.494549,9.704891199999999L10.494549,5.69108284C10.494549,5.30940801,10.1599824,5,9.74727452,5C9.33456588,5,9,5.30940801,9,5.69108284L9,9.9910007C9,10.1741371,9.078463487,10.350363699999999,9.2189516,10.4795966L11.7245629,12.7967973C12.015857,13.0677338,12.4899147,13.0677338,12.7812088,12.7967973C13.0729303,12.5269303,13.0729303,12.089475199999999,12.7812088,11.8196063L10.494549,9.704891199999999Z" fill="#C5CBD8" fill-opacity="1"/></g></svg>