<svg xmlns="http://www.w3.org/2000/svg" xmlns:xlink="http://www.w3.org/1999/xlink" fill="none" version="1.1" width="20" height="20" viewBox="0 0 20 20"><defs><clipPath id="master_svg0_55_4474"><rect x="-0.1666666716337204" y="-0.1666666716337204" width="20.33333334326744" height="20.33333334326744" rx="0"/></clipPath></defs><g clip-path="url(#master_svg0_55_4474)"><path d="M8.96468065625,17.8128241875L8.96468065625,2.1878254975C8.96468065625,1.9001771775,8.73149585625,1.6669921875,8.44384765625,1.6669921875L4.27718096625,1.6669921875C3.98953269625,1.6669921875,3.75634765625,1.9001771775,3.75634765625,2.1878254975L3.75634765625,17.8128241875C3.75634765625,18.1004711875,3.98953269625,18.3336581875,4.27718096625,18.3336581875L8.44384765625,18.3336581875C8.73149585625,18.3336581875,8.96468065625,18.1004711875,8.96468065625,17.8128241875ZM7.92301415625,17.2919921875L4.79801425625,17.2919921875L4.79801425625,15.7294921875L5.31884765625,15.7294921875C5.46267185625,15.7294921875,5.57926425625,15.6128991875,5.57926425625,15.4690751875C5.57926425625,15.3252491875,5.46267185625,15.2086581875,5.31884765625,15.2086581875L4.79801425625,15.2086581875L4.79801425625,14.1669921875L5.31884765625,14.1669921875C5.46267185625,14.1669921875,5.57926425625,14.0504001875,5.57926425625,13.9065751875C5.57926425625,13.7627491875,5.46267185625,13.6461581875,5.31884765625,13.6461581875L4.79801425625,13.6461581875L4.79801425625,12.6044921875L5.31884765625,12.6044921875C5.46267185625,12.6044921875,5.57926425625,12.4878991875,5.57926425625,12.3440751875C5.57926425625,12.2002501875,5.46267185625,12.0836581875,5.31884765625,12.0836581875L4.79801425625,12.0836581875L4.79801425625,11.0419921875L5.31884765625,11.0419921875C5.46267185625,11.0419921875,5.57926425625,10.9253987875,5.57926425625,10.7815751875C5.57926425625,10.6377505875,5.46267185625,10.5211581875,5.31884765625,10.5211581875L4.79801425625,10.5211581875L4.79801425625,9.4794921875L5.31884765625,9.4794921875C5.46267185625,9.4794921875,5.57926425625,9.3628987875,5.57926425625,9.2190751875C5.57926425625,9.0752510875,5.46267185625,8.9586586875,5.31884765625,8.9586586875L4.79801425625,8.9586586875L4.79801425625,7.9169921875L5.31884765625,7.9169921875C5.46267185625,7.9169921875,5.57926425625,7.8003992875,5.57926425625,7.6565751875C5.57926425625,7.5127515875,5.46267185625,7.3961586875,5.31884765625,7.3961586875L4.79801425625,7.3961586875L4.79801425625,6.3544921875L5.31884765625,6.3544921875C5.46267185625,6.3544921875,5.57926425625,6.2378992875,5.57926425625,6.0940751875C5.57926425625,5.9502515875,5.46267185625,5.8336586875,5.31884765625,5.8336586875L4.79801425625,5.8336586875L4.79801425625,4.7919921875L5.31884765625,4.7919921875C5.46267185625,4.7919921875,5.57926425625,4.6753997875,5.57926425625,4.5315754875C5.57926425625,4.3877510875,5.46267185625,4.2711586875,5.31884765625,4.2711586875L4.79801425625,4.2711586875L4.79801425625,2.7086587875L7.92301415625,2.7086587875L7.92301415625,17.2919921875ZM13.25634665625,1.9326171875L11.225097156250001,5.5544917875C11.14843465625,5.6470989875,11.10628035625,5.7634377875,11.105826856250001,5.8836583875L11.105826856250001,5.9034499875L11.053222156250001,16.7628251875C11.051138856249999,17.1820961875,11.21207615625,17.575846187499998,11.507909256249999,17.8732411875C11.80374245625,18.1706371875,12.19645115625,18.3336581875,12.61572165625,18.3336581875L14.69905565625,18.3336581875C15.55813665625,18.3316801875,16.25527265625,17.638031187499998,16.26155565625,16.778971187499998L16.31416065625,5.8883461875L16.31416065625,5.8862623875C16.31441365625,5.7652191875,16.27241565625,5.647881787499999,16.19540965625,5.5544917875L14.16415865625,1.9326171875C13.98030465625,1.6039713625,13.44020075625,1.6039713625,13.25582695625,1.9326171875L13.25634665625,1.9326171875ZM15.21988865625,16.7732421875C15.21788965625,17.0597181875,14.98553965625,17.2911411875,14.69905565625,17.2919921875L12.61572165625,17.2919921875C12.47679325625,17.2926841875,12.34346105625,17.2372871875,12.24593065625,17.138346187499998C12.14804365625,17.0403141875,12.09362415625,16.907082187500002,12.09488865625,16.7685541875L12.10009765625,15.7294921875L15.22509665625,15.7294921875L15.21988865625,16.7732421875ZM15.27197265625,6.0378250875L15.23030565625,14.6878251875L12.10530565625,14.6878251875L12.14697265625,6.0404290875L12.74749375625,4.9695961875000005C13.02012155625,5.1898431875,13.35951995625,5.3108734875,13.70999335625,5.3128254875C14.05895165625,5.3128254875,14.39072265625,5.1919920875,14.67301365625,4.9690754875L15.27197265625,6.0378250875ZM13.00947285625,4.5024089875L13.70999335625,3.2524087875000003L14.41103565625,4.5024089875C13.99749265625,4.8633460875,13.42301465625,4.8633460875,13.00947285625,4.5024089875Z" fill="#C5CBD8" fill-opacity="1"/><path d="M4.27718096625,18.5003241875L8.44384765625,18.5003241875Q8.72861865625,18.5003241875,8.92998365625,18.2989601875Q9.13134765625,18.0975951875,9.13134765625,17.8128241875L9.13134765625,2.1878254975Q9.13134765625,1.9030540175,8.92998405625,1.7016897535Q8.72862005625,1.5003254875,8.44384905625,1.5003254675L4.27718096625,1.5003254975Q3.99240919625,1.5003254975,3.79104508425,1.7016895785Q3.58968098625,1.9030536675,3.58968101625,2.1878255575L3.58968096625,17.8128241875Q3.58968096625,18.0975951875,3.79104495025,18.2989601875Q3.99241012625,18.5003241875,4.27718096625,18.5003241875ZM13.41027445625,1.9988762174999999L11.36309095625,5.649162087500001L11.35348085625,5.6607713875000005Q11.27296825625,5.7580294875,11.27249195625,5.8842873875L11.27249335625,5.9034499875L11.21988675625,16.7636321875Q11.21700005625,17.344471187499998,11.62607045625,17.7557011875Q12.03519915625,18.1669901875,12.61572165625,18.1669901875L14.69905565625,18.1669901875Q15.27441465625,18.1656661875,15.68254965625,17.7595731875Q16.09068165625,17.3534811875,16.09489365625,16.7777531875L16.14749665625,5.8875412875L16.14749365625,5.8862623875Q16.14776065625,5.7586860875,16.06681965625,5.6605209875L16.05733665625,5.6490194875L14.01879165625,2.0141427775Q13.92853265625,1.8527994875,13.71018795625,1.8527994875Q13.50231555625,1.8527994875,13.41027445625,1.9988762174999999ZM12.97178645625,2.0992838775L12.97122195625,2.0992838775L13.11047365625,1.8510718975Q13.29650685625,1.5194661475,13.71018795625,1.5194661475Q14.12400465625,1.5194661475,14.30952465625,1.8510915975L16.33392665625,5.4607543875Q16.481327656250002,5.6472024874999995,16.48082765625,5.8862623875L16.48082465625,5.8891510875L16.42821665625,16.7801891875Q16.42300365625,17.4930501875,15.91765965625,17.9958671875Q15.41231765625,18.4986821875,14.69905565625,18.5003241875L12.61572165625,18.5003241875Q11.89661405625,18.5003241875,11.38974805625,17.9907821875Q10.88298275625,17.4813411875,10.88655755625,16.7620181875L10.93916035625,5.9034499875L10.93916175625,5.8830294875Q10.940058256250001,5.6454352875,11.08664755625,5.4606325875L12.97178645625,2.0992838775ZM8.694280656250001,18.0632571875Q8.59054805625,18.1669901875,8.44384765625,18.1669901875L4.27718096625,18.1669901875Q4.13048043625,18.1669901875,4.02674746625,18.0632571875Q3.92301434625,17.9595241875,3.92301434625,17.8128241875L3.92301437625,2.1878254375Q3.92301435625,2.0411248475,4.02674737625,1.9373918775Q4.13048034625,1.8336588775,4.27718096625,1.8336588775L8.44384905625,1.8336588275Q8.590548556249999,1.8336588275,8.69428105625,1.9373916975Q8.79801415625,2.0411248475,8.79801415625,2.1878254975L8.79801415625,17.8128241875Q8.79801415625,17.9595241875,8.694280656250001,18.0632571875ZM8.08968065625,17.4586581875L8.08968065625,2.5419920675L4.63134753625,2.5419920675L4.63134753625,4.4378251875L5.31884765625,4.4378251875Q5.41259755625,4.4378251875,5.41259755625,4.5315749875Q5.41259755625,4.6253254875,5.31884765625,4.6253254875L4.63134753625,4.6253254875L4.63134753625,6.0003251875L5.31884765625,6.0003251875Q5.41259755625,6.0003251875,5.41259755625,6.0940751875Q5.41259755625,6.1878256875,5.31884765625,6.1878256875L4.63134753625,6.1878256875L4.63134753625,7.5628251875L5.31884765625,7.5628251875Q5.41259755625,7.5628251875,5.41259755625,7.6565765875Q5.41259755625,7.7503256875,5.31884765625,7.7503256875L4.63134753625,7.7503256875L4.63134753625,9.1253251875L5.31884765625,9.1253251875Q5.41259755625,9.1253251875,5.41259755625,9.2190751875Q5.41259755625,9.3128256875,5.31884765625,9.3128256875L4.63134753625,9.3128256875L4.63134753625,10.6878242875L5.31884765625,10.6878242875Q5.41259755625,10.6878242875,5.41259755625,10.7815751875Q5.41259755625,10.8753261875,5.31884765625,10.8753261875L4.63134753625,10.8753261875L4.63134753625,12.2503241875L5.31884765625,12.2503241875Q5.41259755625,12.2503241875,5.41259755625,12.3440751875Q5.41259755625,12.4378261875,5.31884765625,12.4378261875L4.63134753625,12.4378261875L4.63134753625,13.8128241875L5.31884765625,13.8128241875Q5.41259755625,13.8128241875,5.41259755625,13.9065751875Q5.41259755625,14.0003261875,5.31884765625,14.0003261875L4.63134753625,14.0003261875L4.63134753625,15.3753241875L5.31884765625,15.3753241875Q5.41259755625,15.3753241875,5.41259755625,15.4690751875Q5.41259755625,15.5628261875,5.31884765625,15.5628261875L4.63134753625,15.5628261875L4.63134753625,17.4586581875L8.08968065625,17.4586581875ZM7.75634765625,2.8753254875L4.96468095625,2.8753254875L4.96468095625,4.104491987499999L5.31884765625,4.104491987499999Q5.49575145625,4.104491987499999,5.62084125625,4.2295817875Q5.74593095625,4.3546714875,5.74593095625,4.5315749875Q5.74593095625,4.7084788875,5.62084125625,4.8335685875Q5.49575145625,4.9586586875,5.31884765625,4.9586586875L4.96468095625,4.9586586875L4.96468095625,5.6669921875L5.31884765625,5.6669921875Q5.49575145625,5.6669921875,5.62084125625,5.7920822875Q5.74593095625,5.9171719875,5.74593095625,6.0940751875Q5.74593095625,6.2709784875,5.62084125625,6.3960685875Q5.49575165625,6.5211586875,5.31884765625,6.5211586875L4.96468095625,6.5211586875L4.96468095625,7.2294921875L5.31884765625,7.2294921875Q5.49575145625,7.2294921875,5.62084125625,7.3545822875Q5.74593095625,7.4796719875,5.74593095625,7.6565765875Q5.74593095625,7.8334798875,5.62084115625,7.9585694875Q5.49575165625,8.0836586875,5.31884765625,8.0836586875L4.96468095625,8.0836586875L4.96468095625,8.7919921875L5.31884765625,8.7919921875Q5.4957510562500005,8.7919921875,5.62084115625,8.917082287500001Q5.74593095625,9.0421719875,5.74593095625,9.2190751875Q5.74593095625,9.395978487499999,5.62084145625,9.5210685875Q5.49575195625,9.6461586875,5.31884765625,9.6461586875L4.96468095625,9.6461586875L4.96468095625,10.3544911875L5.31884765625,10.3544911875Q5.49575145625,10.3544911875,5.62084125625,10.4795817875Q5.74593095625,10.6046714875,5.74593095625,10.7815751875Q5.74593095625,10.9584788875,5.62084145625,11.0835685875Q5.49575195625,11.2086581875,5.31884765625,11.2086581875L4.96468095625,11.2086581875L4.96468095625,11.9169911875L5.31884765625,11.9169911875Q5.49575145625,11.9169911875,5.62084125625,12.0420821875Q5.74593095625,12.1671711875,5.74593095625,12.3440751875Q5.74593095625,12.5209791875,5.62084145625,12.6460681875Q5.49575195625,12.7711581875,5.31884765625,12.7711581875L4.96468095625,12.7711581875L4.96468095625,13.4794911875L5.31884765625,13.4794911875Q5.49575185625,13.4794911875,5.62084115625,13.6045811875Q5.74593095625,13.7296701875,5.74593095625,13.9065751875Q5.74593095625,14.0834781875,5.62084125625,14.2085671875Q5.49575065625,14.3336581875,5.31884765625,14.3336581875L4.96468095625,14.3336581875L4.96468095625,15.0419911875L5.31884765625,15.0419911875Q5.49575315625,15.0419911875,5.62084115625,15.1670791875Q5.74593095625,15.2921681875,5.74593095625,15.4690751875Q5.74593095625,15.6459771875,5.62084145625,15.7710671875Q5.49575145625,15.8961581875,5.31884765625,15.8961581875L4.96468095625,15.8961581875L4.96468095625,17.1253261875L7.75634765625,17.1253261875L7.75634765625,2.8753254875ZM13.71025375625,4.9397785875Q14.16338165625,4.9397785875,14.52062865625,4.6279756875L14.62262265625,4.538957587500001L13.70993895625,2.9115898875L12.79792025625,4.5389859875L12.89987845625,4.6279754875000005Q13.25712485625,4.9397785875,13.71025375625,4.9397785875ZM14.19526465625,4.4583983875L13.71004775625,3.5932269875L13.22520545625,4.4583725874999995Q13.44675155625,4.6064452875,13.71025375625,4.6064452875Q13.97373265625,4.6064452875,14.19526465625,4.4583983875ZM15.43884965625,5.9946808875L14.81840465625,4.8875939875L14.72295165625,4.7172741875L14.56972265625,4.8382739875Q14.17983465625,5.1461584875,13.71092125625,5.1461610874999995Q13.22793675625,5.143471487499999,12.85223005625,4.8399500875L12.69867995625,4.715901587499999L11.98051545625,5.9965118875L11.93783375625,14.8544911875L15.39617065625,14.8544911875L15.43884965625,5.9946808875ZM14.61838865625,5.212514687500001Q14.20092465625,5.4794914875,13.70906545625,5.4794892875Q13.20893285625,5.4767043875,12.80143265625,5.2141525875L12.31342885625,6.0843462875L12.27277655625,14.5211591875L15.06443965625,14.5211591875L15.10509565625,6.0809692875L14.61838865625,5.212514687500001ZM15.38655365625,16.7740741875L15.39176165625,15.7303251875L15.39259765625,15.5628261875L11.93426515625,15.5628261875L11.92822935625,16.767031187500002Q11.92561435625,17.0534291875,12.12723635625,17.255349187500002Q12.32905865625,17.4600901875,12.61572165625,17.4586601875L14.69954965625,17.4586581875Q14.98296365625,17.457817187499998,15.18376965625,17.2578141875Q15.38457465625,17.057813187500003,15.38655365625,16.7740741875ZM15.05759765625,15.8961601875L15.05322465625,16.7724101875Q15.05220465625,16.9183891875,14.94853965625,17.021640187499997Q14.84487265625,17.1248931875,14.69856165625,17.1253261875L12.61572165625,17.1253251875Q12.46784875625,17.1260611875,12.36462495625,17.0213451875Q12.26020905625,16.9167681875,12.26154895625,16.770076187500003L12.26593015625,15.8961601875L15.05759765625,15.8961601875Z" fill-rule="evenodd" fill="#C5CBD8" fill-opacity="1"/><path d="M14.43375644375,13.3857421875C14.57758044375,13.3857421875,14.69417314375,13.2691492875,14.69417314375,13.1253251875L14.69417314375,7.3961588475C14.69417314375,7.2523348375,14.57758044375,7.1357421875,14.43375644375,7.1357421875C14.28993244375,7.1357421875,14.17333984375,7.2523348375,14.17333984375,7.3961588475L14.17333984375,13.1253251875C14.17333984375,13.2691492875,14.28993244375,13.3857421875,14.43375644375,13.3857421875ZM12.87125650375,7.1357421875C12.72743249375,7.1357421875,12.61083984375,7.2523348375,12.61083984375,7.3961588475L12.61083984375,13.1253251875C12.61083984375,13.2691492875,12.72743249375,13.3857421875,12.87125650375,13.3857421875C13.01508051375,13.3857421875,13.13167315375,13.2691492875,13.13167315375,13.1253251875L13.13167315375,7.3961588475C13.13167315375,7.2523348375,13.01508051375,7.1357421875,12.87125650375,7.1357421875Z" fill="#C5CBD8" fill-opacity="1"/></g></svg>