<svg xmlns="http://www.w3.org/2000/svg" xmlns:xlink="http://www.w3.org/1999/xlink" fill="none" version="1.1" width="24" height="24" viewBox="0 0 24 24"><defs><clipPath id="master_svg0_59_3410"><rect x="0" y="0" width="24" height="24" rx="0"/></clipPath></defs><g clip-path="url(#master_svg0_59_3410)"><path d="M11.9994058625,3.0087890625C7.0337886625,3.0087890625,3.0087890625,7.0340280625,3.0087890625,11.9993095625C3.0087890625,16.964639062499998,7.0337886625,20.9899750625,11.9994058625,20.9899750625C16.964736062500002,20.9899750625,20.9899750625,16.964639062499998,20.9899750625,11.9993095625C20.9899750625,7.0340289625,16.964736062500002,3.0087890625,11.9994058625,3.0087890625ZM11.9994058625,19.8661940625C7.6546077625,19.8661940625,4.1324272625,16.3439430625,4.1324272625,11.9993104625C4.1324272625,7.6545600625,7.6545829625,4.1326203625,11.9994058625,4.1326203625C16.3441540625,4.1326203625,19.8660960625,7.6545600625,19.8660960625,11.9993104625C19.8660960625,16.3439400625,16.3441540625,19.8661940625,11.9994058625,19.8661940625ZM8.6282758625,8.852954862499999L7.7290296625,8.852954862499999C7.3566341625,8.852954862499999,7.0547265625,9.154862362500001,7.0547265625,9.5272579625C7.0547265625,9.8996057625,7.3566341625,10.2015132625,7.7290296625,10.2015132625L8.6282768625,10.2015132625C9.0006723625,10.2015132625,9.3025317625,9.8996057625,9.3025317625,9.5272579625C9.3025317625,9.154862362500001,9.0006723625,8.852954862499999,8.6282758625,8.852954862499999ZM16.2703110625,8.852954862499999L10.8757438625,8.852954862499999C10.503348362499999,8.852954862499999,10.2014884625,9.154862362500001,10.2014884625,9.5272579625C10.2014884625,9.8996057625,10.503348362499999,10.2015132625,10.8757438625,10.2015132625L16.2702860625,10.2015132625C16.6426820625,10.2015132625,16.9445400625,9.8996057625,16.9445400625,9.5272579625C16.9445660625,9.154862362500001,16.6427050625,8.852954862499999,16.2703110625,8.852954862499999ZM8.6282758625,11.5500459625L7.7290296625,11.5500459625C7.3566341625,11.5500459625,7.0547265625,11.8520011625,7.0547265625,12.2243490625C7.0547265625,12.5968398625,7.3566341625,12.8987722625,7.7290296625,12.8987722625L8.6282768625,12.8987722625C9.0006723625,12.8987722625,9.3025317625,12.5968170625,9.3025317625,12.2243490625C9.3025317625,11.8520011625,9.0006723625,11.5500459625,8.6282758625,11.5500459625ZM16.2703110625,11.5500459625L10.8757438625,11.5500459625C10.503348362499999,11.5500459625,10.2014884625,11.8520011625,10.2014884625,12.2243490625C10.2014884625,12.5968398625,10.503348362499999,12.8987722625,10.8757438625,12.8987722625L16.2702860625,12.8987722625C16.6426820625,12.8987722625,16.9445400625,12.5968170625,16.9445400625,12.2243490625C16.9445660625,11.8520011625,16.6427050625,11.5500459625,16.2703110625,11.5500459625ZM8.6282758625,14.2473290625L7.7290296625,14.2473290625C7.3566341625,14.2473290625,7.0547265625,14.5492360625,7.0547265625,14.9216320625C7.0547265625,15.2939790625,7.3566341625,15.5958850625,7.7290296625,15.5958850625L8.6282768625,15.5958850625C9.0006723625,15.5958850625,9.3025317625,15.2939790625,9.3025317625,14.9216320625C9.3025317625,14.5492360625,9.0006723625,14.2473290625,8.6282758625,14.2473290625ZM16.2703110625,14.2473290625L10.8757438625,14.2473290625C10.503348362499999,14.2473290625,10.2014884625,14.5492360625,10.2014884625,14.9216320625C10.2014884625,15.2939790625,10.503348362499999,15.5958850625,10.8757438625,15.5958850625L16.2702860625,15.5958850625C16.6426820625,15.5958850625,16.9445400625,15.2939790625,16.9445400625,14.9216320625C16.9445660625,14.5492360625,16.6427050625,14.2473290625,16.2703110625,14.2473290625Z" fill="#C5CBD8" fill-opacity="1"/></g></svg>