<svg xmlns="http://www.w3.org/2000/svg" xmlns:xlink="http://www.w3.org/1999/xlink" fill="none" version="1.1" width="16" height="16" viewBox="0 0 16 16"><defs><clipPath id="master_svg0_279_38871"><rect x="0" y="0" width="16" height="16" rx="0"/></clipPath></defs><g clip-path="url(#master_svg0_279_38871)"><path d="M12.4763890625,11.0617123L12.4763890625,9.8585119C12.4763890625,9.6665115,12.3227890625,9.503312099999999,12.1307887625,9.503312099999999C11.9131889625,9.503312099999999,11.7531890625,9.682512299999999,11.7531890625,9.9001122L11.7531890625,11.5513124C11.7531890625,11.6793127,11.8587894625,11.7849125,11.9867887625,11.7849125L13.2923890625,11.7849125C13.4971890625,11.7849125,13.6699890625,11.6185122,13.6635880625,11.4137125C13.6571880625,11.1993122,13.4811890625,11.0617123,13.2667880625,11.0617123L12.4763890625,11.0617123ZM4.6267890625,9.1993122C4.3707890625,9.1993122,4.1691889625,9.416912100000001,4.1915888625,9.6761122C4.2107887625,9.9033117,4.4091887624999995,10.0729122,4.6395888625,10.0729122L6.8731889625,10.0729122C7.1003889625,10.0729122,7.2987890625,9.9033127,7.3211889625,9.6761122C7.3435888625,9.416912100000001,7.1419887625,9.1993122,6.8859886625,9.1993122L4.6267890625,9.1993122ZM4.6267890625,5.5801125L9.461989362499999,5.5801125C9.708389262499999,5.5801125,9.9067897625,5.3785124,9.9003896625,5.1289124C9.8939895625,4.8953123000000005,9.685989362499999,4.7033124,9.452389762500001,4.7033124L4.6363887625,4.7033124C4.4059886625,4.7033124,4.2011885625000005,4.8889122,4.1883888625,5.1193123C4.1819887625,5.2441125,4.2299890625,5.3625121,4.3163885625,5.4521122C4.3995885625,5.5321121,4.5083885625,5.580112,4.6267890625,5.5801125ZM8.3995885625,7.3465123C8.3995885625,7.1065125,8.204388662500001,6.9081125,7.9611887625,6.9081125L4.6363887625,6.9081125C4.4091887624999995,6.9081125,4.2107887625,7.0777125,4.1915888625,7.3049126C4.1691889625,7.5641127,4.3739890625,7.7817125,4.629988662500001,7.7817125L7.9643888625,7.7817125C8.204388662500001,7.7881126,8.3995885625,7.5897126,8.3995885625,7.3465123ZM8.882788662500001,13.2249125L3.8747889625000003,13.2249125C3.4971890625,13.2249125,3.1867890325,12.9145125,3.1867890325,12.5369125L3.1867890325,3.3145125C3.1867890325,2.9369125,3.4971890625,2.62651253,3.8747889625000003,2.62651253L11.0779886625,2.62651253C11.4555883625,2.62651253,11.7659883625,2.9369125,11.7659883625,3.3145125L11.7659883625,6.7993126C11.7659883625,7.0425124,11.9483880625,7.2505126,12.1883878625,7.2729125C12.4635880625,7.2985125,12.6939880625,7.0809126,12.6939880625,6.8089123L12.6939880625,3.3145125C12.6939880625,2.4217124,11.9675874625,1.6953125,11.0779876625,1.6953125L3.8747889625000003,1.6953125C3.0107889224999997,1.6953125,2.3035888675,2.36731243,2.2587890625,3.2281125L2.2587890625,12.6265125C2.3035891055,13.4841125,3.0139889725,14.1561125,3.8747892625,14.1561125L8.8731889625,14.1561125C9.1067886625,14.1561125,9.3115892625,13.9897125,9.343588862499999,13.7593125C9.3851890625,13.4713125,9.1611890625,13.2249125,8.882788662500001,13.2249125ZM12.2299890625,7.8457122C10.4827890625,7.8457122,9.0619888625,9.272912,9.074789062499999,11.0265121C9.0875892625,12.7417115,10.4891891625,14.1433125,12.2075891625,14.1593125C13.9579890625,14.1721125,15.3883890625,12.7513125,15.3883890625,11.0041122C15.3851890625,9.2601118,13.9707890625,7.8457122,12.2299890625,7.8457122ZM14.5179890625,11.0009127C14.5179890625,12.2745125,13.4747900625,13.3049125,12.1979894625,13.2889125C10.9659891625,13.2729125,9.9611892625,12.2681135,9.9419889625,11.0393133C9.9227886625,9.7593136,10.9563894625,8.712913499999999,12.2299890625,8.712913499999999C13.4907890625,8.712913499999999,14.5179890625,9.7369137,14.5179890625,11.0009127Z" fill="#05C3DE" fill-opacity="1"/></g></svg>