<svg xmlns="http://www.w3.org/2000/svg" xmlns:xlink="http://www.w3.org/1999/xlink" fill="none" version="1.1" width="16" height="15.845261573791504" viewBox="0 0 16 15.845261573791504"><defs><clipPath id="master_svg0_54_6758"><rect x="0" y="0" width="16" height="15.845261573791504" rx="0"/></clipPath></defs><g clip-path="url(#master_svg0_54_6758)"><path d="M15.6595015625,13.0376305L9.3877954625,2.17568755C8.6206779625,0.84768751,7.3669829625,0.84768751,6.6000661625,2.17568755L0.3283293525,13.0376305C-0.4385874875,14.3669915,0.1888322525,15.4514015,1.7215982625,15.4514015L14.2661715625,15.4514015C15.7989995625,15.4513865,16.4257675625,14.3669135,15.6595015625,13.0376305ZM7.1324920625,5.2576532C7.3578691625,5.0139854,7.6443991625,4.8921285,7.9938464625,4.8921285C8.3434781625,4.8921285,8.6297454625,5.0127008,8.8553542625,5.2527785C9.0794935625,5.4933972,9.1915244625,5.7943187,9.1915244625,6.1561747C9.1915244625,6.4675093,8.7236719625,8.7568722,8.5676174625,10.4223881L7.4407305625,10.4223881C7.3038639625,8.756855999999999,6.7962121625,6.4675102,6.7962121625,6.1561747C6.7962441625,5.7998114,6.9084610625,5.5001287,7.1324920625,5.2576532ZM8.8395719625,13.1772055C8.6025123625,13.4080755,8.3204231625,13.5231235,7.9939236625,13.5231235C7.6675014625,13.5231235,7.3853349625,13.4080755,7.1483216625,13.1772055C6.9119582625,12.9468755,6.7944798625,12.6678815,6.7944798625,12.3402215C6.7944798625,12.0142645,6.9119582625,11.7322535,7.1483216625,11.4958885C7.3853349625,11.2594485,7.6675014625,11.1412277,7.9939236625,11.1412277C8.3204221625,11.1412277,8.6025123625,11.2594495,8.8395719625,11.4958885C9.0757808625,11.7322535,9.1935367625,12.0142645,9.1935367625,12.3402215C9.1935367625,12.6678815,9.0757799625,12.9468755,8.8395719625,13.1772055Z" fill="#FFC107" fill-opacity="1"/></g></svg>