<svg xmlns="http://www.w3.org/2000/svg" xmlns:xlink="http://www.w3.org/1999/xlink" fill="none" version="1.1" width="16" height="16" viewBox="0 0 16 16"><defs><clipPath id="master_svg0_37_7881"><rect x="0" y="0" width="16" height="16" rx="0"/></clipPath><clipPath id="master_svg1_37_7882"><rect x="2" y="-1.5" width="13.434730529785156" height="19" rx="0"/></clipPath></defs><g clip-path="url(#master_svg0_37_7881)"><g clip-path="url(#master_svg1_37_7882)"><path d="" fill="#FFFFFF" fill-opacity="0" style="mix-blend-mode:passthrough"/><path d="" fill="#FFFFFF" fill-opacity="0" style="mix-blend-mode:passthrough"/><path d="" fill="#FFFFFF" fill-opacity="0" style="mix-blend-mode:passthrough"/><path d="M11.952437371875,3.711052375C11.866679171874999,3.681713775,11.778663671875,3.595955375,11.778663671875,3.480858775C11.719986871875001,3.133311975,11.604889871874999,2.354715475,11.489793271875001,1.718298315C11.478509471875,1.6618782250000002,11.462711371874999,1.607715125,11.442400971875,1.553551795L11.431116571875,1.485847835C11.372439371875,1.081880625,10.997810371875001,0.763671875,10.593843471875001,0.763671875L10.334311471875,0.763671875L7.100316971874999,0.763671875L6.8407850718750005,0.763671875C6.4074793718750005,0.763671875,6.059931971875,1.081880625,5.974173871875,1.485847835L5.642424221875,3.591442375C5.608572181875,3.650119075,5.558922711875,3.692998175,5.484448191875,3.711052675C5.021804181875,3.855487575,4.676513671875,4.288793375,4.676513671875,4.807857475L4.676513671875,11.163004875C4.676513671875,11.682068875,5.024060781875,12.115375875,5.484448191875,12.259809875C5.570206641875,12.289147875,5.658221721875,12.374905875,5.658221721875,12.490003875C5.743980171875,12.923308875,5.917753771875,14.078790875,6.0328508718750005,14.742290875C6.091527671875,15.031158875,6.321721071875,15.234271875,6.6105916718749995,15.234271875L10.828551771875,15.234271875C11.117421171875,15.234271875,11.347615271875,15.031158875,11.406292471875,14.742290875L11.780921471875,12.490003875C11.810259771875,12.374906875,11.866679171874999,12.286891875,11.954695671875001,12.259809875C12.417339371875,12.115373875,12.762628571875,11.682068875,12.762628571875,11.163004875L12.762628571875,4.807857475C12.760371171875,4.288793375,12.415081071875,3.855487575,11.952437371875,3.711052375ZM6.563198471875,1.673162225C6.630902271875,1.5129293750000001,6.759540071875,1.393319245,6.917515971875,1.343669535L10.334311471875,1.343669535C10.623182271874999,1.343669535,10.853375871875,1.546781365,10.912052171875,1.835651775L11.171585071875,3.395100075L11.200922471875,3.598211975C11.205436271875,3.618523375,11.207692171875,3.636577575,11.214463271875001,3.656889175L6.233705871875,3.656889175L6.563198471875,1.673162225ZM6.233705871875,12.318486875L11.214463271875001,12.318486875C11.209949471875,12.336540875,11.205436271875,12.356852875,11.203180271875,12.377162875L10.828550371875,14.629449875L6.608334571875,14.629449875L6.393938471875,13.347587875L6.319464071875,12.893970875L6.233705871875,12.318486875ZM12.182631471875,11.163004875C12.182631471875,11.422538875,12.008857771875,11.625648875,11.778664571875,11.711408875C11.749326271874999,11.720435875,11.722244271874999,11.729462875,11.692906371875,11.740745875L5.732695971875,11.740745875C5.707870971875,11.729462875,5.680789471875,11.720433875,5.653707921875,11.711408875C5.423514361875,11.625648875,5.249740841875,11.422538875,5.249740841875,11.163004875L5.249740841875,4.807857475C5.249740841875,4.548325275,5.423514361875,4.345213375,5.653707921875,4.259454775C5.683046371875,4.250427975,5.710127871875,4.241399775,5.737209271875,4.230116375L11.697419171875,4.230116375C11.722244271874999,4.241399775,11.749325771875,4.250427475,11.776408171875001,4.259454775C12.006602271875,4.345213375,12.180374171875,4.548325275,12.180374171875,4.807857475L12.180374171875,11.163004875L12.182631471875,11.163004875Z" fill="#C5CBD8" fill-opacity="1"/><path d="M9.481318728125,6.624267578125C9.149568828125,6.624267578125,8.862955428125,6.809325438125,8.718520528125,7.082397758125C8.571828628125001,6.809324768125,8.285214628125,6.624267578125,7.955722448125,6.624267578125C7.477280888125,6.624267578125,7.089111328125,7.012437488125,7.089111328125,7.490878698125C7.089111328125,7.524730618125,7.091368265725,7.558582778125,7.093624859625,7.592434648125C7.100395329125,7.662395678125,7.113935923125,7.7300995781249995,7.131990392125,7.795546778125Q7.391522378125,8.711807678125,8.718520528125,9.373049778125Q10.045518828125001,8.709550878125,10.305050828125001,7.795546778125C10.323104828125,7.7300995781249995,10.336645628125,7.660138678125,10.343416428125,7.592434648125C10.345673528125,7.558582778125,10.347930428125,7.524730618125,10.347930428125,7.490878698125C10.345673128125,7.012437488125,9.959760628125,6.624267578125,9.481318728125,6.624267578125ZM10.013923628125,7.795546778125L9.587388528125,7.795546778125L9.169880828125,8.452275678125L8.910348428125,7.985117778125L8.380000628125,8.727604878125L7.980546708125,7.583407048125L7.858679528125,7.795546078125L7.418603568125,7.795546078125C7.373467598125,7.795546078125,7.332845088125,7.763951078125,7.321561138125,7.718814878125L7.321561138125,7.716558078125C7.305763588125,7.653367878125,7.353156148125,7.590177058125,7.418603568125,7.590177058125L7.7413260981250005,7.590177058125L8.025682628125,7.091424078125L8.440933728125,8.287528278125L8.928402828125,7.603718038125L9.178907828125,8.052820878125L9.472291428125,7.590177058125L10.011666728125,7.590177058125C10.077113828125,7.590177058125,10.126763828125,7.6511108781249995,10.108708828125,7.716558078125L10.108708828125,7.718814878125C10.099681828125,7.763951678125,10.061316728125,7.795546778125,10.013923628125,7.795546778125Z" fill="#C5CBD8" fill-opacity="1"/></g></g></svg>