<svg xmlns="http://www.w3.org/2000/svg" xmlns:xlink="http://www.w3.org/1999/xlink" fill="none" version="1.1" width="16" height="16" viewBox="0 0 16 16"><defs><clipPath id="master_svg0_37_7843"><rect x="0" y="0" width="16" height="16" rx="0"/></clipPath></defs><g clip-path="url(#master_svg0_37_7843)"><path d="M8,14C9.6980009,13.958,11.112,13.372002,12.242002,12.242C13.372002,11.112001,13.958,9.6980009,14,8C13.958,6.302001,13.372002,4.887999499999999,12.242,3.7580001C11.112001,2.6280001,9.6980009,2.0420002,8,2C6.302001,2.0420002,4.887999499999999,2.6280001,3.7580001,3.7580001C2.6280001,4.887999499999999,2.0420002,6.302001,2,8C2.0420002,9.6980009,2.6280001,11.112,3.7580001,12.242002C4.887999499999999,13.372002,6.302001,13.958,8,14ZM8,15C6.0206671,14.948002,4.371999499999999,14.263334,3.0546668,12.945334C1.73666662,11.628001,1.052000046,9.9800014,1,8C1.052000046,6.0206671,1.73666662,4.371999499999999,3.054667,3.0546668C4.3720005,1.73666662,6.0200005,1.052000046,8,1C9.9793329,1.052000046,11.628001,1.73666662,12.945334,3.054667C14.263334,4.3720005,14.948002,6.0200005,15,8C14.948002,9.9793329,14.263334,11.628001,12.945334,12.945334C11.628001,14.263334,9.9800014,14.948002,8,15Z" fill="#C5CBD8" fill-opacity="1"/><g><path d="M8.668735942773438,8.21761822616272C8.671246042773438,6.89181922616272,8.432495842773438,4.89370562616272,7.952294112773437,2.22269964218272C7.473976592773438,4.890682726162719,7.233274331773438,6.88670852616272,7.230957272983438,8.21308442616272L7.230957269673437,8.21308632616272C7.233044428973438,8.25027682616272,7.235383861673437,8.28677632616272,7.237975567573438,8.32258442616272C7.305223479773438,9.251705926162721,7.542318252773438,9.71537422616272,7.949258802773437,9.71358702616272Q8.028500732773438,9.71323892616272,8.099174082773438,9.68960352616272Q8.593887342773437,9.52415492616272,8.668735942773438,8.21761822616272Z" fill-rule="evenodd" fill="#C5CBD8" fill-opacity="1"/></g></g></svg>