<svg xmlns="http://www.w3.org/2000/svg" xmlns:xlink="http://www.w3.org/1999/xlink" fill="none" version="1.1" width="16" height="16" viewBox="0 0 16 16"><defs><clipPath id="master_svg0_42_3176"><rect x="0" y="0" width="16" height="16" rx="0"/></clipPath></defs><g clip-path="url(#master_svg0_42_3176)"><path d="M11.500072,5C11.750072,5,11.8266344,4.65999997,11.6000719,4.55343747C10.587415700000001,4.078125,9.343822,3.796875,8.000072,3.796875C6.656321999999999,3.796875,5.4127282,4.078125,4.40054077,4.55343747C4.173978277,4.65999997,4.250072022,5,4.50007202,5L11.500072,5Z" fill="#C5CBD8" fill-opacity="1"/><g><path d="M2.0897237623721314,10.3344140125L1.8397237632721313,7.1092578125C1.7834772723721313,6.3787719625,2.3609814023721314,5.75499511718,3.0936299423721314,5.7548828125L12.897379142372131,5.7548828125C13.630554142372132,5.75477172852,14.208431142372131,6.3792266825,14.151598142372132,7.1101953125L13.901598142372132,10.3353515125C13.850682142372131,10.9903307125,13.304335142372132,11.4958386125,12.647379142372131,11.495820012500001L10.237379642372131,11.495820012500001C9.866772342372132,11.495871512499999,9.515004242372132,11.3324790125,9.27597344237213,11.049257712500001L8.957379942372132,10.6717577125C8.454746842372131,10.076293912499999,7.537201542372132,10.076293912499999,7.034567442372131,10.6717577125L6.715973542372131,11.0483203125C6.476943642372131,11.3315415125,6.1251751423721315,11.494934112500001,5.754567542372131,11.4948826125L3.3439425423721314,11.4948826125C2.6869878123721316,11.4949012125,2.1406417223721315,10.9893932125,2.0897237623721314,10.3344140125ZM2.8472343423721314,10.1941023125L2.595203222372131,7.0650396125C2.5742529023721312,6.8012586125,2.7824663523721314,6.5755499025,3.047078242372131,6.5751959125L12.94317214237213,6.5751959125C13.209247142372131,6.5748053225,13.418638142372131,6.8022467125,13.39629714237213,7.0673834125L13.13223414237213,10.1966019125C13.110142142372132,10.4590764125,12.890638142372131,10.6608548125,12.627234142372131,10.6608209125L10.336609442372131,10.6608209125C10.163076042372131,10.660685512499999,9.995050042372132,10.5998869125,9.861610042372131,10.4889459125L9.009109642372131,9.7825394125C8.41742624237213,9.2922504125,7.560635642372131,9.2922504125,6.968953242372131,9.7825394125L6.115984542372131,10.4883208125C5.982496842372131,10.599284212499999,5.814413442372132,10.6600833125,5.6408280423721315,10.6601958125L3.3523906423721312,10.6601958125C3.0882647423721314,10.6602311125,2.868410242372131,10.457378412499999,2.8472343423721314,10.1941023125Z" fill-rule="evenodd" fill="#C5CBD8" fill-opacity="1"/></g><path d="M12.3121911375,7.14470824975L12.3123266375,7.14478637675Q12.5835008375,7.30134886375,12.4269384375,7.57252317375L11.0675634775,9.92702984375Q10.9110009675,10.19820424375,10.6398266575,10.04164174375L10.6396911575,10.04156374375Q10.3685168475,9.88500114375,10.5250793435,9.61382674375L11.8844543375,7.25932006375Q12.041016837499999,6.98814575375,12.3121911375,7.14470824975Z" fill="#C5CBD8" fill-opacity="1"/><path d="M12.52510130875,8.87322387475L12.52523678875,8.87330200175Q12.796411118750001,9.02986448875,12.63984858875,9.30103879875L12.25555175875,9.96666076875Q12.09898924875,10.23783506875,11.82781493875,10.08127256875L11.82767943875,10.08119436875Q11.55650512875,9.924631968749999,11.71306762475,9.65345763875L12.09736448875,8.98783568875Q12.253926988749999,8.71666137875,12.52510130875,8.87322387475Z" fill="#C5CBD8" fill-opacity="1"/></g></svg>