<svg xmlns="http://www.w3.org/2000/svg" xmlns:xlink="http://www.w3.org/1999/xlink" fill="none" version="1.1" width="16" height="16" viewBox="0 0 16 16"><defs><clipPath id="master_svg0_37_7924"><rect x="16" y="0" width="16" height="16" rx="0"/></clipPath></defs><g transform="matrix(-1,0,0,1,32,0)" clip-path="url(#master_svg0_37_7924)"><path d="M23.75392100625,0.31414928750000004C23.791864906249998,0.3235916975,23.82980870625,0.3330340675,23.86890170625,0.3427625775C25.40810110625,0.7358627275,26.792155306250002,1.4725693875,27.953921306250002,2.5541493875C27.99901290625,2.5952963875,27.99901290625,2.5952963875,28.04501530625,2.6372744875C28.66339020625,3.2241322875,29.14246990625,4.0500969875,29.20204590625,4.9116491875C29.21441290625,5.7196178875,28.94086790625,6.3959149875,28.388921706250002,6.9791497875C28.10332770625,7.2561363875,27.78197380625,7.4545549875,27.41642090625,7.6091494875C27.20245930625,7.7011599875,27.024448406250002,7.8264803875,26.83938980625,7.9659266875C26.70260240625,8.0684799875,26.57313250625,8.1438912875,26.41642090625,8.2141494875C26.22799010625,8.3260097875,26.17174240625,8.4729537875,26.10110850625,8.6713370875C26.08935780625,8.7029294875,26.07760570625,8.7345227875,26.06549830625,8.7670735875C26.02769990625,8.8692216875,25.99076600625,8.9716548875,25.95392080625,9.0741490875C25.92897940625,9.1425304875,25.90401550625,9.2109021875,25.87902830625,9.2792663875C25.80394080625,9.4855804875,25.73011020625,9.6923322875,25.656421206250002,9.8991498875C25.63072730625,9.9710273875,25.60502480625,10.0429029875,25.57931140625,10.1147746875C25.51741120625,10.2878631875,25.45563120625,10.4609941875,25.39392090625,10.6341491875C25.41851760625,10.6449261875,25.44311140625,10.6557021875,25.46845240625,10.6668051875C25.62554310625,10.7538231875,25.69867180625,10.9084021875,25.75392100625,11.0741491875C25.794866106249998,11.4358271875,25.66440060625,11.8345271875,25.44142100625,12.1216501875C25.24383780625,12.3227791875,24.98426630625,12.3659891875,24.713921106249998,12.3941491875C24.70712420625,12.4176921875,24.70032740625,12.4412331875,24.69332410625,12.4654881875C24.61517000625,12.7315551875,24.52655550625,12.9927811875,24.43313980625,13.2538371875C24.41027640625,13.3178701875,24.41027640625,13.3178701875,24.38695190625,13.3831941875C24.35483790625,13.4729661875,24.32266520625,13.5627181875,24.29043480625,13.6524501875C24.24169640625,13.7883831875,24.19339080625,13.9244661875,24.14509300625,14.0605561875C23.72988320625,15.2226991875,23.72988320625,15.2226991875,23.31392140625,15.6741501875C23.28484010625,15.7084121875,23.28484010625,15.7084121875,23.25517130625,15.7433691875C23.08368250625,15.9061921875,22.86906960625,15.8969521875,22.64540550625,15.8923141875C21.87950780625,15.8584951875,21.13411500625,15.7070181875,20.39392120625,15.5141491875C20.36084390625,15.5055841875,20.32776640625,15.4970191875,20.29368690625,15.4881921875C19.75370329625,15.3436301875,19.75370329625,15.3436301875,19.60438996625,15.1274311875C19.32286071625,14.6070801875,19.14666810625,14.1400471875,19.13642120625,13.5416491875C19.13552215625,13.5084881875,19.13462313625,13.4753281875,19.13369661625,13.4411611875C19.13604858625,12.8140551875,19.41975134625,12.1991291875,19.63142120625,11.6191491875C19.66306096625,11.5318821875,19.69468510625,11.4446101875,19.72629421625,11.3573331875C20.00579810625,10.5867981875,20.28963510625,9.8178414875,20.57357940625,9.0489339875C20.77702470625,8.4979352875,20.97947020625,7.9466080875,21.17892150625,7.3941492875C21.189422606249998,7.3651046875,21.19992420625,7.3360590875,21.21074370625,7.3061341875C21.31535790625,7.0166115875,21.41829990625,6.7267889875,21.51392130625,6.4341492875C21.48339600625,6.4258989875,21.45287110625,6.4176492875,21.42142130625,6.4091491875C20.39640450625,6.0269398875,19.43104642625,5.0826906875,18.97220246625,4.1022743875C18.69754577425,3.4289226875,18.69164428825,2.7895371875,18.94392120625,2.1066493875C19.29958772625,1.2900819875,19.98069610625,0.6892812875,20.79392120625,0.3541492975C21.71054790625,0.0199035075,22.81880470625,0.0777824785,23.75392100625,0.31414928750000004ZM19.83204630625,1.6825868875C19.52757996625,2.0449825875,19.32109683625,2.4823946875,19.27392119625,2.9541492875C19.31390780625,2.9425475875,19.31390780625,2.9425475875,19.35470247625,2.9307117875C19.39156955625,2.9202961875,19.42843693625,2.9098803875,19.46642124625,2.8991491875C19.50215393625,2.8889398875,19.53788697625,2.8787304875,19.57470244625,2.8682117875C19.62064456625,2.8569712875,19.66658699625,2.8457305875,19.71392124625,2.8341490875C19.74188417625,2.8270628875,19.76984710625,2.8199758875,19.79865750625,2.8126744875C20.15126070625,2.7352621875,20.50617370625,2.7406668875,20.86533710625,2.7415222875C20.97522040625,2.7416479875,21.08505920625,2.7407109875,21.19493700625,2.7396962875C21.793379506249998,2.7375168875,22.37281610625,2.7991091875,22.94642160625,2.9791493875C22.97913500625,2.9892425875,23.01184800625,2.9993359875,23.04555220625,3.0097350875C23.99065970625,3.3119251875,24.86639070625,3.7825755875,25.67392110625,4.3541493875C25.70161060625,4.3736400875,25.72929910625,4.3931307875,25.75782730625,4.4132117875C27.30734540625,5.5128688875,27.30734540625,5.5128688875,27.47392180625,6.2741493875C27.48287770625,6.3842763875,27.49047850625,6.4938716875,27.496420906250002,6.6041497875C27.49814890625,6.6339525875,27.49987600625,6.6637558875,27.50165560625,6.6944617875C27.50588030625,6.7676834875,27.50991920625,6.8409156875,27.513921706250002,6.9141497875C27.92343330625,6.7681994875,28.24376490625,6.3813261875,28.443921106250002,6.0066494875C28.722755406250002,5.4169239875,28.71531580625,4.8829912875,28.513921706250002,4.2741493875C28.18530940625,3.4383308875,27.51234240625,2.7875144875,26.79392150625,2.2741493875C26.77194980625,2.2581908875,26.74997710625,2.2422322875,26.727339306250002,2.2257899875C24.86983440625,0.8872219875,21.64180920625,-0.2722335725,19.83204630625,1.6825868875ZM19.35392123625,3.5541493875C19.62506627625,4.5388331875,20.51963030625,5.2849211875,21.35892130625,5.8016490875C21.38451240625,5.8176173875,21.41010360625,5.8335857875,21.43647000625,5.8500380875C21.50039930625,5.8881072875,21.56703850625,5.9215464875,21.63392140625,5.9541492875C21.77693320625,5.9064783875,21.78834410625,5.8744029875,21.86392120625,5.7491492875C22.13863230625,5.3291205875,22.46738480625,5.1605314875,22.91392130625,4.9541492875C22.825039906249998,4.8948950875,22.74418950625,4.8471488875,22.64923360625,4.8005556875C22.60785480625,4.7800979875,22.60785480625,4.7800979875,22.56564000625,4.7592272875C22.50814130625,4.7309960875,22.45064090625,4.7027668875,22.39314010625,4.6745400875C22.05370260625,4.5067171875,22.05370260625,4.5067171875,21.95392130625,4.4341492875C21.936421106250002,4.2916493875,21.936421106250002,4.2916493875,21.95392130625,4.1541494875C22.03392150625,4.0741493875,22.03392150625,4.0741493875,22.16017130625,4.0600869875C22.33677080625,4.076239087499999,22.46180080625,4.1348547875,22.61392140625,4.2191495875C22.82871050625,4.3322243875,23.04326250625,4.4369806875,23.26892140625,4.5266489875C23.31419320625,4.5446447875,23.35946510625,4.5626401875,23.40610880625,4.5811805875C23.45488690625,4.5986599875,23.50366500625,4.6161398875,23.55392120625,4.6341490875C23.583177106249998,4.6454705875,23.61243200625,4.6567916875,23.64257380625,4.6684560875C23.92589430625,4.7681746875,24.17296270625,4.7569098875,24.468921206250002,4.7266492875C24.51347110625,4.7229628875,24.55802110625,4.7192759875,24.60392140625,4.7154774875C24.869961306249998,4.6940111875,24.869961306249998,4.6940111875,25.113921206249998,4.5941495875C23.898025006250002,3.7596690875,22.56281640625,3.2176930875,21.07675340625,3.2215222875C20.97407320625,3.2216488875,20.87143920625,3.2207052875,20.76876520625,3.2196960875C20.25454890625,3.2176847875,19.78348150625,3.2425076875,19.35392123625,3.5541493875ZM22.43392160625,5.7941493875C21.98883800625,6.3102211875,21.79487610625,7.0997733875,21.82017110625,7.7669615875C21.84905340625,8.0761322875,21.95786690625,8.2693748875,22.19485900625,8.4664935875C22.44256780625,8.6158046875,22.69332100625,8.6081475875,22.97392130625,8.6066493875C23.04026320625,8.6063108875,23.04026320625,8.6063108875,23.10794500625,8.6059655875C24.31258820625,8.5885696875,25.44345950625,8.2732820875,26.44489760625,7.6003989875C26.50595190625,7.5594896875,26.56784920625,7.5198449875,26.62985850625,7.4803995875C26.82987120625,7.3431748875,26.92612460625,7.2229852875,26.97923370625,6.9839930875C27.02402590625,6.6490044875,27.03957840625,6.3558935875,26.83392140625,6.0741495875C26.72062400625,5.9336957875,26.60043670625,5.8027624875,26.47392130625,5.6741494875C26.44736720625,5.6470789875,26.42081210625,5.6200084875,26.39345260625,5.5921182875C25.57441090625,4.8162717875,23.230531706249998,5.0160646875,22.43392160625,5.7941493875ZM21.39392140625,8.3541497875C21.38567520625,8.3768262875,21.37742920625,8.3995017875,21.36893340625,8.4228658875C21.35713460625,8.4553126875,21.34533570625,8.4877605875,21.33317920625,8.5211906875C21.31971570625,8.5582151875,21.30625250625,8.5952396875,21.29238130625,8.6333856875C21.26151350625,8.7182721875,21.23064370625,8.8031577875,21.19977260625,8.8880424875C21.11182760625,9.1298703875,21.02391050625,9.3717088875,20.93604040625,9.6135635875C20.89893200625,9.7156877875,20.861819006250002,9.8178090875,20.82470250625,9.9199304875C20.81530360625,9.9457912875,20.80590410625,9.9716519875,20.796220506250002,9.9982967875C20.66286150625,10.3651661875,20.52900340625,10.7318501875,20.39478430625,11.0984071875C20.33111210625,11.2723681875,20.26756810625,11.4463771875,20.20400420625,11.6203791875C20.16916300625,11.7156411875,20.13425810625,11.8108791875,20.09928740625,11.9060931875C20.05020060625,12.0397621875,20.00133590625,12.1735101875,19.95251500625,12.3072751875C19.93817320625,12.3461461875,19.92383120625,12.3850181875,19.90905490625,12.4250701875C19.66132813625,13.1061651875,19.55298739625,13.7343011875,19.84079620625,14.4269631875C19.93747840625,14.6316651875,20.02976380625,14.8181871875,20.245610706249998,14.9154771875C20.29589880625,14.9302891875,20.29589880625,14.9302891875,20.34720250625,14.9453991875C20.38530060625,14.9567111875,20.42339920625,14.9680221875,20.46265160625,14.9796771875C20.52391750625,14.9967411875,20.52391750625,14.9967411875,20.58642120625,15.0141491875C20.62870880625,15.0261941875,20.67099670625,15.0382431875,20.71456590625,15.0506531875C21.27797440625,15.2059811875,21.85202960625,15.3031051875,22.43392160625,15.3541491875C22.47336700625,15.3577591875,22.51281210625,15.3613691875,22.55345270625,15.3650861875C22.720309006249998,15.3723781875,22.80567450625,15.3746941875,22.94392160625,15.2741501875C22.97362140625,15.2345501875,23.00332160625,15.1949491875,23.03392170625,15.1541491875C23.05217460625,15.1346071875,23.07042790625,15.1150651875,23.08923390625,15.0949311875C23.24248460625,14.9196161875,23.32215400625,14.7270301875,23.40298410625,14.5121181875C23.41498710625,14.4807081875,23.42698950625,14.4492981875,23.43935580625,14.4169381875C23.47779230625,14.3161001875,23.51587910625,14.2151351875,23.55392120625,14.1141501875C23.579173606250002,14.0475251875,23.60442730625,13.9809011875,23.629683006249998,13.9142761875C23.69253830625,13.7480031875,23.75469400625,13.5814811875,23.81649920625,13.4148131875C23.841891306249998,13.3465111875,23.86741640625,13.2782561875,23.89306160625,13.2100481875C23.93072410625,13.1098551875,23.96799280625,13.0095231875,24.00517080625,12.9091491875C24.01674890625,12.8785731875,24.02832600625,12.8479961875,24.04025410625,12.8164931875C24.067148706250002,12.7431941875,24.09085610625,12.6687421875,24.113921206249998,12.5941491875C24.10072140625,12.5677491875,24.08752150625,12.5413491875,24.07392070625,12.5141491875C23.99679900625,12.5014871875,23.99679900625,12.5014871875,23.906421206250002,12.4991491875C23.72256280625,12.4816401875,23.61534070625,12.4391251875,23.47392130625,12.3141501875C23.32061960625,12.1205051875,23.28017810625,11.9522111875,23.28767160625,11.7058681875C23.35791920625,11.2998531875,23.54378180625,10.6520651875,23.86548380625,10.3718061875C24.15812400625,10.2317121875,24.41983320625,10.2386641875,24.726733706250002,10.3352431875C24.76200870625,10.3462231875,24.79728410625,10.3572021875,24.83362820625,10.3685141875C24.86012550625,10.3769741875,24.88662190625,10.3854331875,24.91392090625,10.3941491875C24.99391750625,10.1742661875,25.07366420625,9.9542951875,25.15317870625,9.7342366875C25.18027210625,9.6593684875,25.207433206250002,9.5845250875,25.23466350625,9.5097064875C25.27376270625,9.4022407875,25.31261540625,9.2946891875,25.35142130625,9.1871175875C25.363671306249998,9.1536140875,25.375920306250002,9.1201104875,25.38853980625,9.0855922875C25.39975210625,9.0543689875,25.41096450625,9.0231446875,25.42251540625,8.9909753875C25.432464106250002,8.9635285875,25.44241190625,8.9360818875,25.45266100625,8.9078034875C25.47946790625,8.8277110875,25.47946790625,8.8277110875,25.47392130625,8.7141494875C25.28820420625,8.7545880875,25.103179006250002,8.7962445875,24.91892100625,8.8428992875C24.27274460625,9.0057611875,23.66565180625,9.0805730875,22.99892140625,9.0891494875C22.92544510625,9.0907201875,22.92544510625,9.0907201875,22.85048390625,9.0923232875C22.44441030625,9.0930680875,22.07568740625,9.0160512875,21.75392130625,8.7541493875C21.68971700625,8.6852016875,21.62893100625,8.6147536875,21.56970260625,8.5414933875C21.51447580625,8.4748191875,21.45548920625,8.4149303875,21.39392140625,8.3541497875ZM24.16902880625,10.8030071875C24.06232690625,10.9407571875,24.01001170625,11.1057771875,23.94642110625,11.2666501875C23.92433980625,11.3200561875,23.92433980625,11.3200561875,23.90181160625,11.3745401875C23.791356606249998,11.6365381875,23.791356606249998,11.6365381875,23.79392150625,11.9141491875C23.89946600625,11.9956181875,23.96314520625,12.0346121875,24.097905606250002,12.0325871875C24.134128606250002,12.0248531875,24.17035100625,12.0171181875,24.207671206249998,12.0091491875C24.26761250625,11.9963881875,24.26761250625,11.9963881875,24.32876490625,11.9833681875C24.37006660625,11.9737261875,24.41136880625,11.9640831875,24.45392130625,11.9541501875C24.49522300625,11.9457451875,24.53652480625,11.9373411875,24.57907720625,11.9286801875C24.81100420625,11.8769081875,24.96648360625,11.8331601875,25.113921206249998,11.6341491875C25.19351960625,11.4949841875,25.23498770625,11.3621241875,25.23142100625,11.2016491875C25.16453270625,11.0455771875,25.03502080625,10.9910341875,24.88392110625,10.9299301875C24.82735780625,10.9085611875,24.77068760625,10.8874731875,24.713921106249998,10.8666491875C24.67122790625,10.8502911875,24.67122790625,10.8502911875,24.62767120625,10.8336021875C24.39452500625,10.7348361875,24.39452500625,10.7348361875,24.16902880625,10.8030071875Z" fill="#C5CBD8" fill-opacity="1"/><path d="M23.72615234375,6.3618217895C23.94160814375,6.5071291725,24.06632414375,6.6458295925,24.13818354375,6.8958842725C24.17253874375,7.1145074925,24.133546343749998,7.3025660125,24.01255874375,7.4879155125C23.86184604375,7.6702875125,23.74355534375,7.7781863125,23.50365239375,7.8040093125C23.25853002375,7.8167137125,23.07498890375,7.7774012125,22.87365234375,7.6343218125C22.70482780775,7.4654974124999995,22.64523056175,7.2965959925,22.61865234375,7.0618217625C22.64089576675,6.8430947625,22.70004394675,6.6441007525,22.86240235375,6.4883842925C23.12746751375,6.2940780879,23.41646653375,6.2508023265,23.72615234375,6.3618217895ZM23.19365233375,6.9143218425C23.15181881375,7.0108608025,23.14989799375,7.0597215325,23.17615240375,7.1618217825C23.23173385375,7.2457386825,23.23173385375,7.2457386825,23.35115236375,7.2718217925C23.47003853375,7.2839843025,23.47003853375,7.2839843025,23.55115234375,7.2343217724999995C23.61724084375,7.1099199625,23.58140325375,7.0080308325,23.55365240375,6.8743218225C23.36402177375,6.8268426025,23.36402177375,6.8268426025,23.19365233375,6.9143218425Z" fill="#C5CBD8" fill-opacity="1"/></g></svg>