<svg xmlns="http://www.w3.org/2000/svg" xmlns:xlink="http://www.w3.org/1999/xlink" fill="none" version="1.1" width="16" height="16" viewBox="0 0 16 16"><defs><clipPath id="master_svg0_37_7866"><rect x="16" y="0" width="16" height="16" rx="0"/></clipPath></defs><g transform="matrix(-1,0,0,1,32,0)" clip-path="url(#master_svg0_37_7866)"><path d="M26.7732849,4.517473C26.6425834,3.8317745,25.6822281,0.6267948999999999,23.2197735,1.035941053Q22.2780846,1.19238578,21.73588604,1.74254227Q20.5777978,2.9176278,21.2422314,5.8888726Q21.63054097,7.9440751,22.539755,10.1962729L25.4243822,10.0577536L26.3660326,10.012536C26.3206229,9.7734871,26.3122039,9.5053892,26.327811699999998,9.2166042C26.3554783,8.7047124,26.4586387,8.127818600000001,26.5650969,7.5324821C26.7493167,6.502286,26.9434118,5.4168639,26.7732849,4.517473ZM22.1634328,5.7148209Q22.4812701,7.3970351,23.1683691,9.2275066L25.4116406,9.1197853Q25.4577303,8.3992486,25.6422358,7.3674564Q25.989881,5.4233503,25.852365,4.6930101L25.852119000000002,4.6917197999999996Q25.6716723,3.7465293,25.0939164,2.8906834999999997Q24.3559494,1.79751319,23.3734357,1.96076143Q22.4137233,2.1202011,22.1170464,2.8482529000000003Q21.73344672,3.7896144,22.1571344,5.6842813L22.1605378,5.6994982L22.1634328,5.7148209ZM22.8541923,11.654805Q22.517877,14.04047,23.4417455,14.72477Q23.9644241,15.111913,24.8904536,14.954494Q25.3860602,14.869952,25.707541499999998,14.587337Q26.5889516,13.812489,26.161458500000002,11.54873L22.8541923,11.654805ZM23.7044563,12.565516L25.3507814,12.512713Q25.4072266,13.214782,25.2570848,13.6171Q25.1280255,13.962926,24.7333393,14.030252Q24.0749559,14.142173,23.8977802,13.855066Q23.6591954,13.468449,23.7044563,12.565516Z" fill-rule="evenodd" fill="#C5CBD8" fill-opacity="1"/></g></svg>