<svg xmlns="http://www.w3.org/2000/svg" xmlns:xlink="http://www.w3.org/1999/xlink" fill="none" version="1.1" width="16" height="16" viewBox="0 0 16 16"><defs><clipPath id="master_svg0_37_7918"><rect x="0" y="0" width="16" height="16" rx="0"/></clipPath></defs><g clip-path="url(#master_svg0_37_7918)"><path d="M7.75392100625,0.31414928750000004C7.79186490625,0.3235916975,7.82980870625,0.3330340675,7.86890170625,0.3427625775C9.408101106250001,0.7358627275,10.79215530625,1.4725693875,11.95392130625,2.5541493875C11.99901290625,2.5952963875,11.99901290625,2.5952963875,12.04501530625,2.6372744875C12.66339020625,3.2241322875,13.14246990625,4.0500969875,13.20204590625,4.9116491875C13.21441290625,5.7196178875,12.94086790625,6.3959149875,12.38892170625,6.9791497875C12.10332770625,7.2561363875,11.78197380625,7.4545549875,11.41642090625,7.6091494875C11.20245930625,7.7011599875,11.02444840625,7.8264803875,10.83938980625,7.9659266875C10.70260240625,8.0684799875,10.573132506250001,8.1438912875,10.41642090625,8.2141494875C10.227990106250001,8.3260097875,10.17174240625,8.4729537875,10.10110850625,8.6713370875C10.08935780625,8.7029294875,10.07760570625,8.7345227875,10.06549830625,8.7670735875C10.02769990625,8.8692216875,9.99076600625,8.9716548875,9.95392080625,9.0741490875C9.92897940625,9.1425304875,9.904015506250001,9.2109021875,9.87902830625,9.2792663875C9.80394080625,9.4855804875,9.73011020625,9.6923322875,9.65642120625,9.8991498875C9.63072730625,9.9710273875,9.60502480625,10.0429029875,9.57931140625,10.1147746875C9.51741120625,10.2878631875,9.45563120625,10.4609941875,9.393920906249999,10.6341491875C9.41851760625,10.6449261875,9.44311140625,10.6557021875,9.46845240625,10.6668051875C9.62554310625,10.7538231875,9.698671806250001,10.9084021875,9.75392100625,11.0741491875C9.79486610625,11.4358271875,9.66440060625,11.8345271875,9.44142100625,12.1216501875C9.24383780625,12.3227791875,8.98426630625,12.3659891875,8.71392110625,12.3941491875C8.70712420625,12.4176921875,8.70032740625,12.4412331875,8.69332410625,12.4654881875C8.61517000625,12.7315551875,8.52655550625,12.9927811875,8.43313980625,13.2538371875C8.41027640625,13.3178701875,8.41027640625,13.3178701875,8.386951906250001,13.3831941875C8.354837906250001,13.4729661875,8.32266520625,13.5627181875,8.290434806250001,13.6524501875C8.24169640625,13.7883831875,8.193390806250001,13.9244661875,8.14509300625,14.0605561875C7.72988320625,15.2226991875,7.72988320625,15.2226991875,7.31392140625,15.6741501875C7.28484010625,15.7084121875,7.28484010625,15.7084121875,7.25517130625,15.7433691875C7.08368250625,15.9061921875,6.86906960625,15.8969521875,6.64540550625,15.8923141875C5.87950780625,15.8584951875,5.13411500625,15.7070181875,4.39392120625,15.5141491875C4.36084390625,15.5055841875,4.32776640625,15.4970191875,4.2936869062500005,15.4881921875C3.75370329625,15.3436301875,3.75370329625,15.3436301875,3.60438996625,15.1274311875C3.32286071625,14.6070801875,3.14666810625,14.1400471875,3.13642120625,13.5416491875C3.13552215625,13.5084881875,3.13462313625,13.4753281875,3.13369661625,13.4411611875C3.13604858625,12.8140551875,3.41975134625,12.1991291875,3.6314212062499998,11.6191491875C3.6630609662499998,11.5318821875,3.69468510625,11.4446101875,3.72629421625,11.3573331875C4.00579810625,10.5867981875,4.2896351062499996,9.8178414875,4.5735794062499995,9.0489339875C4.77702470625,8.4979352875,4.979470206249999,7.9466080875,5.17892150625,7.3941492875C5.18942260625,7.3651046875,5.1999242062499995,7.3360590875,5.21074370625,7.3061341875C5.31535790625,7.0166115875,5.418299906250001,6.7267889875,5.513921306249999,6.4341492875C5.4833960062500005,6.4258989875,5.45287110625,6.4176492875,5.42142130625,6.4091491875C4.39640450625,6.0269398875,3.43104642625,5.0826906875,2.97220246625,4.1022743875C2.69754577425,3.4289226875,2.69164428825,2.7895371875,2.94392120625,2.1066493875C3.29958772625,1.2900819875,3.98069610625,0.6892812875,4.793921206249999,0.3541492975C5.7105479062499995,0.0199035075,6.81880470625,0.0777824785,7.75392100625,0.31414928750000004ZM3.83204630625,1.6825868875C3.5275799662500003,2.0449825875,3.3210968362499997,2.4823946875,3.27392119625,2.9541492875C3.31390780625,2.9425475875,3.31390780625,2.9425475875,3.35470247625,2.9307117875C3.39156955625,2.9202961875,3.42843693625,2.9098803875,3.46642124625,2.8991491875C3.50215393625,2.8889398875,3.5378869762500003,2.8787304875,3.57470244625,2.8682117875C3.62064456625,2.8569712875,3.66658699625,2.8457305875,3.71392124625,2.8341490875C3.74188417625,2.8270628875,3.7698471062500003,2.8199758875,3.79865750625,2.8126744875C4.1512607062499995,2.7352621875,4.50617370625,2.7406668875,4.86533710625,2.7415222875C4.97522040625,2.7416479875,5.0850592062499995,2.7407109875,5.19493700625,2.7396962875C5.79337950625,2.7375168875,6.37281610625,2.7991091875,6.94642160625,2.9791493875C6.97913500625,2.9892425875,7.01184800625,2.9993359875,7.04555220625,3.0097350875C7.99065970625,3.3119251875,8.86639070625,3.7825755875,9.673921106249999,4.3541493875C9.70161060625,4.3736400875,9.72929910625,4.3931307875,9.75782730625,4.4132117875C11.30734540625,5.5128688875,11.30734540625,5.5128688875,11.47392180625,6.2741493875C11.48287770625,6.3842763875,11.49047850625,6.4938716875,11.49642090625,6.6041497875C11.49814890625,6.6339525875,11.49987600625,6.6637558875,11.50165560625,6.6944617875C11.50588030625,6.7676834875,11.50991920625,6.8409156875,11.51392170625,6.9141497875C11.92343330625,6.7681994875,12.24376490625,6.3813261875,12.44392110625,6.0066494875C12.72275540625,5.4169239875,12.71531580625,4.8829912875,12.51392170625,4.2741493875C12.18530940625,3.4383308875,11.51234240625,2.7875144875,10.79392150625,2.2741493875C10.77194980625,2.2581908875,10.74997710625,2.2422322875,10.72733930625,2.2257899875C8.86983440625,0.8872219875,5.6418092062500005,-0.2722335725,3.83204630625,1.6825868875ZM3.35392123625,3.5541493875C3.62506627625,4.5388331875,4.51963030625,5.2849211875,5.35892130625,5.8016490875C5.38451240625,5.8176173875,5.41010360625,5.8335857875,5.4364700062499995,5.8500380875C5.500399306249999,5.8881072875,5.56703850625,5.9215464875,5.63392140625,5.9541492875C5.77693320625,5.9064783875,5.788344106249999,5.8744029875,5.86392120625,5.7491492875C6.13863230625,5.3291205875,6.46738480625,5.1605314875,6.91392130625,4.9541492875C6.82503990625,4.8948950875,6.744189506250001,4.8471488875,6.64923360625,4.8005556875C6.60785480625,4.7800979875,6.60785480625,4.7800979875,6.56564000625,4.7592272875C6.50814130625,4.7309960875,6.450640906249999,4.7027668875,6.39314010625,4.6745400875C6.05370260625,4.5067171875,6.05370260625,4.5067171875,5.95392130625,4.4341492875C5.93642110625,4.2916493875,5.93642110625,4.2916493875,5.95392130625,4.1541494875C6.03392150625,4.0741493875,6.03392150625,4.0741493875,6.16017130625,4.0600869875C6.33677080625,4.076239087499999,6.46180080625,4.1348547875,6.61392140625,4.2191495875C6.82871050625,4.3322243875,7.04326250625,4.4369806875,7.26892140625,4.5266489875C7.31419320625,4.5446447875,7.35946510625,4.5626401875,7.40610880625,4.5811805875C7.45488690625,4.5986599875,7.50366500625,4.6161398875,7.55392120625,4.6341490875C7.58317710625,4.6454705875,7.61243200625,4.6567916875,7.64257380625,4.6684560875C7.92589430625,4.7681746875,8.17296270625,4.7569098875,8.46892120625,4.7266492875C8.51347110625,4.7229628875,8.55802110625,4.7192759875,8.603921406249999,4.7154774875C8.86996130625,4.6940111875,8.86996130625,4.6940111875,9.11392120625,4.5941495875C7.89802500625,3.7596690875,6.5628164062500005,3.2176930875,5.07675340625,3.2215222875C4.97407320625,3.2216488875,4.87143920625,3.2207052875,4.76876520625,3.2196960875C4.25454890625,3.2176847875,3.7834815062500002,3.2425076875,3.35392123625,3.5541493875ZM6.43392160625,5.7941493875C5.98883800625,6.3102211875,5.794876106249999,7.0997733875,5.82017110625,7.7669615875C5.84905340625,8.0761322875,5.9578669062500005,8.2693748875,6.194859006250001,8.4664935875C6.4425678062500005,8.6158046875,6.693321006250001,8.6081475875,6.97392130625,8.6066493875C7.04026320625,8.6063108875,7.04026320625,8.6063108875,7.10794500625,8.6059655875C8.31258820625,8.5885696875,9.44345950625,8.2732820875,10.444897606249999,7.6003989875C10.50595190625,7.5594896875,10.56784920625,7.5198449875,10.629858506249999,7.4803995875C10.82987120625,7.3431748875,10.92612460625,7.2229852875,10.97923370625,6.9839930875C11.02402590625,6.6490044875,11.03957840625,6.3558935875,10.83392140625,6.0741495875C10.720624006249999,5.9336957875,10.600436706250001,5.8027624875,10.47392130625,5.6741494875C10.44736720625,5.6470789875,10.42081210625,5.6200084875,10.393452606250001,5.5921182875C9.57441090625,4.8162717875,7.23053170625,5.0160646875,6.43392160625,5.7941493875ZM5.39392140625,8.3541497875C5.38567520625,8.3768262875,5.3774292062499995,8.3995017875,5.36893340625,8.4228658875C5.35713460625,8.4553126875,5.34533570625,8.4877605875,5.33317920625,8.5211906875C5.319715706249999,8.5582151875,5.30625250625,8.5952396875,5.29238130625,8.6333856875C5.26151350625,8.7182721875,5.2306437062499995,8.8031577875,5.19977260625,8.8880424875C5.111827606249999,9.1298703875,5.02391050625,9.3717088875,4.93604040625,9.6135635875C4.89893200625,9.7156877875,4.86181900625,9.8178090875,4.82470250625,9.9199304875C4.81530360625,9.9457912875,4.80590410625,9.9716519875,4.79622050625,9.9982967875C4.66286150625,10.3651661875,4.52900340625,10.7318501875,4.39478430625,11.0984071875C4.33111210625,11.2723681875,4.26756810625,11.4463771875,4.20400420625,11.6203791875C4.16916300625,11.7156411875,4.13425810625,11.8108791875,4.09928740625,11.9060931875C4.05020060625,12.0397621875,4.0013359062500005,12.1735101875,3.95251500625,12.3072751875C3.93817320625,12.3461461875,3.92383120625,12.3850181875,3.9090549062499997,12.4250701875C3.66132813625,13.1061651875,3.55298739625,13.7343011875,3.8407962062500003,14.4269631875C3.93747840625,14.6316651875,4.02976380625,14.8181871875,4.24561070625,14.9154771875C4.29589880625,14.9302891875,4.29589880625,14.9302891875,4.3472025062499995,14.9453991875C4.38530060625,14.9567111875,4.42339920625,14.9680221875,4.46265160625,14.9796771875C4.52391750625,14.9967411875,4.52391750625,14.9967411875,4.58642120625,15.0141491875C4.62870880625,15.0261941875,4.6709967062499995,15.0382431875,4.71456590625,15.0506531875C5.277974406249999,15.2059811875,5.8520296062499995,15.3031051875,6.43392160625,15.3541491875C6.47336700625,15.3577591875,6.51281210625,15.3613691875,6.55345270625,15.3650861875C6.72030900625,15.3723781875,6.80567450625,15.3746941875,6.94392160625,15.2741501875C6.97362140625,15.2345501875,7.00332160625,15.1949491875,7.03392170625,15.1541491875C7.05217460625,15.1346071875,7.07042790625,15.1150651875,7.08923390625,15.0949311875C7.24248460625,14.9196161875,7.32215400625,14.7270301875,7.40298410625,14.5121181875C7.41498710625,14.4807081875,7.42698950625,14.4492981875,7.43935580625,14.4169381875C7.47779230625,14.3161001875,7.51587910625,14.2151351875,7.55392120625,14.1141501875C7.57917360625,14.0475251875,7.60442730625,13.9809011875,7.62968300625,13.9142761875C7.69253830625,13.7480031875,7.75469400625,13.5814811875,7.81649920625,13.4148131875C7.84189130625,13.3465111875,7.86741640625,13.2782561875,7.89306160625,13.2100481875C7.93072410625,13.1098551875,7.96799280625,13.0095231875,8.00517080625,12.9091491875C8.016748906250001,12.8785731875,8.028326006250001,12.8479961875,8.04025410625,12.8164931875C8.06714870625,12.7431941875,8.090856106250001,12.6687421875,8.11392120625,12.5941491875C8.100721406249999,12.5677491875,8.087521506249999,12.5413491875,8.07392070625,12.5141491875C7.99679900625,12.5014871875,7.99679900625,12.5014871875,7.90642120625,12.4991491875C7.72256280625,12.4816401875,7.61534070625,12.4391251875,7.47392130625,12.3141501875C7.32061960625,12.1205051875,7.28017810625,11.9522111875,7.28767160625,11.7058681875C7.35791920625,11.2998531875,7.54378180625,10.6520651875,7.86548380625,10.3718061875C8.158124006249999,10.2317121875,8.41983320625,10.2386641875,8.72673370625,10.3352431875C8.76200870625,10.3462231875,8.79728410625,10.3572021875,8.833628206250001,10.3685141875C8.86012550625,10.3769741875,8.88662190625,10.3854331875,8.91392090625,10.3941491875C8.99391750625,10.1742661875,9.073664206250001,9.9542951875,9.15317870625,9.7342366875C9.180272106250001,9.6593684875,9.20743320625,9.5845250875,9.234663506250001,9.5097064875C9.27376270625,9.4022407875,9.31261540625,9.2946891875,9.35142130625,9.1871175875C9.36367130625,9.1536140875,9.37592030625,9.1201104875,9.38853980625,9.0855922875C9.39975210625,9.0543689875,9.41096450625,9.0231446875,9.42251540625,8.9909753875C9.43246410625,8.9635285875,9.442411906250001,8.9360818875,9.45266100625,8.9078034875C9.479467906250001,8.8277110875,9.479467906250001,8.8277110875,9.47392130625,8.7141494875C9.28820420625,8.7545880875,9.10317900625,8.7962445875,8.918921006249999,8.8428992875C8.27274460625,9.0057611875,7.66565180625,9.0805730875,6.99892140625,9.0891494875C6.92544510625,9.0907201875,6.92544510625,9.0907201875,6.85048390625,9.0923232875C6.44441030625,9.0930680875,6.07568740625,9.0160512875,5.75392130625,8.7541493875C5.6897170062499995,8.6852016875,5.62893100625,8.6147536875,5.56970260625,8.5414933875C5.51447580625,8.4748191875,5.45548920625,8.4149303875,5.39392140625,8.3541497875ZM8.169028806250001,10.8030071875C8.06232690625,10.9407571875,8.010011706250001,11.1057771875,7.94642110625,11.2666501875C7.92433980625,11.3200561875,7.92433980625,11.3200561875,7.90181160625,11.3745401875C7.79135660625,11.6365381875,7.79135660625,11.6365381875,7.79392150625,11.9141491875C7.89946600625,11.9956181875,7.96314520625,12.0346121875,8.09790560625,12.0325871875C8.13412860625,12.0248531875,8.17035100625,12.0171181875,8.20767120625,12.0091491875C8.26761250625,11.9963881875,8.26761250625,11.9963881875,8.32876490625,11.9833681875C8.370066606249999,11.9737261875,8.41136880625,11.9640831875,8.453921306249999,11.9541501875C8.49522300625,11.9457451875,8.53652480625,11.9373411875,8.57907720625,11.9286801875C8.81100420625,11.8769081875,8.96648360625,11.8331601875,9.11392120625,11.6341491875C9.19351960625,11.4949841875,9.23498770625,11.3621241875,9.231421006249999,11.2016491875C9.16453270625,11.0455771875,9.03502080625,10.9910341875,8.88392110625,10.9299301875C8.82735780625,10.9085611875,8.77068760625,10.8874731875,8.71392110625,10.8666491875C8.67122790625,10.8502911875,8.67122790625,10.8502911875,8.62767120625,10.8336021875C8.39452500625,10.7348361875,8.39452500625,10.7348361875,8.169028806250001,10.8030071875Z" fill="#C5CBD8" fill-opacity="1"/><path d="M7.72615234375,6.3618217895C7.94160814375,6.5071291725,8.06632414375,6.6458295925,8.13818354375,6.8958842725C8.17253874375,7.1145074925,8.13354634375,7.3025660125,8.01255874375,7.4879155125C7.86184604375,7.6702875125,7.74355534375,7.7781863125,7.50365239375,7.8040093125C7.25853002375,7.8167137125,7.0749889037500004,7.7774012125,6.87365234375,7.6343218125C6.70482780775,7.4654974124999995,6.64523056175,7.2965959925,6.61865234375,7.0618217625C6.64089576675,6.8430947625,6.70004394675,6.6441007525,6.86240235375,6.4883842925C7.12746751375,6.2940780879,7.41646653375,6.2508023265,7.72615234375,6.3618217895ZM7.19365233375,6.9143218425C7.15181881375,7.0108608025,7.14989799375,7.0597215325,7.17615240375,7.1618217825C7.23173385375,7.2457386825,7.23173385375,7.2457386825,7.35115236375,7.2718217925C7.47003853375,7.2839843025,7.47003853375,7.2839843025,7.55115234375,7.2343217724999995C7.61724084375,7.1099199625,7.5814032537500005,7.0080308325,7.55365240375,6.8743218225C7.36402177375,6.8268426025,7.36402177375,6.8268426025,7.19365233375,6.9143218425Z" fill="#C5CBD8" fill-opacity="1"/></g></svg>