<svg xmlns="http://www.w3.org/2000/svg" xmlns:xlink="http://www.w3.org/1999/xlink" fill="none" version="1.1" width="16" height="16" viewBox="0 0 16 16"><defs><clipPath id="master_svg0_37_7824"><rect x="0" y="0" width="16" height="16" rx="0"/></clipPath></defs><g clip-path="url(#master_svg0_37_7824)"><path d="M10.7732849,4.517473C10.6425834,3.8317745,9.6822281,0.6267948999999999,7.2197735000000005,1.035941053Q6.2780846,1.19238578,5.7358860400000005,1.74254227Q4.5777978,2.9176278,5.2422314,5.8888726Q5.63054097,7.9440751,6.5397549999999995,10.1962729L9.4243822,10.0577536L10.3660326,10.012536C10.3206229,9.7734871,10.3122039,9.5053892,10.3278117,9.2166042C10.3554783,8.7047124,10.4586387,8.127818600000001,10.5650969,7.5324821C10.7493167,6.502286,10.9434118,5.4168639,10.7732849,4.517473ZM6.1634328,5.7148209Q6.4812701,7.3970351,7.1683691,9.2275066L9.4116406,9.1197853Q9.4577303,8.3992486,9.6422358,7.3674564Q9.989881,5.4233503,9.852364999999999,4.6930101L9.852119,4.6917197999999996Q9.6716723,3.7465293,9.093916400000001,2.8906834999999997Q8.3559494,1.79751319,7.3734357,1.96076143Q6.4137233,2.1202011,6.1170463999999996,2.8482529000000003Q5.73344672,3.7896144,6.1571344,5.6842813L6.1605378,5.6994982L6.1634328,5.7148209ZM6.8541923,11.654805Q6.517877,14.04047,7.4417455,14.72477Q7.9644241000000005,15.111913,8.8904536,14.954494Q9.3860602,14.869952,9.7075415,14.587337Q10.5889516,13.812489,10.1614585,11.54873L6.8541923,11.654805ZM7.7044563,12.565516L9.350781399999999,12.512713Q9.407226600000001,13.214782,9.257084800000001,13.6171Q9.1280255,13.962926,8.7333393,14.030252Q8.074955899999999,14.142173,7.8977802,13.855066Q7.6591954,13.468449,7.7044563,12.565516Z" fill-rule="evenodd" fill="#C5CBD8" fill-opacity="1"/></g></svg>